<?xml version="1.0" standalone="no"?>
<!DOCTYPE svg PUBLIC "-//W3C//DTD SVG 1.1//EN" "http://www.w3.org/Graphics/SVG/1.1/DTD/svg11.dtd" >
<svg xmlns="http://www.w3.org/2000/svg" xmlns:xlink="http://www.w3.org/1999/xlink" version="1.1">
<metadata>
Created by FontForge 20160405 at Tue Jul 17 11:09:40 2018
 By www-data
Modern and elegant sans serif font family.
</metadata>
<defs>
<font id="Solomon-Sans-Book" horiz-adv-x="564" >
  <font-face 
    font-family="Solomon Sans Book"
    font-weight="400"
    font-stretch="normal"
    units-per-em="1000"
    panose-1="2 0 0 0 0 0 0 0 0 0"
    ascent="750"
    descent="-250"
    x-height="507"
    cap-height="700"
    bbox="-117 -206 1678 884"
    underline-thickness="50"
    underline-position="-100"
    stemh="84"
    stemv="99"
    unicode-range="U+0020-FB04"
  />
<missing-glyph horiz-adv-x="612" 
d="M58 0v699h498v-699h-498zM307 376l188 284h-375zM325 350l195 -293v586zM96 58l192 292l-192 293v-585zM119 40h376l-188 279z" />
    <glyph glyph-name="fi" unicode="fi" horiz-adv-x="525" 
d="M430 0h-53v461h-216v-461h-52v461h-50v46h50v52c0 99 67 146 156 142v-44c-78 0 -104 -37 -104 -98v-52h269v-507zM431 699v-77h-55v77h55z" />
    <glyph glyph-name="fl" unicode="fl" horiz-adv-x="542" 
d="M265 701v-44c-78 0 -104 -37 -104 -98v-52h100v-46h-100v-461h-52v461h-50v46h50v52c0 99 67 146 156 142zM505 45v-46c-86 -4 -134 44 -134 142v559h53v-559c0 -60 17 -97 81 -96z" />
    <glyph glyph-name="f_f_i" unicode="ffi" horiz-adv-x="830" 
d="M735 0h-53v461h-215v-461h-52v461h-252v-461h-52v461h-50v46h50v52c0 99 67 146 156 142v-44c-78 0 -104 -37 -104 -98v-52h252v52c0 99 67 146 156 142v-44c-78 0 -104 -37 -104 -98v-52h268v-507zM736 699v-77h-55v77h55z" />
    <glyph glyph-name="f_f_l" unicode="ffl" horiz-adv-x="854" 
d="M561 701v-44c-78 0 -104 -37 -104 -98v-52h100v-46h-100v-461h-52v461h-242v-461h-52v461h-50v46h50v52c0 99 67 146 156 142v-44c-78 0 -104 -37 -104 -98v-52h242v52c0 99 67 146 156 142zM816 45v-46c-86 -4 -134 44 -134 142v559h53v-559c0 -60 17 -97 81 -96z" />
    <glyph glyph-name="f_j" unicode="fj" 
d="M466 702v-73h-55v73h55zM311 -189v45c69 0 103 39 103 97v509h-239v-462h-52v462h-50v45h50v52c0 99 67 146 156 142v-44c-78 0 -104 -37 -104 -98v-52h292v-554c0 -98 -66 -146 -156 -142z" />
    <glyph glyph-name="f_f" unicode="ff" horiz-adv-x="613" 
d="M572 701v-44c-78 0 -104 -37 -104 -98v-52h100v-46h-100v-461h-52v461h-252v-461h-52v461h-50v46h50v52c0 99 67 146 156 142v-44c-78 0 -104 -37 -104 -98v-52h252v52c0 99 67 146 156 142z" />
    <glyph glyph-name=".notdef" horiz-adv-x="612" 
d="M58 0v699h498v-699h-498zM307 376l188 284h-375zM325 350l195 -293v586zM96 58l192 292l-192 293v-585zM119 40h376l-188 279z" />
    <glyph glyph-name="space" unicode=" " horiz-adv-x="257" 
 />
    <glyph glyph-name="exclam" unicode="!" horiz-adv-x="323" 
d="M188 152h-52v549h53zM192 0h-60v78h60v-78z" />
    <glyph glyph-name="quotedbl" unicode="&#x22;" horiz-adv-x="330" 
d="M83 517v184h50v-184h-50zM198 517v184h49v-184h-49z" />
    <glyph glyph-name="numbersign" unicode="#" horiz-adv-x="603" 
d="M545 486v-48h-96l-27 -174h88v-45h-95l-38 -219h-43l38 219h-158l-38 -219h-46l38 219h-98v45h105l26 174h-97v48h104l35 214h46l-35 -214h158l35 214h44l-35 -214h89zM405 438h-158l-26 -174h158z" />
    <glyph glyph-name="dollar" unicode="$" horiz-adv-x="566" 
d="M140 530c-5 -98 88 -133 150 -149c102 -26 208 -70 202 -217c-5 -108 -94 -164 -188 -176v-90h-47v89c-78 11 -153 56 -187 136l43 22c30 -64 94 -110 167 -110c91 -1 153 50 158 132c8 111 -91 147 -163 166c-88 25 -193 71 -189 200c3 106 82 169 171 182v89h47v-88
c75 -11 142 -51 172 -121l-40 -20c-31 56 -95 90 -152 91c-70 0 -138 -46 -144 -136z" />
    <glyph glyph-name="percent" unicode="%" horiz-adv-x="840" 
d="M382 542c0 -88 -72 -160 -159 -160s-159 72 -159 160c0 89 72 161 159 161s159 -72 159 -161zM771 158c0 -88 -72 -160 -159 -160c-88 0 -160 72 -160 160s72 160 160 160c87 0 159 -72 159 -160zM722 158c0 63 -47 115 -110 115c-64 0 -112 -52 -112 -115
c0 -64 48 -113 112 -113c63 0 110 49 110 113zM610 732h58c-151 -258 -306 -501 -456 -759h-56c151 258 304 501 454 759zM336 542c0 65 -48 115 -113 115c-64 0 -113 -50 -113 -115c0 -63 49 -114 113 -114c65 0 113 51 113 114z" />
    <glyph glyph-name="ampersand" unicode="&#x26;" horiz-adv-x="655" 
d="M300 376l164 -175l61 97c20 -10 26 -15 43 -24l-70 -107l131 -151h-67l-94 107c-57 -73 -114 -121 -198 -121c-75 0 -137 33 -173 95c-67 115 -6 222 120 295c-38 45 -76 98 -76 156c0 97 79 153 163 153c76 0 147 -58 147 -143c0 -91 -78 -142 -151 -182zM435 162
l-182 195c-87 -45 -166 -132 -113 -228c26 -47 81 -76 138 -76c67 0 118 56 157 109zM301 653c-57 0 -108 -48 -108 -104c0 -42 42 -101 75 -139c54 28 132 75 132 145c0 53 -45 98 -99 98z" />
    <glyph glyph-name="quotesingle" unicode="'" horiz-adv-x="212" 
d="M82 512v189h47v-189h-47z" />
    <glyph glyph-name="parenleft" unicode="(" horiz-adv-x="394" 
d="M142 352c0 -157 78 -333 219 -423v-59c-166 96 -271 290 -271 482c0 193 105 387 271 483v-58c-144 -92 -219 -265 -219 -425z" />
    <glyph glyph-name="parenright" unicode=")" horiz-adv-x="393" 
d="M248 352c0 160 -75 333 -219 425v58c166 -96 271 -290 271 -483c0 -192 -105 -386 -271 -482v59c141 90 219 266 219 423z" />
    <glyph glyph-name="asterisk" unicode="*" horiz-adv-x="474" 
d="M408 562l-146 -43l95 -126l-36 -24l-90 129l-89 -130l-34 25l91 126l-141 43l14 41l141 -50l-1 151h42l-3 -151l143 49z" />
    <glyph glyph-name="plus" unicode="+" horiz-adv-x="656" 
d="M97 307v47h212v209h48v-209h202v-47h-202v-213h-48v213h-212z" />
    <glyph glyph-name="comma" unicode="," horiz-adv-x="237" 
d="M36 -130l59 196h61l-80 -196h-40z" />
    <glyph glyph-name="hyphen" unicode="-" horiz-adv-x="462" 
d="M110 287v50h244v-50h-244z" />
    <glyph glyph-name="period" unicode="." horiz-adv-x="268" 
d="M159 -1h-63v78h63v-78z" />
    <glyph glyph-name="slash" unicode="/" horiz-adv-x="415" 
d="M383 768l-281 -823h-52c95 279 187 544 282 823h51z" />
    <glyph glyph-name="zero" unicode="0" horiz-adv-x="615" 
d="M133 509v-319c0 -101 89 -152 175 -152c84 0 173 51 173 152v319c0 99 -93 152 -177 151c-85 -1 -171 -54 -171 -151zM82 190v319c0 131 110 198 221 199c115 2 230 -64 230 -199v-319c2 -130 -107 -200 -225 -200c-119 -2 -229 69 -226 200z" />
    <glyph glyph-name="one" unicode="1" horiz-adv-x="330" 
d="M159 652h-92v48h143v-700h-51v652z" />
    <glyph glyph-name="two" unicode="2" horiz-adv-x="573" 
d="M288 662h1c-74 3 -136 -42 -167 -102l-43 21c38 86 122 128 210 129c130 -1 203 -85 205 -190c0 -56 -31 -115 -76 -165l-277 -306h370v-49h-417c-7 17 -17 32 -23 48l311 344c36 40 60 87 59 127c0 78 -56 140 -153 143z" />
    <glyph glyph-name="three" unicode="3" horiz-adv-x="563" 
d="M61 118l43 23c43 -79 103 -103 169 -103c75 0 161 62 161 160c0 89 -72 155 -150 155h-43v50h43c70 0 129 42 129 123c0 164 -228 184 -292 52l-39 21c81 175 385 143 385 -73c0 -55 -35 -123 -90 -148c72 -39 108 -103 108 -181c-1 -132 -108 -210 -215 -210
c-81 0 -168 46 -209 131z" />
    <glyph glyph-name="four" unicode="4" horiz-adv-x="546" 
d="M433 700v-499h62v-48h-62v-153h-51v153h-298l-44 51l328 496h65zM382 201l1 431l-288 -431h287z" />
    <glyph glyph-name="five" unicode="5" horiz-adv-x="586" 
d="M68 118l40 26c41 -68 108 -106 179 -106c117 0 179 103 178 189c0 84 -59 177 -175 177c-64 0 -114 -14 -171 -46c-9 0 -16 0 -24 -1l51 343h333v-46h-292l-36 -231c51 20 101 30 141 30c151 -2 225 -116 225 -227c0 -114 -79 -237 -232 -237c-85 0 -173 47 -217 129z
" />
    <glyph glyph-name="six" unicode="6" horiz-adv-x="607" 
d="M308 -9c-151 0 -230 118 -230 232c0 48 13 98 38 137l212 340h60l-178 -275c46 28 83 29 98 29c159 0 230 -120 230 -231c0 -114 -78 -232 -230 -232zM308 405c-97 0 -177 -83 -178 -181c0 -86 62 -185 178 -185c117 0 180 99 179 185c0 84 -63 181 -179 181z" />
    <glyph glyph-name="seven" unicode="7" horiz-adv-x="505" 
d="M412 652h-367v48h398l27 -40l-343 -660h-56z" />
    <glyph glyph-name="eight" unicode="8" horiz-adv-x="591" 
d="M293 -10c-108 0 -215 75 -216 209c-1 76 45 142 109 182c-52 37 -81 92 -81 147c0 116 94 182 188 182c95 0 188 -66 188 -182c0 -52 -28 -110 -80 -147c70 -43 110 -106 109 -182c-1 -134 -108 -209 -217 -209zM293 661c-88 0 -138 -70 -138 -131s51 -130 138 -130
c88 0 136 68 136 129s-47 132 -136 132zM293 356c-106 0 -163 -82 -163 -158s56 -161 163 -160c108 1 165 87 165 162s-57 156 -165 156z" />
    <glyph glyph-name="nine" unicode="9" horiz-adv-x="609" 
d="M301 709c151 0 230 -118 230 -232c0 -48 -13 -98 -38 -137l-212 -340h-60l178 275c-46 -28 -83 -27 -98 -27c-159 0 -230 118 -230 229c0 114 78 232 230 232zM301 295c97 0 177 83 178 181c0 86 -62 185 -178 185c-117 0 -180 -99 -179 -185c0 -93 51 -181 179 -181z
" />
    <glyph glyph-name="colon" unicode=":" horiz-adv-x="306" 
d="M182 -1h-64v80h64v-80zM183 407h-65v80h65v-80z" />
    <glyph glyph-name="semicolon" unicode=";" horiz-adv-x="307" 
d="M183 407h-65v80h65v-80zM64 -130l59 196h61l-80 -196h-40z" />
    <glyph glyph-name="less" unicode="&#x3c;" horiz-adv-x="509" 
d="M431 510v-58l-323 -166l323 -164v-57l-375 196v50z" />
    <glyph glyph-name="equal" unicode="=" horiz-adv-x="639" 
d="M116 351v50h407v-50h-407zM116 153v51h407v-51h-407z" />
    <glyph glyph-name="greater" unicode="&#x3e;" horiz-adv-x="508" 
d="M79 452v58l375 -199v-50l-375 -196v57l323 164z" />
    <glyph glyph-name="question" unicode="?" horiz-adv-x="534" 
d="M44 621l3 4c43 55 114 83 184 83c108 0 215 -70 214 -199c-1 -116 -83 -190 -200 -211l-6 -143h-41l-6 181c103 7 204 65 202 174c-2 102 -85 149 -165 149c-54 0 -112 -26 -148 -64c-16 13 -22 15 -37 26zM250 1h-57v73h57v-73z" />
    <glyph glyph-name="at" unicode="@" horiz-adv-x="813" 
d="M656 432l4 -5c-53 67 -139 106 -227 106c-189 0 -304 -163 -307 -317c-2 -163 79 -283 282 -283c29 0 63 3 100 17l21 -43c-45 -16 -82 -22 -121 -22c-237 0 -334 163 -332 332c3 179 133 365 355 365c183 0 320 -124 320 -285c0 -156 -112 -273 -219 -273
c-24 0 -54 24 -49 78c-39 -61 -93 -78 -131 -78c-70 0 -123 68 -123 137c0 132 79 268 217 268c32 0 92 -21 99 -90c3 9 13 41 20 61c23 -1 26 0 48 -1l-80 -261v-1c-10 -28 -20 -66 21 -66c83 0 149 123 149 226c0 51 -18 98 -47 135zM278 163c0 -51 33 -94 82 -94
c88 0 159 134 159 215c0 58 -26 96 -77 96c-111 2 -164 -105 -164 -217z" />
    <glyph glyph-name="A" unicode="A" horiz-adv-x="636" 
d="M28 0l248 707h81c83 -231 169 -476 252 -707h-57l-84 234h-301l-81 -234h-58zM186 284h265l-134 388z" />
    <glyph glyph-name="B" unicode="B" horiz-adv-x="613" 
d="M508 519c0 -52 -21 -115 -101 -146c102 -36 133 -108 132 -175c0 -133 -104 -198 -227 -198h-196v700h197c105 0 195 -72 195 -181zM170 395h143c96 0 143 65 143 125s-47 134 -143 134h-143v-259zM313 347h-143v-299h143c116 0 173 83 173 152s-58 147 -173 147z" />
    <glyph glyph-name="C" unicode="C" horiz-adv-x="733" 
d="M650 615l-36 -36c-53 50 -127 84 -202 82c-189 -3 -290 -164 -290 -313c0 -148 104 -309 290 -309c80 0 166 40 221 97l38 -31c-64 -70 -158 -118 -259 -118c-225 0 -345 184 -345 361s120 364 345 364c93 0 176 -37 238 -97z" />
    <glyph glyph-name="D" unicode="D" horiz-adv-x="729" 
d="M116 700h203c220 2 336 -171 339 -341c4 -174 -111 -359 -338 -359h-204v700zM171 51h148c193 -3 288 160 284 307c-3 142 -98 292 -282 292h-150v-599z" />
    <glyph glyph-name="E" unicode="E" horiz-adv-x="531" 
d="M461 701v-52h-294v-272h290v-51h-291v-273h295v-52h-349v700h349z" />
    <glyph glyph-name="F" unicode="F" horiz-adv-x="522" 
d="M465 700v-51h-296v-278h292v-52h-292v-319h-53v700h349z" />
    <glyph glyph-name="G" unicode="G" horiz-adv-x="825" 
d="M413 713c102 0 195 -44 258 -115l-40 -33c-54 60 -135 96 -218 96c-186 0 -291 -167 -291 -312c0 -146 105 -306 291 -306c127 0 263 103 277 245h-314v52h377c-4 -193 -138 -349 -340 -349c-224 0 -344 181 -345 358c0 176 120 364 345 364z" />
    <glyph glyph-name="H" unicode="H" horiz-adv-x="688" 
d="M522 0v323h-354v-323h-54v700h54v-326h354v326h53v-700h-53z" />
    <glyph glyph-name="I" unicode="I" horiz-adv-x="286" 
d="M116 0v700h54v-700h-54z" />
    <glyph glyph-name="J" unicode="J" horiz-adv-x="549" 
d="M51 154l49 13c24 -94 90 -123 153 -123c71 0 141 53 141 148v458h-135v50h189v-508c0 -132 -96 -200 -194 -200c-87 0 -173 42 -203 162z" />
    <glyph glyph-name="K" unicode="K" horiz-adv-x="634" 
d="M116 700h53v-375l347 375h61l-275 -310l292 -390h-64l-267 353l-94 -92v-261h-53v700z" />
    <glyph glyph-name="L" unicode="L" horiz-adv-x="471" 
d="M426 52v-52h-327v700h54v-648h273z" />
    <glyph glyph-name="M" unicode="M" horiz-adv-x="855" 
d="M455 107h-53l-233 533v-640h-53v701h82l230 -534c73 166 155 368 228 534h84v-701h-53l1 640z" />
    <glyph glyph-name="N" unicode="N" horiz-adv-x="737" 
d="M116 700h67l384 -648v648h54v-700h-84l-367 620v-620h-54v700z" />
    <glyph glyph-name="O" unicode="O" horiz-adv-x="824" 
d="M412 711c-209 0 -346 -170 -346 -362c0 -239 172 -358 345 -358s347 119 347 358c0 192 -142 362 -346 362zM120 349c0 412 584 415 584 0c0 -207 -148 -310 -295 -308c-145 2 -289 105 -289 308z" />
    <glyph glyph-name="P" unicode="P" horiz-adv-x="601" 
d="M169 267v-267h-53v701h197c149 -2 224 -113 223 -223c-1 -107 -75 -211 -222 -211h-145zM169 317h144c115 4 171 84 170 164c-1 81 -59 163 -170 169h-144v-333z" />
    <glyph glyph-name="Q" unicode="Q" horiz-adv-x="833" 
d="M487 234l36 36l113 -113c38 55 64 119 64 191c0 194 -140 305 -292 305c-150 0 -289 -112 -289 -305c0 -195 147 -304 291 -304c68 0 132 29 191 76zM678 128l-6 -7l66 -65l-37 -36l-63 63c-68 -61 -146 -91 -228 -91c-190 0 -344 164 -344 356s147 357 344 357
c195 0 344 -165 344 -357c0 -84 -28 -161 -76 -220z" />
    <glyph glyph-name="R" unicode="R" horiz-adv-x="628" 
d="M331 297l232 -297h-68l-231 297h-95v-297h-53v700h210c127 0 224 -69 226 -203c1 -130 -91 -195 -221 -200zM169 346h158c103 0 172 49 172 151c0 104 -73 152 -172 152h-158v-303z" />
    <glyph glyph-name="S" unicode="S" 
d="M131 529c-6 -97 89 -125 151 -141c99 -25 209 -80 202 -220c-10 -115 -116 -177 -214 -177c-82 0 -169 47 -207 136c14 7 31 17 43 23c30 -64 92 -107 165 -107c90 -1 155 51 160 129c8 108 -92 146 -164 165c-87 24 -193 65 -189 195c4 120 101 179 196 179
c80 0 160 -42 194 -122l-42 -21c-30 57 -93 90 -150 90c-70 1 -140 -40 -145 -129z" />
    <glyph glyph-name="T" unicode="T" horiz-adv-x="455" 
d="M25 700h405v-45h-176v-655h-53v655h-176v45z" />
    <glyph glyph-name="U" unicode="U" horiz-adv-x="659" 
d="M106 700h54v-502c0 -101 85 -155 169 -155c83 0 171 54 171 155v502h53v-502c0 -138 -112 -207 -224 -207s-223 69 -223 207v502z" />
    <glyph glyph-name="V" unicode="V" horiz-adv-x="631" 
d="M358 -5h-81l-251 705h56l236 -669l232 669h56c-82 -232 -166 -473 -248 -705z" />
    <glyph glyph-name="W" unicode="W" horiz-adv-x="958" 
d="M511 604l170 -574l174 670h57c-63 -232 -128 -474 -191 -705h-80l-157 526l-158 -525h-80c-63 233 -129 471 -192 704h55l178 -670c53 172 117 401 171 574h53z" />
    <glyph glyph-name="X" unicode="X" horiz-adv-x="647" 
d="M600 700l-237 -350l240 -350h-62l-212 311l-213 -311h-62l241 350l-237 350h62l209 -312l208 312h63z" />
    <glyph glyph-name="Y" unicode="Y" horiz-adv-x="593" 
d="M560 700l-238 -420v-280h-53v281l-236 419h59l204 -370l205 370h59z" />
    <glyph glyph-name="Z" unicode="Z" horiz-adv-x="572" 
d="M67 0v53l363 601h-345v47h413v-28l-379 -625h385v-48h-437z" />
    <glyph glyph-name="bracketleft" unicode="[" horiz-adv-x="315" 
d="M262 777v-49h-90l-1 -755h90v-48h-141c0 287 1 565 1 852h141z" />
    <glyph glyph-name="backslash" unicode="\" horiz-adv-x="420" 
d="M319 -55l-280 823h51l282 -823h-53z" />
    <glyph glyph-name="bracketright" unicode="]" horiz-adv-x="316" 
d="M51 728v49h141l1 -852h-141v48h90l-1 755h-90z" />
    <glyph glyph-name="asciicircum" unicode="^" horiz-adv-x="613" 
d="M91 323l198 379h35l197 -379h-54l-160 328l-164 -328h-52z" />
    <glyph glyph-name="underscore" unicode="_" horiz-adv-x="592" 
d="M54 -10h485v-48h-485v48z" />
    <glyph glyph-name="grave" unicode="`" horiz-adv-x="513" 
d="M279 762l-76 104h62l60 -104h-46z" />
    <glyph glyph-name="a" unicode="a" 
d="M429 105v139c-44 28 -100 40 -145 40c-116 0 -175 -54 -175 -123c0 -72 54 -125 165 -125c52 0 118 25 155 69zM478 0h-40l-10 54c-47 -45 -106 -64 -154 -65c-147 -1 -216 77 -216 175c0 89 78 168 225 169c42 0 97 -13 146 -42v42c0 109 -78 135 -161 135
c-58 0 -97 -14 -146 -45l-23 37c50 38 112 56 172 56c105 0 207 -47 207 -183v-333z" />
    <glyph glyph-name="b" unicode="b" horiz-adv-x="583" 
d="M279 509c160 1 239 -130 239 -259c0 -127 -77 -253 -231 -255c-45 -1 -103 11 -139 59l-8 -54h-43v701h53v-242c39 38 87 50 129 50zM277 41c124 2 188 104 190 207s-57 207 -178 215c-57 2 -107 -17 -140 -57v-294c37 -50 78 -71 128 -71z" />
    <glyph glyph-name="c" unicode="c" horiz-adv-x="530" 
d="M467 454l-28 -34c-37 31 -85 45 -134 45c-100 1 -195 -81 -196 -215c0 -98 67 -208 197 -208c50 0 98 19 136 50c12 -15 20 -23 31 -36c-44 -40 -104 -64 -167 -64c-163 0 -249 132 -249 259c0 128 89 262 249 263c65 0 115 -16 161 -60z" />
    <glyph glyph-name="d" unicode="d" horiz-adv-x="582" 
d="M303 509c42 0 90 -12 129 -50v242h53v-701h-43l-8 54c-36 -48 -94 -60 -139 -59c-310 4 -309 515 8 514zM305 42c50 0 91 20 128 70v294c-33 40 -83 59 -140 57c-241 -15 -237 -416 12 -421z" />
    <glyph glyph-name="e" unicode="e" horiz-adv-x="603" 
d="M306 42c57 0 117 21 153 66l39 -27c-48 -59 -116 -88 -192 -88c-163 0 -246 139 -245 265c0 127 85 255 244 256c138 1 235 -107 235 -243c0 -12 -1 -20 -2 -33h-429c7 -100 77 -196 197 -196zM109 282h385c-6 109 -84 182 -189 184c-118 -1 -182 -82 -196 -184z" />
    <glyph glyph-name="f" unicode="f" horiz-adv-x="300" 
d="M162 559v-52h112v-45h-112v-462h-52v462h-87v45h87v52c0 99 66 155 175 142v-44c-98 7 -123 -38 -123 -98z" />
    <glyph glyph-name="g" unicode="g" horiz-adv-x="584" 
d="M306 511c42 0 91 -14 130 -52l9 48h43v-514c0 -142 -103 -191 -210 -190c-71 1 -143 27 -190 80l30 34c38 -41 99 -66 157 -66c88 0 162 31 162 142v61c-36 -48 -94 -60 -139 -59c-313 4 -312 517 8 516zM308 42c50 0 91 20 128 70v294c-33 40 -83 61 -140 59
c-244 -15 -243 -418 12 -423z" />
    <glyph glyph-name="h" unicode="h" horiz-adv-x="610" 
d="M148 409v-409h-52v700h52v-239c36 35 91 53 141 53c131 -2 232 -83 232 -226v-288h-52v288c-1 106 -81 174 -182 178c-57 1 -106 -17 -139 -57z" />
    <glyph glyph-name="i" unicode="i" horiz-adv-x="245" 
d="M148 0h-52v508h52v-508zM149 699v-77h-54v77h54z" />
    <glyph glyph-name="j" unicode="j" horiz-adv-x="245" 
d="M-7 -189v45c69 0 103 39 103 97v555h53v-555c0 -98 -66 -146 -156 -142zM148 700v-75h-55v75h55z" />
    <glyph glyph-name="k" unicode="k" horiz-adv-x="522" 
d="M96 700h49v-460l264 267h62l-217 -220c72 -89 157 -197 230 -287h-57l-206 252l-76 -69v-183h-49v700z" />
    <glyph glyph-name="l" unicode="l" horiz-adv-x="276" 
d="M224 45v-46c-86 -4 -134 44 -134 142v559h53v-559c0 -60 17 -97 81 -96z" />
    <glyph glyph-name="m" unicode="m" horiz-adv-x="927" 
d="M287 469c-57 1 -106 -18 -139 -58v-411h-52v507h45l7 -43c36 35 91 52 141 52c87 -4 145 -26 176 -101c44 89 108 100 175 100c109 0 198 -59 198 -213v-302h-52v302c0 118 -69 166 -146 166c-79 0 -147 -36 -148 -156v-312h-49l-2 312c-4 105 -57 157 -154 157z" />
    <glyph glyph-name="n" unicode="n" horiz-adv-x="620" 
d="M148 411v-411h-52v507h45l7 -43c36 35 91 53 141 53c131 -2 241 -83 241 -226v-291h-52v291c-1 106 -90 174 -191 178c-57 1 -106 -18 -139 -58z" />
    <glyph glyph-name="o" unicode="o" horiz-adv-x="614" 
d="M107 253c0 -139 101 -220 199 -220c99 0 200 81 200 220s-101 217 -200 217c-98 0 -199 -78 -199 -217zM558 253c0 -142 -107 -265 -252 -265c-144 0 -251 123 -251 265s107 265 251 265c145 0 252 -123 252 -265z" />
    <glyph glyph-name="p" unicode="p" horiz-adv-x="583" 
d="M278 510c317 1 318 -511 8 -515c-44 -1 -103 10 -139 56v-247h-51v703h44l8 -48c39 38 88 51 130 51zM276 42c249 5 253 407 12 422c-57 2 -107 -18 -140 -58v-294c37 -50 78 -70 128 -70z" />
    <glyph glyph-name="q" unicode="q" horiz-adv-x="582" 
d="M305 510c42 0 91 -13 130 -51l8 48h44v-703h-52v247c-36 -46 -94 -57 -138 -56c-310 4 -309 516 8 515zM307 42c50 0 91 20 128 70v294c-33 40 -83 60 -140 58c-241 -15 -237 -417 12 -422z" />
    <glyph glyph-name="r" unicode="r" horiz-adv-x="408" 
d="M96 507h42l8 -66c60 96 180 77 238 52l-21 -43c-95 46 -219 -6 -216 -125v-325h-51v507z" />
    <glyph glyph-name="s" unicode="s" horiz-adv-x="443" 
d="M229 279c79 -16 157 -57 157 -142c0 -100 -97 -146 -171 -146c-60 0 -118 25 -155 73c10 10 23 23 31 32c61 -84 235 -81 244 42c-1 57 -70 86 -116 95c-77 13 -148 54 -149 137c0 149 203 186 299 96l-31 -34c-64 62 -218 42 -217 -62c1 -59 64 -82 108 -91z" />
    <glyph glyph-name="t" unicode="t" horiz-adv-x="317" 
d="M258 43v-47c-89 -4 -155 43 -155 142v326h-75v43h75v124l51 11v-135h103v-43h-103v-326c0 -60 39 -96 104 -95z" />
    <glyph glyph-name="u" unicode="u" horiz-adv-x="619" 
d="M471 108v399h52v-507h-45l-7 59c-31 -41 -92 -68 -142 -68c-131 2 -240 59 -240 221v295h52v-295c0 -138 90 -169 191 -173c57 -1 107 26 139 69z" />
    <glyph glyph-name="v" unicode="v" horiz-adv-x="488" 
d="M85 507l159 -469h4l157 469h55l-177 -511h-74l-178 511h54z" />
    <glyph glyph-name="w" unicode="w" horiz-adv-x="722" 
d="M325 504h70l107 -460h4l125 463h56l-148 -508h-73l-104 453h-3l-103 -453h-74l-145 508h54l125 -463h4z" />
    <glyph glyph-name="x" unicode="x" horiz-adv-x="518" 
d="M257 286l146 221h62l-174 -253c56 -78 123 -175 179 -254h-60l-153 224l-150 -224h-61l176 254c-56 80 -118 172 -174 253h63z" />
    <glyph glyph-name="y" unicode="y" horiz-adv-x="508" 
d="M104 -181v43c58 -2 81 18 97 59l29 77l-207 509h56l179 -455l171 455h56l-235 -603c-25 -68 -73 -85 -130 -85h-16z" />
    <glyph glyph-name="z" unicode="z" horiz-adv-x="464" 
d="M411 45v-45h-355v32l290 430h-280v45h338v-34l-289 -428h296z" />
    <glyph glyph-name="braceleft" unicode="{" horiz-adv-x="316" 
d="M266 771v-44c-4 0 3 0 -1 0c-46 1 -78 -2 -78 -63v-166c0 -47 -13 -113 -64 -149c51 -36 63 -102 63 -149v-164c0 -62 33 -68 79 -67c2 0 -2 0 1 0v-42h-34c-61 0 -95 43 -95 106v148c0 65 -17 129 -67 140v56c56 6 67 73 67 140v148c0 63 34 106 95 106h34z" />
    <glyph glyph-name="bar" unicode="|" horiz-adv-x="289" 
d="M118 -149v931h48v-931h-48z" />
    <glyph glyph-name="braceright" unicode="}" horiz-adv-x="316" 
d="M47 727v44h34c61 0 95 -43 95 -106v-148c0 -67 11 -134 67 -140v-56c-50 -11 -67 -75 -67 -140v-148c0 -63 -34 -106 -95 -106h-34v42c3 0 -1 0 1 0c46 -1 79 5 79 67v164c0 47 12 113 63 149c-51 36 -64 102 -64 149v166c0 61 -32 64 -78 63c-4 0 3 0 -1 0z" />
    <glyph glyph-name="asciitilde" unicode="~" horiz-adv-x="600" 
d="M484 367l34 -21c-30 -59 -77 -89 -126 -89c-30 0 -68 16 -101 37s-59 28 -83 28c-37 0 -65 -19 -97 -66c-15 12 -19 12 -32 23c37 64 81 94 130 94c31 0 73 -17 110 -41c27 -17 51 -26 72 -26c39 0 65 21 93 61z" />
    <glyph glyph-name="exclamdown" unicode="&#xa1;" horiz-adv-x="295" 
d="M120 343h52v-544h-53zM116 495h60v-78h-60v78z" />
    <glyph glyph-name="cent" unicode="&#xa2;" horiz-adv-x="561" 
d="M299 -1v88c-142 13 -225 143 -225 263c1 119 90 251 226 265v85h40v-85c56 -6 104 -26 141 -59l-28 -35c-133 112 -325 15 -327 -173c0 -98 64 -216 194 -216c50 0 99 22 137 53c12 -15 19 -21 30 -34c-37 -33 -86 -55 -147 -63v-89h-41z" />
    <glyph glyph-name="sterling" unicode="&#xa3;" horiz-adv-x="596" 
d="M530 544l-43 -7c-19 77 -94 122 -159 122c-72 0 -145 -41 -145 -151v-142h225v-43h-225v-276h354v-47h-461v47h57v276h-55v43h55v142c0 131 95 199 193 199c87 0 176 -56 204 -163z" />
    <glyph glyph-name="yen" unicode="&#xa5;" horiz-adv-x="617" 
d="M579 700l-175 -314h91v-38h-115l-42 -72v-25h157v-40h-157v-211h-49v211h-157v40h157v25l-44 72h-113v38h91l-176 314h55l212 -376l208 376h57z" />
    <glyph glyph-name="section" unicode="&#xa7;" horiz-adv-x="469" 
d="M234 273h1c19 -3 41 -8 66 -18c31 17 54 44 54 80c-1 84 -121 87 -176 104c-33 -17 -58 -44 -57 -80c0 -59 68 -77 112 -86zM142 458l-7 5c-27 20 -45 51 -45 96c0 92 81 143 165 143c46 0 96 -14 134 -50l-29 -34c-34 25 -68 36 -107 37c-58 1 -115 -37 -114 -96
c0 -58 67 -78 111 -87c78 -16 155 -54 155 -137c0 -42 -17 -80 -68 -102c37 -28 54 -53 54 -99c0 -100 -98 -143 -172 -143c-60 0 -119 25 -156 73l32 31c32 -33 75 -56 124 -56c54 -1 120 30 119 95c0 64 -70 84 -116 93c-77 13 -148 49 -148 132c0 40 27 83 68 99z" />
    <glyph glyph-name="dieresis" unicode="&#xa8;" horiz-adv-x="513" 
d="M202 792h-61v62h61v-62zM375 792h-61v62h61v-62z" />
    <glyph glyph-name="copyright" unicode="&#xa9;" horiz-adv-x="835" 
d="M74 350c0 197 152 355 342 355c192 0 345 -158 345 -355s-153 -355 -345 -355c-190 0 -342 158 -342 355zM425 208c34 0 68 11 93 32l28 -32c-34 -30 -76 -46 -121 -46c-64 0 -125 33 -158 90c-32 59 -32 137 0 195c33 61 91 92 158 92c49 0 87 -14 122 -47l-30 -31
c-25 20 -59 32 -92 32c-56 0 -94 -25 -116 -65c-25 -44 -27 -111 4 -162c24 -37 67 -58 112 -58zM123 350c0 -172 128 -305 293 -305c167 0 296 133 296 305s-129 305 -296 305c-165 0 -293 -133 -293 -305z" />
    <glyph glyph-name="ordfeminine" unicode="&#xaa;" horiz-adv-x="481" 
d="M358 341l-5 43c-31 -36 -82 -46 -108 -46c-9 0 -20 1 -30 3c-79 17 -141 84 -141 179c0 102 81 185 181 187c49 2 96 -5 142 -27v-339h-39zM399 272l-1 -45h-307v45h308zM352 430l1 228c-35 12 -69 13 -97 11c-78 -7 -138 -71 -138 -149c0 -64 45 -123 108 -138
c48 -10 96 6 126 48z" />
    <glyph glyph-name="guillemotleft" unicode="&#xab;" horiz-adv-x="541" 
d="M222 87l-156 195l156 196h56l-153 -196l154 -195h-57zM414 87l-156 195l156 196h56l-153 -196l154 -195h-57z" />
    <glyph glyph-name="logicalnot" unicode="&#xac;" horiz-adv-x="628" 
d="M80 362v46h451v-247h-43v201h-408z" />
    <glyph glyph-name="registered" unicode="&#xae;" horiz-adv-x="835" 
d="M443 319l121 -154h-51l-114 150h-49v-150h-43v377h117c73 0 127 -42 128 -115c0 -61 -44 -98 -109 -108zM75 348c0 197 152 355 342 355c192 0 345 -158 345 -355s-153 -355 -345 -355c-190 0 -342 158 -342 355zM122 348c0 -173 129 -307 295 -307
c168 0 298 134 298 307s-130 307 -298 307c-166 0 -295 -134 -295 -307zM350 503v-148h74c117 3 113 148 0 148h-74z" />
    <glyph glyph-name="macron" unicode="&#xaf;" horiz-adv-x="513" 
d="M132 767v41h247v-41h-247z" />
    <glyph glyph-name="degree" unicode="&#xb0;" horiz-adv-x="396" 
d="M193 457c-70 0 -126 57 -126 126s56 126 126 126s127 -57 127 -126s-57 -126 -127 -126zM193 501c48 0 85 36 85 82c0 45 -37 83 -85 83s-85 -38 -85 -83c0 -46 37 -82 85 -82z" />
    <glyph glyph-name="plusminus" unicode="&#xb1;" horiz-adv-x="695" 
d="M120 52h455v-46h-455v46zM113 355v49h206v209h47v-209h209v-49h-209v-211h-47v211h-206z" />
    <glyph glyph-name="twosuperior" unicode="&#xb2;" horiz-adv-x="409" 
d="M302 535l-184 -168h239v-42h-288l-17 36l219 206c30 26 51 63 30 103c-16 31 -60 43 -92 44h1c-45 2 -89 -14 -111 -52c-17 7 -24 12 -38 18c26 55 91 80 149 80c61 0 121 -31 139 -91c15 -50 -10 -99 -47 -134z" />
    <glyph glyph-name="threesuperior" unicode="&#xb3;" horiz-adv-x="426" 
d="M279 536l25 -7c41 -21 61 -56 61 -101c-1 -84 -77 -129 -153 -129c-56 0 -116 30 -147 80l31 24c29 -38 72 -59 118 -59c50 0 103 30 103 85c0 51 -45 87 -95 87h-32v39h32c43 0 82 19 82 67c0 50 -44 74 -90 74c-36 0 -74 -12 -95 -43l-37 16c26 46 78 70 129 70
c70 0 141 -42 141 -119c0 -32 -21 -66 -48 -78z" />
    <glyph glyph-name="acute" unicode="&#xb4;" horiz-adv-x="489" 
d="M316 866l-76 -104h-46l60 104h62z" />
    <glyph glyph-name="mu" unicode="&#xb5;" horiz-adv-x="577" 
d="M476 507v-508h-43l-6 92c-44 -58 -108 -79 -152 -79c-36 0 -86 10 -119 60v-257h-49v692h50v-310c0 -67 32 -135 117 -135c77 0 152 57 152 172v273h50z" />
    <glyph glyph-name="mu" unicode="&#x3bc;" horiz-adv-x="577" 
d="M476 507v-508h-43l-6 92c-44 -58 -108 -79 -152 -79c-36 0 -86 10 -119 60v-257h-49v692h50v-310c0 -67 32 -135 117 -135c77 0 152 57 152 172v273h50z" />
    <glyph glyph-name="paragraph" unicode="&#xb6;" horiz-adv-x="604" 
d="M270 -95v387c-138 6 -208 105 -208 202c0 104 74 207 222 207h207v-796h-48v747h-124v-747h-49z" />
    <glyph glyph-name="periodcentered" unicode="&#xb7;" horiz-adv-x="274" 
d="M108 260v72h65v-72h-65z" />
    <glyph glyph-name="cedilla" unicode="&#xb8;" horiz-adv-x="513" 
d="M286 5l-31 -57c127 -6 103 -144 -9 -144c-20 0 -46 6 -70 17l7 34c35 -22 113 -22 113 23c0 22 -20 33 -58 34c-8 0 -16 0 -25 -3l-10 9c15 26 32 62 46 87h37z" />
    <glyph glyph-name="onesuperior" unicode="&#xb9;" horiz-adv-x="308" 
d="M133 269v388h-64v43h110v-431h-46z" />
    <glyph glyph-name="ordmasculine" unicode="&#xba;" horiz-adv-x="481" 
d="M240 409c-84 0 -150 62 -150 150c0 84 66 147 149 147c84 0 151 -63 151 -147c0 -88 -67 -150 -150 -150zM240 451c58 0 105 44 105 108c0 62 -47 105 -105 105c-59 0 -106 -43 -106 -105c0 -64 47 -108 106 -108zM98 274v47h286v-47h-286z" />
    <glyph glyph-name="guillemotright" unicode="&#xbb;" horiz-adv-x="562" 
d="M487 282l-156 -195h-57l154 195l-153 196h56zM295 282l-156 -195h-57l154 195l-153 196h56z" />
    <glyph glyph-name="onequarter" unicode="&#xbc;" horiz-adv-x="927" 
d="M283 -22h-47l366 766h47zM815 433v-300h39v-40h-39v-93h-43v93h-199l-31 43c78 102 144 195 221 297h52zM591 133h181v245zM169 301v356h-64v43h110v-399h-46z" />
    <glyph glyph-name="onehalf" unicode="&#xbd;" horiz-adv-x="948" 
d="M241 -20h-48l367 760h47zM157 301v356h-64v43h110v-399h-46zM811 209l-184 -168h239v-42h-288l-17 36l219 206c30 26 51 63 30 103c-16 31 -60 43 -92 44h1c-45 2 -89 -14 -111 -52c-17 7 -24 12 -38 18c26 55 91 80 149 80c61 0 121 -31 139 -91
c15 -50 -10 -99 -47 -134z" />
    <glyph glyph-name="threequarters" unicode="&#xbe;" horiz-adv-x="993" 
d="M345 -26h-47l371 766h47zM850 433v-300h39v-40h-39v-93h-43v93h-199l-31 43c78 102 144 195 221 297h52zM626 133h181v245zM285 516l19 -7c41 -21 61 -56 61 -101c-1 -84 -77 -129 -153 -129c-56 0 -116 30 -147 80l31 24c29 -38 72 -59 118 -59c50 0 104 30 104 85
c0 51 -46 87 -96 87h-32v39h32c43 0 84 19 84 67c0 50 -46 74 -92 74c-36 0 -74 -12 -95 -43l-37 16c26 46 78 70 129 70c70 0 141 -42 141 -119c0 -32 -21 -66 -48 -78z" />
    <glyph glyph-name="questiondown" unicode="&#xbf;" horiz-adv-x="498" 
d="M457 -98l-3 -4c-43 -55 -114 -83 -184 -83c-108 0 -215 70 -214 199c1 116 83 190 200 211l6 143h41l6 -181c-103 -7 -204 -65 -202 -174c2 -102 85 -149 165 -149c54 0 112 26 148 64c16 -13 22 -15 37 -26zM251 522h57v-73h-57v73z" />
    <glyph glyph-name="AE" unicode="&#xc6;" horiz-adv-x="869" 
d="M26 0l373 700h405v-48h-300v-275h297v-49h-297v-278h300v-50h-352v247h-235l-131 -247h-60zM452 294v362h-24l-187 -362h211z" />
    <glyph glyph-name="multiply" unicode="&#xd7;" horiz-adv-x="523" 
d="M84 442l32 32l152 -151l146 145l32 -33l-147 -145l152 -150l-33 -31l-150 149l-154 -154l-32 34l154 153z" />
    <glyph glyph-name="Thorn" unicode="&#xde;" horiz-adv-x="584" 
d="M165 153v-154h-52v701h52v-124h144c148 0 223 -108 223 -214c0 -108 -75 -209 -222 -209h-145zM165 202h144c113 0 171 85 171 160c0 76 -59 165 -171 165h-144v-325z" />
    <glyph glyph-name="germandbls" unicode="&#xdf;" horiz-adv-x="585" 
d="M145 533v-534h-51v534c-2 233 378 239 378 4c0 -52 -27 -124 -102 -156c89 -32 147 -100 146 -185c3 -134 -101 -207 -210 -207c-29 0 -60 5 -88 13v44c24 -8 44 -10 73 -10c124 0 173 82 173 160c0 74 -61 156 -173 156h-46v49h46c86 0 134 78 130 139
c1 171 -276 162 -276 -7z" />
    <glyph glyph-name="ae" unicode="&#xe6;" horiz-adv-x="979" 
d="M680 42c57 0 117 21 153 66l39 -27c-48 -59 -116 -88 -192 -88c-84 0 -147 38 -188 91c-79 -84 -155 -95 -213 -95c-289 -2 -291 341 9 344c42 0 101 -13 150 -42v21c0 109 -82 154 -165 154c-54 0 -101 -18 -146 -46l-26 36c50 38 115 57 175 57c82 0 168 -36 192 -128
c36 83 115 128 211 129c138 1 235 -107 235 -243c0 -12 -1 -20 -2 -33h-429c7 -100 77 -196 197 -196zM289 283c-233 0 -231 -247 -10 -247c48 0 145 30 189 86c-22 43 -28 74 -30 120v1c-44 28 -104 40 -149 40zM483 282h385c-6 109 -84 182 -189 184
c-118 -1 -187 -78 -196 -184z" />
    <glyph glyph-name="eth" unicode="&#xf0;" horiz-adv-x="617" 
d="M221 506l-21 30l114 71c-53 29 -106 38 -163 37l5 46c83 -2 142 -14 208 -55l96 60l21 -31l-87 -52c120 -86 156 -208 151 -380c-1 -121 -78 -241 -242 -241c-163 0 -244 124 -241 239c3 111 84 228 241 227c68 -1 135 -25 183 -85l7 1c-19 102 -60 159 -141 211z
M303 409c-126 0 -187 -94 -189 -180c-2 -88 59 -190 189 -190c131 0 195 103 193 191c-2 86 -66 179 -193 179z" />
    <glyph glyph-name="divide" unicode="&#xf7;" horiz-adv-x="619" 
d="M270 492v62h64v-62h-64zM85 305v49h446v-49h-446zM270 109v64h65v-64h-65z" />
    <glyph glyph-name="thorn" unicode="&#xfe;" horiz-adv-x="575" 
d="M96 -196v896h51v-235l1 -6c39 38 88 51 130 51c317 1 318 -511 8 -515c-44 -1 -103 10 -139 56v-247h-51zM276 42c249 5 253 407 12 422c-57 2 -107 -18 -140 -58v-297c37 -50 78 -67 128 -67z" />
    <glyph glyph-name="Aogonek" unicode="&#x104;" horiz-adv-x="636" 
d="M28 0l248 707h81c83 -231 169 -476 252 -707c-23 -19 -76 -67 -76 -97c0 -32 32 -51 72 -53l-17 -31s-97 -1 -107 66v1c-6 41 34 88 71 114l-84 234h-301l-81 -234h-58zM186 284h265l-134 388z" />
    <glyph glyph-name="aogonek" unicode="&#x105;" horiz-adv-x="563" 
d="M438 0l-10 54c-47 -45 -106 -64 -154 -65c-289 -2 -291 341 9 344c42 0 95 -13 144 -42v24c0 109 -76 152 -159 152c-54 0 -101 -16 -146 -44l-26 36c50 38 115 57 175 57c105 0 207 -65 207 -201v-315c-61 -37 -108 -129 -1 -139c-7 -12 -11 -23 -16 -32
c0 0 -84 -2 -94 65v1c-8 53 43 90 71 105zM427 105v138c-44 28 -98 40 -143 40c-233 0 -231 -247 -10 -247c52 0 116 25 153 69z" />
    <glyph glyph-name="Cacute" unicode="&#x106;" horiz-adv-x="732" 
d="M507 866l-74 -105h-44c20 37 35 69 55 105h63zM650 615l-36 -36c-53 50 -127 84 -202 82c-189 -3 -290 -164 -290 -313c0 -148 104 -309 290 -309c80 0 166 40 221 97l38 -31c-64 -70 -158 -118 -259 -118c-225 0 -345 184 -345 361s120 364 345 364
c93 0 176 -37 238 -97z" />
    <glyph glyph-name="cacute" unicode="&#x107;" horiz-adv-x="530" 
d="M388 700l-69 -103h-46c20 37 34 67 54 103h61zM467 454l-28 -34c-37 31 -85 45 -134 45c-100 1 -195 -81 -196 -215c0 -98 67 -208 197 -208c50 0 98 19 136 50c12 -15 20 -23 31 -36c-44 -40 -104 -64 -167 -64c-163 0 -249 132 -249 259c0 128 89 262 249 263
c65 0 115 -16 161 -60z" />
    <glyph glyph-name="Ccircumflex" unicode="&#x108;" horiz-adv-x="732" 
d="M291 755l80 97h76l79 -97h-50l-67 73l-70 -73h-48zM650 615l-36 -36c-53 50 -127 84 -202 82c-189 -3 -290 -164 -290 -313c0 -148 104 -309 290 -309c80 0 166 40 221 97l38 -31c-64 -70 -158 -118 -259 -118c-225 0 -345 184 -345 361s120 364 345 364
c93 0 176 -37 238 -97z" />
    <glyph glyph-name="ccircumflex" unicode="&#x109;" horiz-adv-x="529" 
d="M467 454l-28 -34c-37 31 -85 45 -134 45c-100 1 -195 -81 -196 -215c0 -98 67 -208 197 -208c50 0 98 19 136 50c12 -15 20 -23 31 -36c-44 -40 -104 -64 -167 -64c-163 0 -249 132 -249 259c0 128 89 262 249 263c65 0 115 -16 161 -60zM184 589l80 97h76l79 -97h-50
l-67 73l-70 -73h-48z" />
    <glyph glyph-name="Cdotaccent" unicode="&#x10a;" horiz-adv-x="730" 
d="M380 785v65h61v-65h-61zM650 615l-36 -36c-53 50 -127 84 -202 82c-189 -3 -290 -164 -290 -313c0 -148 104 -309 290 -309c80 0 166 40 221 97l38 -31c-64 -70 -158 -118 -259 -118c-225 0 -345 184 -345 361s120 364 345 364c93 0 176 -37 238 -97z" />
    <glyph glyph-name="cdotaccent" unicode="&#x10b;" horiz-adv-x="529" 
d="M269 622v69h61v-69h-61zM467 454l-28 -34c-37 31 -85 45 -134 45c-100 1 -195 -81 -196 -215c0 -98 67 -208 197 -208c50 0 98 19 136 50c12 -15 20 -23 31 -36c-44 -40 -104 -64 -167 -64c-163 0 -249 132 -249 259c0 128 89 262 249 263c65 0 115 -16 161 -60z" />
    <glyph glyph-name="Ccaron" unicode="&#x10c;" horiz-adv-x="732" 
d="M650 615l-36 -36c-53 50 -127 84 -202 82c-189 -3 -290 -164 -290 -313c0 -148 104 -309 290 -309c80 0 166 40 221 97l38 -31c-64 -70 -158 -118 -259 -118c-225 0 -345 184 -345 361s120 364 345 364c93 0 176 -37 238 -97zM532 852l-80 -97h-76l-79 97h50l67 -73
l70 73h48z" />
    <glyph glyph-name="ccaron" unicode="&#x10d;" horiz-adv-x="529" 
d="M467 454l-28 -34c-37 31 -85 45 -134 45c-100 1 -195 -81 -196 -215c0 -98 67 -208 197 -208c50 0 98 19 136 50c12 -15 20 -23 31 -36c-44 -40 -104 -64 -167 -64c-163 0 -249 132 -249 259c0 128 89 262 249 263c65 0 115 -16 161 -60zM424 680l-82 -97h-73l-80 97h50
l67 -72l70 72h48z" />
    <glyph glyph-name="Dcaron" unicode="&#x10e;" horiz-adv-x="730" 
d="M116 700h203c220 2 336 -171 339 -341c4 -174 -111 -359 -338 -359h-204v700zM171 51h148c193 -3 288 160 284 307c-3 142 -98 292 -282 292h-150v-599zM449 852l-80 -97h-76l-79 97h50l67 -73l70 73h48z" />
    <glyph glyph-name="dcaron" unicode="&#x10f;" horiz-adv-x="616" 
d="M622 700h-46c14 -46 9 -81 -7 -129h29c27 40 39 84 24 129zM303 509c42 0 90 -12 129 -50v242h53v-701h-43l-8 54c-36 -48 -94 -60 -139 -59c-310 4 -309 515 8 514zM305 42c50 0 91 20 128 70v294c-33 40 -83 59 -140 57c-241 -15 -237 -416 12 -421z" />
    <glyph glyph-name="Dcroat" unicode="&#x110;" horiz-adv-x="734" 
d="M62 330v44h54v326h203c220 2 336 -171 339 -341c4 -174 -111 -359 -338 -359h-204v330h-54zM171 51h148c193 -3 288 160 284 307c-3 142 -98 292 -282 292h-150v-276h138v-44h-138v-279z" />
    <glyph glyph-name="dcroat" unicode="&#x111;" horiz-adv-x="587" 
d="M324 589v39h108v73h53v-73h80v-39h-80v-589h-43l-8 54c-36 -48 -94 -60 -139 -59c-310 4 -309 515 8 514c42 0 90 -12 129 -50v130h-108zM305 42c50 0 91 20 128 70v294c-33 40 -83 59 -140 57c-241 -15 -237 -416 12 -421z" />
    <glyph glyph-name="Emacron" unicode="&#x112;" horiz-adv-x="534" 
d="M189 773v44h217v-44h-217zM464 700v-52h-297v-271h293v-51h-294v-274h298v-52h-352v700h352z" />
    <glyph glyph-name="emacron" unicode="&#x113;" horiz-adv-x="604" 
d="M190 622v43h226v-43h-226zM306 42c57 0 117 21 153 66l39 -27c-48 -59 -116 -88 -192 -88c-163 0 -246 139 -245 265c0 127 85 255 244 256c138 1 235 -107 235 -243c0 -12 -1 -20 -2 -33h-429c7 -100 77 -196 197 -196zM109 282h385c-6 109 -84 182 -189 184
c-118 -1 -182 -82 -196 -184z" />
    <glyph glyph-name="Ebreve" unicode="&#x114;" horiz-adv-x="534" 
d="M298 755c-62 0 -110 42 -119 101h43c9 -78 145 -83 154 0h40c-3 -67 -59 -101 -118 -101zM464 700v-52h-297v-272h293v-51h-294v-273h298v-52h-352v700h352z" />
    <glyph glyph-name="ebreve" unicode="&#x115;" horiz-adv-x="604" 
d="M304 585c-66 0 -110 41 -119 100h38c15 -79 146 -81 161 0h38c-3 -67 -62 -100 -118 -100zM306 42c57 0 117 21 153 66l39 -27c-48 -59 -116 -88 -192 -88c-163 0 -246 139 -245 265c0 127 85 255 244 256c138 1 235 -107 235 -243c0 -12 -1 -20 -2 -33h-429
c7 -100 77 -196 197 -196zM109 282h385c-6 109 -84 182 -189 184c-118 -1 -182 -82 -196 -184z" />
    <glyph glyph-name="Edotaccent" unicode="&#x116;" horiz-adv-x="532" 
d="M271 762v70h61v-70h-61zM464 700v-52h-299v-272h295v-51h-296v-273h300v-52h-352v700h352z" />
    <glyph glyph-name="edotaccent" unicode="&#x117;" horiz-adv-x="604" 
d="M274 613v61h61v-61h-61zM306 42c57 0 117 21 153 66l39 -27c-48 -59 -116 -88 -192 -88c-163 0 -246 139 -245 265c0 127 85 255 244 256c138 1 235 -107 235 -243c0 -12 -1 -20 -2 -33h-429c7 -100 77 -196 197 -196zM109 282h385c-6 109 -84 182 -189 184
c-118 -1 -182 -82 -196 -184z" />
    <glyph glyph-name="Eogonek" unicode="&#x118;" horiz-adv-x="534" 
d="M464 700v-52h-297v-272h293v-51h-294v-273h298v-56c-69 -28 -111 -134 -6 -147l-14 -31c-20 -3 -88 -5 -100 61c-7 48 33 99 76 121h-308v700h352z" />
    <glyph glyph-name="eogonek" unicode="&#x119;" horiz-adv-x="604" 
d="M306 42c57 0 117 21 153 66l39 -27c-32 -56 -130 -65 -130 -139c0 -30 44 -49 65 -55c-7 -12 -9 -18 -14 -27c0 0 -90 2 -101 63c-5 21 11 49 33 74c-15 -3 -30 -4 -45 -4c-163 0 -246 139 -245 265c0 127 85 255 244 256c138 1 235 -107 235 -243c0 -12 -1 -20 -2 -33
h-429c7 -100 77 -196 197 -196zM109 282h385c-6 109 -84 182 -189 184c-118 -1 -182 -82 -196 -184z" />
    <glyph glyph-name="Ecaron" unicode="&#x11a;" horiz-adv-x="534" 
d="M464 700v-52h-297v-272h293v-51h-294v-273h298v-52h-352v700h352zM409 852l-80 -97h-76l-79 97h50l67 -73l70 73h48z" />
    <glyph glyph-name="ecaron" unicode="&#x11b;" horiz-adv-x="604" 
d="M306 42c57 0 117 21 153 66l39 -27c-48 -59 -116 -88 -192 -88c-163 0 -246 139 -245 265c0 127 85 255 244 256c138 1 235 -107 235 -243c0 -12 -1 -20 -2 -33h-429c7 -100 77 -196 197 -196zM109 282h385c-6 109 -84 182 -189 184c-118 -1 -182 -82 -196 -184zM425 687
l-80 -97h-76l-79 97h50l67 -73l70 73h48z" />
    <glyph glyph-name="Gcircumflex" unicode="&#x11c;" horiz-adv-x="826" 
d="M413 713c102 0 195 -44 258 -115l-40 -33c-54 60 -135 96 -218 96c-186 0 -291 -167 -291 -312c0 -146 105 -306 291 -306c127 0 263 103 277 245h-314v52h377c-4 -193 -138 -349 -340 -349c-224 0 -344 181 -345 358c0 176 120 364 345 364zM295 758l80 97h76l79 -97
h-50l-67 73l-70 -73h-48z" />
    <glyph glyph-name="gcircumflex" unicode="&#x11d;" horiz-adv-x="585" 
d="M201 592l80 97h76l79 -97h-50l-67 73l-70 -73h-48zM306 511c42 0 91 -14 130 -52l9 48h43v-502c0 -236 -282 -252 -400 -120l30 34c93 -100 319 -102 319 86v49c-36 -48 -94 -60 -139 -59c-313 4 -312 517 8 516zM308 42c50 0 91 20 128 70v294c-33 40 -83 61 -140 59
c-244 -15 -243 -418 12 -423z" />
    <glyph glyph-name="Gbreve" unicode="&#x11e;" horiz-adv-x="826" 
d="M413 713c102 0 195 -44 258 -115l-40 -33c-54 60 -135 96 -218 96c-186 0 -291 -167 -291 -312c0 -146 105 -306 291 -306c127 0 263 103 277 245h-314v52h377c-4 -193 -138 -349 -340 -349c-224 0 -344 181 -345 358c0 176 120 364 345 364zM415 758
c-62 0 -110 42 -119 101h43c9 -78 145 -83 154 0h40c-3 -67 -59 -101 -118 -101z" />
    <glyph glyph-name="gbreve" unicode="&#x11f;" horiz-adv-x="585" 
d="M316 589c-62 0 -110 42 -119 101h43c9 -78 145 -83 154 0h40c-3 -67 -59 -101 -118 -101zM306 511c42 0 91 -14 130 -52l9 48h43v-502c0 -236 -282 -252 -400 -120l30 34c93 -100 319 -102 319 86v49c-36 -48 -94 -60 -139 -59c-313 4 -312 517 8 516zM308 42
c50 0 91 20 128 70v294c-33 40 -83 61 -140 59c-244 -15 -243 -418 12 -423z" />
    <glyph glyph-name="Gdotaccent" unicode="&#x120;" horiz-adv-x="826" 
d="M375 787v75h61v-75h-61zM413 713c102 0 195 -44 258 -115l-40 -33c-54 60 -135 96 -218 96c-186 0 -291 -167 -291 -312c0 -146 105 -306 291 -306c127 0 263 103 277 245h-314v52h377c-4 -193 -138 -349 -340 -349c-224 0 -344 181 -345 358c0 176 120 364 345 364z" />
    <glyph glyph-name="gdotaccent" unicode="&#x121;" horiz-adv-x="585" 
d="M280 614v77h61v-77h-61zM306 511c42 0 91 -14 130 -52l9 48h43v-502c0 -236 -282 -252 -400 -120l30 34c93 -100 319 -102 319 86v49c-36 -48 -94 -60 -139 -59c-313 4 -312 517 8 516zM308 42c50 0 91 20 128 70v294c-33 40 -83 61 -140 59c-244 -15 -243 -418 12 -423z
" />
    <glyph glyph-name="Gcommaaccent" unicode="&#x122;" horiz-adv-x="826" 
d="M375 -60h57c12 -44 7 -98 -21 -135c-14 0 -31 1 -43 1c16 48 21 88 7 134zM413 713c102 0 195 -44 258 -115l-40 -33c-54 60 -135 96 -218 96c-186 0 -291 -167 -291 -312c0 -146 105 -306 291 -306c127 0 263 103 277 245h-314v52h377c-4 -193 -138 -349 -340 -349
c-224 0 -344 181 -345 358c0 176 120 364 345 364z" />
    <glyph glyph-name="gcommaaccent" unicode="&#x123;" horiz-adv-x="585" 
d="M336 575h-52c-11 45 -4 79 16 125h43c-15 -40 -21 -78 -7 -125zM306 511c42 0 91 -14 130 -52l9 48h43v-502c0 -236 -282 -252 -400 -120l30 34c93 -100 319 -102 319 86v49c-36 -48 -94 -60 -139 -59c-313 4 -312 517 8 516zM308 42c50 0 91 20 128 70v294
c-33 40 -83 61 -140 59c-244 -15 -243 -418 12 -423z" />
    <glyph glyph-name="Hcircumflex" unicode="&#x124;" horiz-adv-x="692" 
d="M522 0v323h-354v-323h-54v700h54v-326h354v326h53v-700h-53zM228 755l80 97h76l79 -97h-50l-67 73l-70 -73h-48z" />
    <glyph glyph-name="hcircumflex" unicode="&#x125;" horiz-adv-x="611" 
d="M8 753l80 97h76l79 -97h-50l-67 73l-70 -73h-48zM148 409v-409h-52v700h52v-239c36 35 91 53 141 53c131 -2 232 -83 232 -226v-288h-52v288c-1 106 -81 174 -182 178c-57 1 -106 -17 -139 -57z" />
    <glyph glyph-name="Hbar" unicode="&#x126;" horiz-adv-x="692" 
d="M61 530v42h53v128h54v-128h354v128h53v-128h55v-42h-55v-530h-53v323h-354v-323h-54v530h-53zM168 374h354v156h-354v-156z" />
    <glyph glyph-name="hbar" unicode="&#x127;" horiz-adv-x="617" 
d="M148 409v-409h-52v584h-64v38h64v78h52v-78h121v-38h-121v-123c36 35 91 53 141 53c131 -2 232 -83 232 -226v-288h-52v288c-1 106 -81 174 -182 178c-57 1 -106 -17 -139 -57z" />
    <glyph glyph-name="Itilde" unicode="&#x128;" horiz-adv-x="287" 
d="M249 835l23 -18c-29 -54 -80 -70 -128 -38c-40 26 -70 25 -103 -11c-10 6 -16 11 -23 16c37 60 83 70 138 33c35 -23 68 -17 93 18zM116 0v700h54v-700h-54z" />
    <glyph glyph-name="itilde" unicode="&#x129;" horiz-adv-x="244" 
d="M226 679l21 -18c-29 -53 -76 -69 -123 -37c-40 26 -67 25 -100 -12c-10 6 -16 11 -23 16c37 60 80 70 135 33c35 -23 65 -17 90 18zM147 0h-51v507h51v-507z" />
    <glyph glyph-name="Imacron" unicode="&#x12a;" horiz-adv-x="287" 
d="M35 787v43h224v-43h-224zM116 0v700h54v-700h-54z" />
    <glyph glyph-name="imacron" unicode="&#x12b;" horiz-adv-x="244" 
d="M19 627v41h222v-41h-222zM147 0h-51v507h51v-507z" />
    <glyph glyph-name="Ibreve" unicode="&#x12c;" horiz-adv-x="287" 
d="M143 761c-76 -1 -110 37 -117 97h38c10 -79 144 -81 159 0h40c-3 -67 -61 -97 -120 -97zM116 0v700h54v-700h-54z" />
    <glyph glyph-name="ibreve" unicode="&#x12d;" horiz-adv-x="244" 
d="M123 584c-72 0 -114 36 -116 98h37c15 -80 144 -82 159 0h38c-3 -67 -59 -98 -118 -98zM147 0h-51v507h51v-507z" />
    <glyph glyph-name="Iogonek" unicode="&#x12e;" horiz-adv-x="289" 
d="M116 -8v708h54v-700c-27 -23 -65 -60 -65 -91s39 -47 63 -54c-7 -12 -9 -20 -14 -29c-2 0 -86 -7 -99 67c-5 41 32 77 61 99z" />
    <glyph glyph-name="iogonek" unicode="&#x12f;" horiz-adv-x="244" 
d="M95 617v79h60v-79h-60zM100 0h-4v507h51v-5h1l-1 -502v0c-23 -23 -49 -61 -49 -87c0 -35 32 -49 50 -55l-15 -25s-74 1 -83 62c-6 39 20 78 50 105z" />
    <glyph glyph-name="Idotaccent" unicode="&#x130;" horiz-adv-x="287" 
d="M116 781v68h55v-68h-55zM116 0v700h54v-700h-54z" />
    <glyph glyph-name="dotlessi" unicode="&#x131;" horiz-adv-x="244" 
d="M147 0h-51v507h51v-507z" />
    <glyph glyph-name="IJ" unicode="&#x132;" horiz-adv-x="607" 
d="M115 0v700h54v-700h-54zM279 -7v49c81 -11 165 45 165 150v458h-135v50h189v-508c0 -143 -111 -210 -219 -199z" />
    <glyph glyph-name="ij" unicode="&#x133;" horiz-adv-x="513" 
d="M153 0h-53v507h53v-507zM154 699v-75h-55v75h55zM245 -189v45c69 0 103 39 103 97v554h53v-554c0 -98 -66 -146 -156 -142zM400 700v-75h-55v75h55z" />
    <glyph glyph-name="Jcircumflex" unicode="&#x134;" horiz-adv-x="549" 
d="M51 154l49 13c21 -75 90 -123 153 -123c71 0 141 53 141 148v458h-135v50h189v-508c0 -132 -96 -200 -194 -200c-87 0 -175 55 -203 162zM199 756l80 97h76l79 -97h-50l-67 73l-70 -73h-48z" />
    <glyph glyph-name="jcircumflex" unicode="&#x135;" horiz-adv-x="244" 
d="M-7 -189v45c69 0 103 39 103 97v555h53v-555c0 -98 -66 -146 -156 -142zM1 586l80 97h76l79 -97h-50l-67 73l-70 -73h-48z" />
    <glyph glyph-name="Kcommaaccent" unicode="&#x136;" horiz-adv-x="638" 
d="M315 -38h52c10 -47 4 -94 -26 -132h-39c17 50 26 83 13 132zM116 700h53v-375l347 375h61l-275 -310l292 -390h-64l-267 353l-94 -92v-261h-53v700z" />
    <glyph glyph-name="kcommaaccent" unicode="&#x137;" horiz-adv-x="521" 
d="M255 -43h52c10 -48 10 -87 -21 -131h-38c17 48 20 82 7 131zM96 700h49v-460l264 267h62l-217 -220c72 -89 157 -197 230 -287h-57l-206 252l-76 -69v-183h-49v700z" />
    <glyph glyph-name="kgreenlandic" unicode="&#x138;" horiz-adv-x="521" 
d="M96 507h49v-267l264 267h62l-217 -220c72 -89 157 -197 230 -287h-57l-206 252l-76 -69v-183h-49v507z" />
    <glyph glyph-name="Lacute" unicode="&#x139;" horiz-adv-x="483" 
d="M245 860l-74 -102h-48l59 102h63zM443 52v-52h-327v700h54v-648h273z" />
    <glyph glyph-name="lacute" unicode="&#x13a;" horiz-adv-x="271" 
d="M215 859l-75 -104h-47c20 37 40 68 60 104h62zM224 45v-46c-86 -4 -134 44 -134 142v559h53v-559c0 -60 17 -97 81 -96z" />
    <glyph glyph-name="Lcommaaccent" unicode="&#x13b;" horiz-adv-x="483" 
d="M265 -58h57c9 -49 1 -84 -21 -131h-45c17 48 22 82 9 131zM443 52v-52h-327v700h54v-648h273z" />
    <glyph glyph-name="lcommaaccent" unicode="&#x13c;" horiz-adv-x="271" 
d="M140 -71h53c10 -42 6 -84 -15 -122h-44c16 43 19 78 6 122zM224 45v-46c-86 -4 -134 44 -134 142v559h53v-559c0 -60 17 -97 81 -96z" />
    <glyph glyph-name="Lcaron" unicode="&#x13d;" horiz-adv-x="483" 
d="M304 701h52c12 -46 3 -87 -20 -130h-39c16 48 20 81 7 130zM443 52v-52h-327v700h54v-648h273z" />
    <glyph glyph-name="lcaron" unicode="&#x13e;" horiz-adv-x="302" 
d="M252 700h47c10 -45 4 -80 -19 -125h-35c15 45 19 80 7 125zM224 45v-46c-86 -4 -134 44 -134 142v559h53v-559c0 -60 17 -97 81 -96z" />
    <glyph glyph-name="Ldot" unicode="&#x13f;" horiz-adv-x="483" 
d="M296 340v75h64v-75h-64zM443 52v-52h-327v700h54v-648h273z" />
    <glyph glyph-name="ldot" unicode="&#x140;" horiz-adv-x="308" 
d="M225 349v72h61v-72h-61zM224 45v-46c-86 -4 -134 44 -134 142v559h53v-559c0 -60 17 -97 81 -96z" />
    <glyph glyph-name="Lslash" unicode="&#x141;" horiz-adv-x="483" 
d="M443 52v-52h-327v321l-66 -37v49l66 38v329h54v-297l121 70v-52l-121 -69v-300h273z" />
    <glyph glyph-name="lslash" unicode="&#x142;" horiz-adv-x="271" 
d="M224 45v-46c-86 -4 -134 44 -134 142v168l-41 -23v46l41 23v345h53v-314l84 49v-49l-84 -47v-198c0 -60 17 -97 81 -96z" />
    <glyph glyph-name="Nacute" unicode="&#x143;" horiz-adv-x="736" 
d="M472 855l-76 -102h-48c20 37 41 66 61 102h63zM116 700h67l384 -648v648h54v-700h-84l-367 620v-620h-54v700z" />
    <glyph glyph-name="nacute" unicode="&#x144;" horiz-adv-x="620" 
d="M396 687l-71 -101h-48c20 37 36 65 56 101h63zM148 411v-411h-52v507h45l7 -43c36 35 91 53 141 53c131 -2 241 -83 241 -226v-291h-52v291c-1 106 -90 174 -191 178c-57 1 -106 -18 -139 -58z" />
    <glyph glyph-name="Ncommaaccent" unicode="&#x145;" horiz-adv-x="736" 
d="M347 -39h58c9 -49 6 -83 -16 -131h-49c17 50 20 82 7 131zM116 700h67l384 -648v648h54v-700h-84l-367 620v-620h-54v700z" />
    <glyph glyph-name="ncommaaccent" unicode="&#x146;" horiz-adv-x="620" 
d="M291 -28h51c3 -15 5 -29 5 -41c0 -28 -9 -53 -23 -84h-40c10 29 15 52 15 76c0 15 -2 31 -8 49zM148 411v-411h-52v507h45l7 -43c36 35 91 53 141 53c131 -2 241 -83 241 -226v-291h-52v291c-1 106 -90 174 -191 178c-57 1 -106 -18 -139 -58z" />
    <glyph glyph-name="Ncaron" unicode="&#x147;" horiz-adv-x="736" 
d="M116 700h67l384 -648v648h54v-700h-84l-367 620v-620h-54v700zM491 853l-80 -97h-76l-79 97h50l67 -73l70 73h48z" />
    <glyph glyph-name="ncaron" unicode="&#x148;" horiz-adv-x="620" 
d="M415 686l-80 -97h-76l-79 97h50l67 -73l70 73h48zM148 411v-411h-52v507h45l7 -43c36 35 91 53 141 53c131 -2 241 -83 241 -226v-291h-52v291c-1 106 -90 174 -191 178c-57 1 -106 -18 -139 -58z" />
    <glyph glyph-name="napostrophe" unicode="&#x149;" horiz-adv-x="613" 
d="M30 696h53c12 -46 2 -81 -20 -125h-40c14 40 21 87 7 125zM148 411v-411h-52v507h45l7 -43c36 35 91 53 141 53c131 -2 241 -83 241 -226v-291h-52v291c-1 106 -90 174 -191 178c-57 1 -106 -18 -139 -58z" />
    <glyph glyph-name="Eng" unicode="&#x14a;" horiz-adv-x="736" 
d="M116 700h67l384 -626v626h53v-749c0 -98 -65 -146 -155 -142v50c64 0 88 32 88 92v49l-383 620v-620h-54v700z" />
    <glyph glyph-name="eng" unicode="&#x14b;" horiz-adv-x="617" 
d="M148 411v-411h-52v507h45l7 -43c36 35 91 53 141 53c131 -2 241 -83 241 -226v-340c0 -98 -60 -146 -149 -142v46c64 0 97 36 97 96v340c-1 106 -90 174 -191 178c-57 1 -106 -18 -139 -58z" />
    <glyph glyph-name="Omacron" unicode="&#x14c;" horiz-adv-x="824" 
d="M298 794v43h229v-43h-229zM412 711c204 0 346 -170 346 -362c0 -478 -692 -478 -692 0c0 192 137 362 346 362zM120 349c0 -410 584 -411 584 0c0 415 -584 412 -584 0z" />
    <glyph glyph-name="omacron" unicode="&#x14d;" horiz-adv-x="609" 
d="M187 620v43h229v-43h-229zM107 253c0 -139 101 -220 199 -220c99 0 200 81 200 220s-101 217 -200 217c-98 0 -199 -78 -199 -217zM558 253c0 -142 -107 -265 -252 -265c-144 0 -251 123 -251 265s107 265 251 265c145 0 252 -123 252 -265z" />
    <glyph glyph-name="Obreve" unicode="&#x14e;" horiz-adv-x="824" 
d="M412 711c204 0 346 -170 346 -362c0 -478 -692 -478 -692 0c0 192 137 362 346 362zM120 349c0 -410 584 -411 584 0c0 415 -584 412 -584 0zM413 761c-76 -1 -110 37 -117 97h38c10 -79 144 -81 159 0h40c-3 -67 -61 -97 -120 -97z" />
    <glyph glyph-name="obreve" unicode="&#x14f;" horiz-adv-x="609" 
d="M304 584c-75 0 -110 38 -119 97h41c5 -43 43 -59 78 -59c33 0 73 16 78 59h40c-3 -67 -59 -97 -118 -97zM106 253c0 -139 101 -220 199 -220c99 0 200 81 200 220s-101 217 -200 217c-98 0 -199 -78 -199 -217zM557 253c0 -142 -107 -265 -252 -265
c-144 0 -251 123 -251 265s107 265 251 265c145 0 252 -123 252 -265z" />
    <glyph glyph-name="Ohungarumlaut" unicode="&#x150;" horiz-adv-x="824" 
d="M457 762l56 93h55l-69 -93h-42zM315 762l51 93h52l-62 -93h-41zM412 711c204 0 346 -170 346 -362c0 -478 -692 -478 -692 0c0 192 137 362 346 362zM120 349c0 -410 584 -411 584 0c0 415 -584 412 -584 0z" />
    <glyph glyph-name="ohungarumlaut" unicode="&#x151;" horiz-adv-x="609" 
d="M336 594l57 93h55c-27 -34 -44 -60 -71 -93h-41zM209 594l52 93h53c-23 -34 -43 -60 -66 -93h-39zM107 253c0 -139 101 -220 199 -220c99 0 200 81 200 220s-101 217 -200 217c-98 0 -199 -78 -199 -217zM558 253c0 -142 -107 -265 -252 -265c-144 0 -251 123 -251 265
s107 265 251 265c145 0 252 -123 252 -265z" />
    <glyph glyph-name="OE" unicode="&#x152;" horiz-adv-x="947" 
d="M872 701v-52h-310v-272h306v-51h-307v-273h311v-52h-365c-197 -48 -434 68 -434 348c0 192 137 362 346 362c31 0 60 -4 88 -11v1h365zM127 349c0 -247 211 -345 380 -295v592c-169 51 -380 -49 -380 -297z" />
    <glyph glyph-name="oe" unicode="&#x153;" horiz-adv-x="1051" 
d="M758 40c57 0 117 21 153 66l39 -27c-48 -59 -116 -88 -192 -88c-111 0 -186 70 -220 159c-38 -95 -126 -162 -229 -162c-144 0 -253 123 -253 265s109 265 253 265c102 0 191 -66 228 -158c31 88 110 153 220 154c138 1 235 -107 235 -243c0 -12 -1 -20 -2 -33h-429v-3
c8 -99 78 -195 197 -195zM108 253c0 -139 103 -220 201 -220c99 0 206 81 206 220v5v5c-5 133 -110 207 -206 207c-98 0 -201 -78 -201 -217zM560 282h386c-6 109 -84 182 -189 184c-118 -1 -183 -82 -197 -184z" />
    <glyph glyph-name="Racute" unicode="&#x154;" horiz-adv-x="620" 
d="M385 855l-74 -101h-48c20 37 39 65 59 101h63zM331 297l232 -297h-68l-231 297h-95v-297h-53v700h210c127 0 224 -69 226 -203c1 -130 -91 -195 -221 -200zM169 346h158c103 0 172 49 172 151c0 104 -73 152 -172 152h-158v-303z" />
    <glyph glyph-name="racute" unicode="&#x155;" horiz-adv-x="405" 
d="M320 691l-70 -98h-46c20 37 35 62 55 98h61zM96 507h42l8 -66c60 96 180 77 238 52l-21 -43c-95 46 -219 -6 -216 -125v-325h-51v507z" />
    <glyph glyph-name="Rcommaaccent" unicode="&#x156;" horiz-adv-x="620" 
d="M307 -41h53c12 -46 5 -80 -16 -125h-44c16 46 23 79 7 125zM331 297l232 -297h-68l-231 297h-95v-297h-53v700h210c127 0 224 -69 226 -203c1 -130 -91 -195 -221 -200zM169 346h158c103 0 172 49 172 151c0 104 -73 152 -172 152h-158v-303z" />
    <glyph glyph-name="rcommaaccent" unicode="&#x157;" horiz-adv-x="405" 
d="M99 -50h49c13 -39 4 -91 -19 -125h-37c19 47 23 78 7 125zM96 507h42l8 -66c60 96 180 77 238 52l-21 -43c-95 46 -219 -6 -216 -125v-325h-51v507z" />
    <glyph glyph-name="Rcaron" unicode="&#x158;" horiz-adv-x="618" 
d="M331 297l232 -297h-68l-231 297h-95v-297h-53v700h210c127 0 224 -69 226 -203c1 -130 -91 -195 -221 -200zM169 346h158c103 0 172 49 172 151c0 104 -73 152 -172 152h-158v-303zM414 852l-80 -97h-76l-79 97h50l67 -73l70 73h48z" />
    <glyph glyph-name="rcaron" unicode="&#x159;" horiz-adv-x="405" 
d="M96 507h42l8 -66c60 96 180 77 238 52l-21 -43c-95 46 -219 -6 -216 -125v-325h-51v507zM351 684l-82 -97h-72l-81 97h50l67 -73l70 73h48z" />
    <glyph glyph-name="Sacute" unicode="&#x15a;" horiz-adv-x="562" 
d="M376 861l-75 -105h-48c20 37 40 69 60 105h63zM131 529c-6 -97 89 -125 151 -141c99 -25 209 -80 202 -220c-10 -115 -116 -177 -214 -177c-82 0 -169 47 -207 136c14 7 31 17 43 23c30 -64 92 -107 165 -107c90 -1 155 51 160 129c8 108 -92 146 -164 165
c-87 24 -193 65 -189 195c4 120 101 179 196 179c80 0 160 -42 194 -122l-42 -21c-30 57 -93 90 -150 90c-70 1 -140 -40 -145 -129z" />
    <glyph glyph-name="sacute" unicode="&#x15b;" horiz-adv-x="443" 
d="M321 687l-73 -101h-44c20 37 37 65 57 101h60zM229 279c79 -16 157 -57 157 -142c0 -100 -97 -146 -171 -146c-60 0 -118 25 -155 73c10 10 23 23 31 32c61 -84 235 -81 244 42c-1 57 -70 86 -116 95c-77 13 -148 54 -149 137c0 149 203 186 299 96l-31 -34
c-64 62 -218 42 -217 -62c1 -59 64 -82 108 -91z" />
    <glyph glyph-name="Scircumflex" unicode="&#x15c;" horiz-adv-x="562" 
d="M131 529c-6 -97 89 -125 151 -141c99 -25 209 -80 202 -220c-10 -115 -116 -177 -214 -177c-82 0 -169 47 -207 136c14 7 31 17 43 23c30 -64 92 -107 165 -107c90 -1 155 51 160 129c8 108 -92 146 -164 165c-87 24 -193 65 -189 195c4 120 101 179 196 179
c80 0 160 -42 194 -122l-42 -21c-30 57 -93 90 -150 90c-70 1 -140 -40 -145 -129zM158 754l80 97h76l79 -97h-50l-67 73l-70 -73h-48z" />
    <glyph glyph-name="scircumflex" unicode="&#x15d;" horiz-adv-x="443" 
d="M229 279c79 -16 157 -57 157 -142c0 -100 -97 -146 -171 -146c-60 0 -118 25 -155 73c10 10 23 23 31 32c61 -84 235 -81 244 42c-1 57 -70 86 -116 95c-77 13 -148 54 -149 137c0 149 203 186 299 96l-31 -34c-64 62 -218 42 -217 -62c1 -59 64 -82 108 -91zM116 582
l80 97h76l79 -97h-50l-67 76l-70 -76h-48z" />
    <glyph glyph-name="Scedilla" unicode="&#x15e;" horiz-adv-x="562" 
d="M298 -7l-19 -35c127 -6 103 -144 -9 -144c-20 0 -46 6 -70 17l7 34c35 -22 113 -22 113 23c0 22 -20 33 -58 34c-8 0 -16 0 -25 -3l-10 9l33 64c-79 3 -161 49 -197 135l43 23c30 -64 92 -107 165 -107c90 -1 155 51 160 129c8 108 -92 146 -164 165
c-87 24 -193 65 -189 195c4 120 101 179 196 179c80 0 160 -42 194 -122l-42 -21c-30 57 -93 90 -150 90c-70 1 -140 -40 -145 -129c-6 -97 89 -125 151 -141c99 -25 209 -80 202 -220c-9 -104 -97 -165 -186 -175z" />
    <glyph glyph-name="scedilla" unicode="&#x15f;" horiz-adv-x="442" 
d="M229 279c79 -16 157 -57 157 -142c0 -91 -80 -137 -150 -144l-13 -26c116 -5 94 -121 -9 -121c-19 0 -42 7 -64 16l6 29c32 -19 104 -16 104 17c0 19 -18 28 -53 29c-7 0 -15 0 -23 -3l-10 8l27 50c-55 3 -107 27 -141 72c10 10 23 23 31 32c61 -84 235 -81 244 42
c-1 57 -70 86 -116 95c-77 13 -148 54 -149 137c0 149 203 186 299 96l-31 -34c-64 62 -218 42 -217 -62c1 -59 64 -82 108 -91z" />
    <glyph glyph-name="Tcommaaccent" unicode="&#x162;" horiz-adv-x="455" 
d="M253 0l-1 -28c118 -10 95 -144 -17 -144c-20 0 -46 6 -70 17l7 34c35 -22 113 -22 113 23c0 26 -36 41 -73 32l-8 8l8 58h-11v648h-176v52h405v-52h-176v-648h-1z" />
    <glyph glyph-name="tcommaaccent" unicode="&#x163;" horiz-adv-x="311" 
d="M190 7l-3 -35c118 -10 101 -141 -11 -141c-20 0 -44 6 -68 17l7 34c35 -22 110 -25 110 20c0 26 -35 41 -72 32l-8 8l12 81c-34 23 -54 63 -54 118v323h-52v43h52v193h52v-193h103v-43h-103v-323c0 -60 38 -96 103 -95v-47c-25 -1 -48 2 -68 8z" />
    <glyph glyph-name="Tcaron" unicode="&#x164;" horiz-adv-x="455" 
d="M25 700h405v-52h-176v-648h-53v648h-176v52zM343 850l-80 -97h-76l-79 97h50l67 -74l70 74h48z" />
    <glyph glyph-name="tcaron" unicode="&#x165;" horiz-adv-x="311" 
d="M256 699h47c10 -45 4 -82 -17 -124h-38c17 47 22 78 8 124zM258 46v-47c-89 -4 -155 43 -155 142v323h-52v43h52v193h52v-193h103v-43h-103v-323c0 -60 38 -96 103 -95z" />
    <glyph glyph-name="Tbar" unicode="&#x166;" horiz-adv-x="454" 
d="M73 325v43h128v280h-176v52h405v-52h-176v-280h131v-43h-131v-325h-53v325h-128z" />
    <glyph glyph-name="tbar" unicode="&#x167;" horiz-adv-x="311" 
d="M258 46v-47c-89 -4 -155 43 -155 142v119h-47v36h47v168h-52v43h52v193h52v-193h103v-43h-103v-168h100v-36h-100v-119c0 -60 38 -96 103 -95z" />
    <glyph glyph-name="Utilde" unicode="&#x168;" horiz-adv-x="658" 
d="M441 847l26 -16c-30 -56 -89 -74 -139 -42c-41 27 -79 29 -110 -10l-28 17c40 63 94 71 152 32c34 -22 77 -16 99 19zM106 700h54v-502c0 -101 85 -155 169 -155c83 0 171 54 171 155v502h53v-502c0 -138 -112 -207 -224 -207s-223 69 -223 207v502z" />
    <glyph glyph-name="utilde" unicode="&#x169;" horiz-adv-x="618" 
d="M423 682l26 -16c-30 -56 -89 -74 -139 -42c-41 27 -79 29 -110 -10l-28 17c40 63 94 71 152 32c34 -22 77 -16 99 19zM471 97v410h52v-507h-45l-7 45c-36 -35 -92 -54 -142 -54c-131 2 -240 78 -240 221v295h52v-295c1 -112 90 -169 191 -173c57 -1 106 18 139 58z" />
    <glyph glyph-name="Umacron" unicode="&#x16a;" horiz-adv-x="658" 
d="M217 788v45h229v-45h-229zM106 700h54v-502c0 -101 85 -155 169 -155c83 0 171 54 171 155v502h53v-502c0 -138 -112 -207 -224 -207s-223 69 -223 207v502z" />
    <glyph glyph-name="umacron" unicode="&#x16b;" horiz-adv-x="618" 
d="M199 629v45h225v-45h-225zM471 97v410h52v-507h-45l-7 45c-36 -35 -92 -54 -142 -54c-131 2 -240 78 -240 221v295h52v-295c1 -112 90 -169 191 -173c57 -1 106 18 139 58z" />
    <glyph glyph-name="Ubreve" unicode="&#x16c;" horiz-adv-x="658" 
d="M331 754c-71 0 -110 38 -119 97h42c13 -80 141 -81 155 0h40c-3 -67 -65 -97 -118 -97zM106 700h54v-502c0 -101 85 -155 169 -155c83 0 171 54 171 155v502h53v-502c0 -138 -112 -207 -224 -207s-223 69 -223 207v502z" />
    <glyph glyph-name="ubreve" unicode="&#x16d;" horiz-adv-x="618" 
d="M312 585c-69 0 -110 39 -119 98h39c23 -81 140 -81 158 0h40c-3 -67 -59 -100 -118 -98zM471 97v410h52v-507h-45l-7 45c-36 -35 -92 -54 -142 -54c-131 2 -240 78 -240 221v295h52v-295c1 -112 90 -169 191 -173c57 -1 106 18 139 58z" />
    <glyph glyph-name="Uring" unicode="&#x16e;" horiz-adv-x="658" 
d="M106 700h54v-502c0 -101 85 -155 169 -155c83 0 171 54 171 155v502h53v-502c0 -138 -112 -207 -224 -207s-223 69 -223 207v502zM333 875c92 2 91 -128 0 -128c-93 0 -94 130 0 128zM333 848c-54 1 -53 -75 0 -75c52 0 54 76 0 75z" />
    <glyph glyph-name="uring" unicode="&#x16f;" horiz-adv-x="618" 
d="M307 693c92 2 91 -125 0 -125c-93 0 -94 127 0 125zM307 666c-52 1 -51 -71 0 -71c50 0 52 72 0 71zM471 97v410h52v-507h-45l-7 45c-36 -35 -92 -54 -142 -54c-131 2 -240 78 -240 221v295h52v-295c1 -112 90 -169 191 -173c57 -1 106 18 139 58z" />
    <glyph glyph-name="Uhungarumlaut" unicode="&#x170;" horiz-adv-x="658" 
d="M368 758l54 87h55l-68 -87h-41zM236 758l49 87h51l-61 -87h-39zM106 700h54v-502c0 -101 85 -155 169 -155c83 0 171 54 171 155v502h53v-502c0 -138 -112 -207 -224 -207s-223 69 -223 207v502z" />
    <glyph glyph-name="uhungarumlaut" unicode="&#x171;" horiz-adv-x="620" 
d="M346 595l58 95h55l-72 -95h-41zM208 595l53 95h52l-66 -95h-39zM471 97v410h52v-507h-45l-7 45c-36 -35 -92 -54 -142 -54c-131 2 -240 78 -240 221v295h52v-295c1 -112 90 -169 191 -173c57 -1 106 18 139 58z" />
    <glyph glyph-name="Uogonek" unicode="&#x172;" horiz-adv-x="658" 
d="M106 700h54v-502c0 -101 85 -155 169 -155c83 0 171 54 171 155v502h53v-502c0 -82 -40 -139 -95 -173l2 1c-45 -24 -65 -58 -65 -81c0 -38 47 -59 66 -67l-18 -45s-96 25 -96 93c0 20 5 40 32 70c-17 -3 -33 -5 -50 -5c-112 0 -223 69 -223 207v502z" />
    <glyph glyph-name="uogonek" unicode="&#x173;" horiz-adv-x="618" 
d="M471 97v410h52v-507c-80 -28 -87 -120 -1 -127l-14 -39c-96 7 -138 114 -31 170l-6 43c-36 -35 -92 -56 -142 -56c-131 2 -240 78 -240 221v295h52v-295c1 -112 90 -169 191 -173c57 -1 106 18 139 58z" />
    <glyph glyph-name="Wcircumflex" unicode="&#x174;" horiz-adv-x="962" 
d="M511 604l170 -574l174 670h57c-63 -232 -128 -474 -191 -705h-80l-157 526l-158 -525h-80c-63 233 -129 471 -192 704h55l178 -670c53 172 117 401 171 574h53zM365 754l80 97h76l79 -97h-50l-67 75l-70 -75h-48z" />
    <glyph glyph-name="wcircumflex" unicode="&#x175;" horiz-adv-x="724" 
d="M325 504h70l107 -460h4l125 463h56l-148 -508h-73l-104 453h-3l-103 -453h-74l-145 508h54l125 -463h4zM242 592l80 97h76l79 -97h-50l-67 78l-70 -78h-48z" />
    <glyph glyph-name="Ycircumflex" unicode="&#x176;" horiz-adv-x="590" 
d="M557 700l-238 -420v-280h-53v281l-236 419h59l204 -370l205 370h59zM181 754l80 97h76l79 -97h-50l-67 75l-70 -75h-48z" />
    <glyph glyph-name="ycircumflex" unicode="&#x177;" horiz-adv-x="509" 
d="M103 -181v43c58 -2 81 18 97 59l29 77l-207 509h56l179 -455l171 455h56l-235 -603c-25 -68 -73 -85 -130 -85h-16zM129 592l80 97h76l79 -97h-50l-67 75l-70 -75h-48z" />
    <glyph glyph-name="Zacute" unicode="&#x179;" horiz-adv-x="573" 
d="M396 866l-70 -98h-48c20 37 35 62 55 98h63zM67 0v53l363 601h-345v47h413v-28l-379 -625h385v-48h-437z" />
    <glyph glyph-name="zacute" unicode="&#x17a;" horiz-adv-x="473" 
d="M324 685l-73 -95h-44l54 95h63zM411 45v-45h-355v32l290 430h-280v45h338v-34l-289 -428h296z" />
    <glyph glyph-name="Zdotaccent" unicode="&#x17b;" horiz-adv-x="572" 
d="M273 777v65h61v-65h-61zM67 0v53l363 601h-345v47h413v-28l-379 -625h385v-48h-437z" />
    <glyph glyph-name="zdotaccent" unicode="&#x17c;" horiz-adv-x="473" 
d="M215 607v63h61v-63h-61zM411 45v-45h-355v32l290 430h-280v45h338v-34l-289 -428h296z" />
    <glyph glyph-name="longs" unicode="&#x17f;" horiz-adv-x="254" 
d="M266 703v-45c-59 8 -105 -30 -105 -97v-560h-51v453h-55v52h55v55c0 99 67 146 156 142z" />
    <glyph glyph-name="florin" unicode="&#x192;" horiz-adv-x="538" 
d="M505 704l-4 -44c-98 2 -138 -85 -151 -182h115c-3 -21 -4 -25 -7 -44h-114c-28 -149 -65 -331 -93 -481c-18 -90 -60 -159 -181 -159c-11 0 -24 1 -36 3l8 41c11 -1 21 -1 30 -1c83 0 113 48 129 126l91 471h-95c3 21 5 25 8 44h95l8 40c18 98 83 186 195 186h2z" />
    <glyph glyph-name="Scommaaccent" unicode="&#x218;" horiz-adv-x="562" 
d="M250 -63h53c3 -14 5 -27 5 -39c0 -28 -7 -52 -21 -81h-43c10 26 14 47 14 71c0 15 -2 30 -8 49zM131 529c-6 -97 89 -125 151 -141c99 -25 209 -80 202 -220c-10 -115 -116 -177 -214 -177c-82 0 -169 47 -207 136c14 7 31 17 43 23c30 -64 92 -107 165 -107
c90 -1 155 51 160 129c8 108 -92 146 -164 165c-87 24 -193 65 -189 195c4 120 101 179 196 179c80 0 160 -42 194 -122l-42 -21c-30 57 -93 90 -150 90c-70 1 -140 -40 -145 -129z" />
    <glyph glyph-name="scommaaccent" unicode="&#x219;" horiz-adv-x="443" 
d="M198 -64h52c8 -39 -2 -79 -19 -116h-39c17 42 18 73 6 116zM229 279c79 -16 157 -57 157 -142c0 -100 -97 -146 -171 -146c-60 0 -118 25 -155 73c10 10 23 23 31 32c61 -84 235 -81 244 42c-1 57 -70 86 -116 95c-77 13 -148 54 -149 137c0 149 203 186 299 96l-31 -34
c-64 62 -218 42 -217 -62c1 -59 64 -82 108 -91z" />
    <glyph glyph-name="uni021A" unicode="&#x21a;" horiz-adv-x="455" 
d="M202 -55h55c10 -46 4 -84 -19 -127h-43c16 47 21 81 7 127zM25 700h405v-52h-176v-648h-53v648h-176v52z" />
    <glyph glyph-name="uni021B" unicode="&#x21b;" horiz-adv-x="311" 
d="M177 -67h52c10 -46 2 -79 -19 -125h-40c16 48 21 79 7 125zM258 46v-47c-89 -4 -155 43 -155 142v323h-52v43h52v193h52v-193h103v-43h-103v-323c0 -60 38 -96 103 -95z" />
    <glyph glyph-name="circumflex" unicode="&#x2c6;" horiz-adv-x="513" 
d="M140 755l84 100h69l82 -100h-48l-69 78l-70 -78h-48z" />
    <glyph glyph-name="caron" unicode="&#x2c7;" horiz-adv-x="513" 
d="M374 874l-84 -100h-69l-82 100h48l69 -78l70 78h48z" />
    <glyph glyph-name="breve" unicode="&#x2d8;" horiz-adv-x="513" 
d="M258 759c-57 0 -111 40 -120 99h40c13 -81 146 -82 160 0h37c-3 -67 -67 -99 -117 -99z" />
    <glyph glyph-name="dotaccent" unicode="&#x2d9;" horiz-adv-x="514" 
d="M226 777v66h61v-66h-61z" />
    <glyph glyph-name="ring" unicode="&#x2da;" horiz-adv-x="514" 
d="M192 814c-2 90 133 89 133 0c0 -90 -135 -91 -133 0zM221 814c-1 -54 76 -53 76 0c0 52 -77 54 -76 0z" />
    <glyph glyph-name="ogonek" unicode="&#x2db;" horiz-adv-x="513" 
d="M184 -104v1c-10 59 64 106 84 116l37 -6s-75 -57 -75 -94c0 -40 46 -49 70 -56l-13 -27s-93 -1 -103 66z" />
    <glyph glyph-name="tilde" unicode="&#x2dc;" horiz-adv-x="494" 
d="M351 842l25 -20c-18 -35 -47 -55 -78 -55c-19 0 -39 5 -56 19c-40 30 -78 29 -108 -17c-11 7 -18 13 -26 19c23 38 51 58 83 58c20 0 42 -9 63 -25c35 -25 73 -17 97 21z" />
    <glyph glyph-name="hungarumlaut" unicode="&#x2dd;" horiz-adv-x="437" 
d="M228 751l64 107h54l-76 -107h-42zM105 751l59 107h53l-71 -107h-41z" />
    <glyph glyph-name="uni1E9E" unicode="&#x1e9e;" horiz-adv-x="589" 
d="M153 533v-533h-51v533c-2 233 378 239 378 4c0 -52 -27 -124 -102 -156c89 -32 147 -100 146 -185c3 -134 -101 -207 -210 -207c-29 0 -60 5 -88 13v44c24 -8 44 -10 73 -10c124 0 173 82 173 160c0 74 -61 156 -173 156h-46v49h46c86 0 134 78 130 139
c1 171 -276 162 -276 -7z" />
    <glyph glyph-name="endash" unicode="&#x2013;" horiz-adv-x="701" 
d="M110 256v48h483v-48h-483z" />
    <glyph glyph-name="emdash" unicode="&#x2014;" horiz-adv-x="871" 
d="M110 256v44h662v-44h-662z" />
    <glyph glyph-name="quoteleft" unicode="&#x2018;" horiz-adv-x="241" 
d="M179 707l-51 -191h-60l70 191h41z" />
    <glyph glyph-name="quoteright" unicode="&#x2019;" horiz-adv-x="227" 
d="M67 517l50 191h57l-68 -191h-39z" />
    <glyph glyph-name="quotedblleft" unicode="&#x201c;" horiz-adv-x="362" 
d="M179 707l-54 -197h-58l71 197h41zM320 707l-54 -197h-58l71 197h41z" />
    <glyph glyph-name="quotedblright" unicode="&#x201d;" horiz-adv-x="374" 
d="M67 517l50 191h54l-69 -191h-35zM209 517l50 191h54l-67 -191h-37z" />
    <glyph glyph-name="dagger" unicode="&#x2020;" horiz-adv-x="433" 
d="M183 -42v488h-133v44h133v210h48v-210h139v-44h-139v-488h-48z" />
    <glyph glyph-name="daggerdbl" unicode="&#x2021;" horiz-adv-x="449" 
d="M247 447v-236h133v-43h-133v-210h-48v210h-139v43h139v236h-133v43h133v210h48v-210h139v-43h-139z" />
    <glyph glyph-name="bullet" unicode="&#x2022;" horiz-adv-x="393" 
d="M194 167c-68 0 -121 55 -121 124s53 124 121 124c67 0 120 -55 120 -124s-53 -124 -120 -124z" />
    <glyph glyph-name="guilsinglleft" unicode="&#x2039;" horiz-adv-x="355" 
d="M222 87l-156 195l156 196h60l-157 -196l157 -195h-60z" />
    <glyph glyph-name="guilsinglright" unicode="&#x203a;" horiz-adv-x="360" 
d="M291 282l-156 -195h-60l157 195l-157 196h60z" />
    <glyph glyph-name="fraction" unicode="&#x2044;" horiz-adv-x="182" 
d="M-70 -37h-47c121 252 233 489 353 741h48c-121 -252 -234 -489 -354 -741z" />
    <glyph glyph-name="Euro" unicode="&#x20ac;" horiz-adv-x="670" 
d="M63 437h57c36 144 151 268 335 268c45 0 94 -11 135 -28l-24 -46c-35 17 -70 24 -111 24c-165 -2 -247 -90 -280 -218h296c-3 -19 -8 -27 -11 -44h-296l-2 -69h281c-3 -18 -7 -29 -10 -45h-261c28 -138 126 -234 283 -234c46 0 93 10 133 30c10 -19 13 -24 22 -41
c-49 -25 -98 -38 -155 -38c-191 0 -307 132 -338 283h-68c4 18 6 29 10 45h55c-4 43 3 64 3 69h-65c3 19 8 27 11 44z" />
    <glyph glyph-name="trademark" unicode="&#x2122;" horiz-adv-x="888" 
d="M309 657h-111v-342h-42v342h-111v43h264v-43zM583 378l-142 263v-326h-40v385h53l148 -276l150 276h51v-385h-40v326l-142 -263h-38z" />
    <glyph glyph-name="minus" unicode="&#x2212;" horiz-adv-x="613" 
d="M72 258v47h487v-47h-487z" />
    <glyph glyph-name="infinity" unicode="&#x221e;" horiz-adv-x="468" 
d="M232 203c-79 0 -143 66 -143 146c0 81 64 145 143 145c80 0 143 -64 143 -145c0 -80 -63 -146 -143 -146z" />
    <glyph glyph-name="approxequal" unicode="&#x2248;" horiz-adv-x="613" 
d="M113 350l-26 27c32 32 80 62 132 62c43 0 74 -20 103 -38c27 -16 52 -35 88 -35c39 0 79 16 107 40c10 -13 15 -18 24 -29c-31 -30 -79 -56 -131 -56c-39 0 -75 19 -103 36c-26 15 -53 37 -88 37c-39 0 -79 -21 -106 -44zM113 179l-26 28c32 32 80 62 132 62
c43 0 74 -20 103 -37c27 -17 52 -34 88 -34c39 0 79 15 107 40c10 -13 15 -21 24 -31c-31 -30 -79 -56 -131 -56c-39 0 -77 22 -105 38c-26 16 -51 33 -86 33c-39 0 -79 -20 -106 -43z" />
    <glyph glyph-name="notequal" unicode="&#x2260;" horiz-adv-x="620" 
d="M151 75l63 89h-111v44h143l106 152h-249v46h281c24 33 52 72 76 106l26 -16l-64 -90h104v-46h-136l-106 -152h242v-44h-274l-75 -108z" />
    <glyph glyph-name="lessequal" unicode="&#x2264;" horiz-adv-x="506" 
d="M57 48h388v-44h-388v44zM431 591v-58l-326 -166l326 -164v-57l-375 196v50z" />
    <glyph glyph-name="greaterequal" unicode="&#x2265;" horiz-adv-x="560" 
d="M477 57h-388v-50h388v50zM95 533v58l375 -199v-50l-375 -196v57l326 164z" />
    <glyph glyph-name="fontfabric" horiz-adv-x="1744" 
d="M1328 699h350v-176h-14c-27 98 -74 163 -180 163h-59v-674h110v-13h-207v700zM732 12h234v-13h-234v13zM1173 699h123v-13v0v-687h-32l-428 687h-104v13h215l330 -537h6v524h-110v13zM778 491c19 -46 26 -90 26 -141c0 -47 -7 -85 -26 -131c-19 -38 -38 -77 -71 -110
c-74 -74 -139 -110 -246 -110h-6v13h6c76 0 141 22 182 84c19 26 32 66 38 104c6 46 13 91 13 150c0 75 -9 170 -45 232c-31 75 -102 104 -188 104h-6v13h6c135 0 262 -84 317 -208zM235 439c6 20 15 36 25 72h7v-305h-7c-9 73 -44 152 -129 150h-65v13h57
c59 -1 92 16 112 70zM66 699h336v-169h-6c-23 87 -67 156 -182 156h-148v13z" />
    <glyph glyph-name="zero.tnum" horiz-adv-x="616" 
d="M135 509v-319c0 -101 87 -149 173 -149c84 0 172 48 172 149v319c0 105 -92 147 -176 146c-85 -1 -169 -49 -169 -146zM82 190v319c0 131 110 198 221 199c115 2 230 -64 230 -199v-319c2 -130 -107 -200 -225 -200c-119 -2 -229 69 -226 200z" />
    <glyph glyph-name="one.tnum" horiz-adv-x="336" 
d="M159 652h-92v48h143v-700h-51v652z" />
    <glyph glyph-name="two.tnum" horiz-adv-x="573" 
d="M288 662h1c-74 3 -136 -42 -167 -102l-43 21c38 86 122 128 210 129c130 -1 203 -85 205 -190c0 -56 -31 -115 -76 -165l-277 -306h370v-49h-417c-7 17 -17 32 -23 48l311 344c36 40 60 87 59 127c0 78 -56 140 -153 143z" />
    <glyph glyph-name="three.tnum" 
d="M61 118l43 23c43 -79 103 -103 169 -103c75 0 161 62 161 160c0 89 -72 155 -150 155h-43v50h43c70 0 129 42 129 123c0 164 -228 184 -292 52l-39 21c81 175 385 143 385 -73c0 -55 -35 -123 -90 -148c72 -39 108 -103 108 -181c-1 -132 -108 -210 -215 -210
c-81 0 -168 46 -209 131z" />
    <glyph glyph-name="four.tnum" horiz-adv-x="546" 
d="M433 700v-499h62v-48h-62v-153h-51v153h-298l-44 51l328 496h65zM382 201l1 433l-288 -433h287z" />
    <glyph glyph-name="five.tnum" horiz-adv-x="585" 
d="M68 118l40 26c41 -68 108 -106 179 -106c117 0 179 103 178 189c0 84 -59 177 -175 177c-64 0 -114 -14 -171 -46c-9 0 -16 0 -24 -1l51 343h333v-46h-292l-36 -231c51 20 101 30 141 30c151 -2 225 -116 225 -227c0 -114 -79 -237 -232 -237c-85 0 -173 47 -217 129z
" />
    <glyph glyph-name="six.tnum" horiz-adv-x="607" 
d="M308 -9c-151 0 -230 118 -230 232c0 48 13 98 38 137l212 340h60l-178 -275c46 28 83 29 98 29c159 0 230 -120 230 -231c0 -114 -78 -232 -230 -232zM308 405c-97 0 -177 -83 -178 -181c0 -86 62 -185 178 -185c117 0 180 99 179 185c0 84 -63 181 -179 181z" />
    <glyph glyph-name="seven.tnum" horiz-adv-x="504" 
d="M412 652h-367v48h398l27 -40l-343 -660h-56z" />
    <glyph glyph-name="eight.tnum" horiz-adv-x="587" 
d="M293 -10c-108 0 -215 75 -216 209c-1 76 45 142 109 182c-52 37 -81 92 -81 147c0 116 94 182 188 182c95 0 188 -66 188 -182c0 -52 -28 -110 -80 -147c70 -43 110 -106 109 -182c-1 -134 -108 -209 -217 -209zM293 661c-88 0 -138 -70 -138 -131s51 -130 138 -130
c88 0 136 68 136 129s-47 132 -136 132zM293 356c-106 0 -163 -82 -163 -158s56 -161 163 -160c108 1 165 87 165 162s-57 156 -165 156z" />
    <glyph glyph-name="nine.tnum" horiz-adv-x="609" 
d="M301 709c151 0 230 -118 230 -232c0 -48 -14 -98 -39 -137l-211 -340h-60l178 275c-46 -28 -83 -27 -98 -27c-159 0 -230 118 -230 229c0 114 78 232 230 232zM301 295c97 0 179 83 180 181c0 98 -64 185 -180 185c-117 0 -180 -99 -179 -185c0 -93 51 -181 179 -181z
" />
    <glyph glyph-name="zero.p_osf" horiz-adv-x="615" 
d="M133 349v-159c0 -203 347 -204 347 0v159c0 200 -347 201 -347 0zM81 190v159c0 266 451 266 451 0v-159c0 -266 -451 -268 -451 0z" />
    <glyph glyph-name="one.p_osf" horiz-adv-x="312" 
d="M142 1v467h-79v46h130c0 -171 1 -342 1 -513h-52z" />
    <glyph glyph-name="two.p_osf" horiz-adv-x="528" 
d="M387 266l-240 -219h302v-47h-341l-29 46l273 257c32 32 57 62 42 109c-11 48 -74 80 -123 79h1c-53 2 -114 -25 -141 -71c-18 8 -29 12 -44 19c31 69 108 102 184 101c75 0 151 -38 172 -114c18 -58 -4 -115 -56 -160z" />
    <glyph glyph-name="three.p_osf" horiz-adv-x="527" 
d="M41 1l41 22c36 -56 103 -99 169 -99c75 0 159 54 159 147c0 84 -69 143 -147 143h-43v48h43c70 0 126 31 126 108c0 81 -68 126 -139 126c-57 0 -114 -29 -145 -80l-38 21c36 68 111 106 181 106c95 0 197 -57 197 -173c0 -52 -36 -110 -91 -134c73 -37 109 -93 109 -166
c-1 -125 -107 -193 -214 -193c-81 0 -167 43 -208 124z" />
    <glyph glyph-name="four.p_osf" horiz-adv-x="555" 
d="M439 525v-433h55v-46h-55v-133h-50v133h-291c-16 22 -31 39 -47 60l323 419h65zM391 92v378l-289 -378h289z" />
    <glyph glyph-name="five.p_osf" horiz-adv-x="544" 
d="M54 8l38 20c32 -57 106 -91 169 -91c110 0 169 86 168 166c0 78 -54 159 -164 159c-62 0 -108 -11 -162 -41c-9 0 -15 0 -23 -1l47 299h309v-44h-273l-30 -195c45 24 95 29 133 29c144 -2 214 -105 214 -207c0 -105 -75 -212 -220 -212c-82 0 -165 39 -206 118z" />
    <glyph glyph-name="six.p_osf" horiz-adv-x="598" 
d="M310 -9c-151 0 -230 118 -230 232c0 48 13 95 38 134l211 343h55l-175 -286c38 25 77 28 99 29c143 13 232 -115 232 -220c0 -114 -78 -232 -230 -232zM310 398c-97 0 -179 -76 -180 -174c0 -86 65 -186 180 -186c116 0 180 100 179 186c0 84 -64 174 -179 174z" />
    <glyph glyph-name="seven.p_osf" horiz-adv-x="514" 
d="M404 485h-337v49h368c4 -9 22 -35 26 -42l-318 -611h-54z" />
    <glyph glyph-name="eight.p_osf" horiz-adv-x="568" 
d="M284 -11c-103 0 -204 72 -205 199c-1 72 37 133 98 172c-50 36 -72 90 -72 142c0 110 89 169 179 169s179 -59 179 -169c0 -50 -21 -106 -71 -142c61 -39 99 -100 98 -172c-1 -127 -102 -199 -206 -199zM284 625c-84 0 -128 -63 -128 -121c0 -59 45 -123 128 -123
c84 0 127 64 127 123c0 58 -42 121 -127 121zM284 338c-102 0 -154 -79 -154 -151s52 -152 154 -151c104 1 156 83 156 153c0 72 -52 149 -156 149z" />
    <glyph glyph-name="nine.p_osf" horiz-adv-x="574" 
d="M288 540c151 0 230 -118 230 -232c0 -48 -13 -95 -38 -134l-211 -343h-55l175 286c-38 -25 -77 -28 -99 -29c-143 -13 -232 115 -232 220c0 114 78 232 230 232zM288 133c97 0 179 76 180 174c0 86 -65 186 -180 186c-116 0 -180 -100 -179 -186c0 -84 64 -174 179 -174z
" />
    <glyph glyph-name="zero.t_osf" horiz-adv-x="615" 
d="M133 349v-159c0 -203 347 -204 347 0v159c0 200 -347 201 -347 0zM81 190v159c0 266 451 266 451 0v-159c0 -266 -451 -268 -451 0z" />
    <glyph glyph-name="one.t_osf" horiz-adv-x="298" 
d="M142 1v467h-79v46h130c0 -171 1 -342 1 -513h-52z" />
    <glyph glyph-name="two.t_osf" horiz-adv-x="528" 
d="M387 266l-240 -219h302v-47h-341l-29 46l273 257c32 32 57 62 42 109c-11 48 -74 80 -123 79h1c-53 2 -114 -25 -141 -71c-18 8 -29 12 -44 19c31 69 108 102 184 101c75 0 151 -38 172 -114c18 -58 -4 -115 -56 -160z" />
    <glyph glyph-name="three.t_osf" horiz-adv-x="525" 
d="M41 1l41 22c36 -56 103 -99 169 -99c75 0 159 54 159 147c0 84 -69 143 -147 143h-43v48h43c70 0 126 31 126 108c0 81 -68 126 -139 126c-57 0 -114 -29 -145 -80l-38 21c36 68 111 106 181 106c95 0 197 -57 197 -173c0 -52 -36 -110 -91 -134c73 -37 109 -93 109 -166
c-1 -125 -107 -193 -214 -193c-81 0 -167 43 -208 124z" />
    <glyph glyph-name="four.t_osf" horiz-adv-x="560" 
d="M439 525v-433h55v-46h-55v-133h-50v133h-291c-16 22 -31 39 -47 60l323 419h65zM391 92v378l-289 -378h289z" />
    <glyph glyph-name="five.t_osf" horiz-adv-x="545" 
d="M57 8l38 20c32 -57 106 -91 169 -91c110 0 169 86 168 166c0 78 -54 159 -164 159c-62 0 -108 -11 -162 -41c-9 0 -15 0 -23 -1l47 299h309v-44h-273l-30 -195c45 24 95 29 133 29c144 -2 214 -105 214 -207c0 -105 -75 -212 -220 -212c-82 0 -165 39 -206 118z" />
    <glyph glyph-name="six.t_osf" horiz-adv-x="598" 
d="M302 -9c-151 0 -230 118 -230 232c0 48 13 95 38 134l211 343h55l-175 -286c38 25 77 28 99 29c143 13 232 -115 232 -220c0 -114 -78 -232 -230 -232zM302 398c-97 0 -179 -76 -180 -174c0 -86 65 -186 180 -186c116 0 180 100 179 186c0 84 -64 174 -179 174z" />
    <glyph glyph-name="seven.t_osf" horiz-adv-x="521" 
d="M404 485h-337v49h368c4 -9 22 -35 26 -42l-318 -611h-54z" />
    <glyph glyph-name="eight.t_osf" horiz-adv-x="568" 
d="M284 -11c-103 0 -204 72 -205 199c-1 72 37 133 98 172c-50 36 -72 90 -72 142c0 110 89 169 179 169s179 -59 179 -169c0 -50 -21 -106 -71 -142c61 -39 99 -100 98 -172c-1 -127 -102 -199 -206 -199zM284 625c-84 0 -128 -63 -128 -121c0 -59 45 -123 128 -123
c84 0 127 64 127 123c0 58 -42 121 -127 121zM284 338c-102 0 -154 -79 -154 -151s52 -152 154 -151c104 1 156 83 156 153c0 72 -52 149 -156 149z" />
    <glyph glyph-name="nine.t_osf" horiz-adv-x="574" 
d="M281 537c151 0 230 -118 230 -232c0 -48 -13 -95 -38 -134l-211 -343h-55l179 286c-38 -25 -81 -28 -103 -29c-143 -13 -232 115 -232 220c0 114 78 232 230 232zM281 130c97 0 179 76 180 174c0 86 -65 186 -180 186c-116 0 -180 -100 -179 -186c0 -84 64 -174 179 -174
z" />
    <glyph glyph-name="dollar.osf" horiz-adv-x="566" 
d="M138 428c-6 -76 77 -93 138 -107c3 0 7 -2 11 -2c96 -21 205 -63 196 -182c-9 -85 -77 -147 -182 -147v-75h-46v75c-77 10 -150 48 -184 112l43 25c32 -51 95 -91 163 -91c89 -1 151 33 156 103c8 94 -91 117 -161 133c-86 21 -190 44 -186 159c3 87 81 135 169 146v75
h46v-74c70 -9 138 -41 169 -96l-39 -22c-30 50 -92 71 -150 72c-81 0 -142 -24 -143 -104z" />
    <glyph glyph-name="cent.osf" horiz-adv-x="572" 
d="M299 -68v94c-154 13 -228 132 -228 252c1 119 78 240 229 254v99h40v-99c56 -6 101 -26 138 -59c-10 -12 -19 -22 -28 -33c-37 31 -85 47 -134 47c-100 1 -194 -86 -195 -211c0 -98 66 -205 196 -205c50 0 98 24 136 55c12 -15 20 -23 31 -36c-37 -33 -82 -55 -143 -63
v-95h-42z" />
    <glyph glyph-name="sterling.osf" horiz-adv-x="587" 
d="M530 429l-46 -9c-21 83 -90 112 -157 112c-72 0 -143 -55 -143 -150v-99h224v-44h-224v-190h353v-49h-461v49h57v190h-55v44h55v99c0 131 95 205 193 205c87 0 176 -51 204 -158z" />
    <glyph glyph-name="yen.osf" horiz-adv-x="591" 
d="M548 561l-162 -261h87v-40h-109l-50 -83c49 0 109 2 159 2v-40h-158v-143h-47v143h-158v40h160l-50 81h-110v40h88l-161 261h58l197 -336l197 336h59z" />
    <glyph glyph-name="florin.osf" horiz-adv-x="534" 
d="M485 592l-8 -43c-98 2 -130 -75 -150 -183h118l-9 -42h-117c-21 -113 -49 -257 -71 -371c-18 -90 -57 -159 -178 -159c-11 0 -24 1 -36 3l8 39c11 -1 21 -1 30 -1c83 0 113 50 129 128l69 361h-95l10 42h95l8 40c18 113 83 186 195 186h2z" />
    <glyph glyph-name="Euro.osf" horiz-adv-x="647" 
d="M63 391h57c36 144 150 243 335 243c45 0 94 -11 135 -28l-24 -44c-35 17 -70 25 -111 25c-146 -2 -251 -70 -286 -196h302c-3 -19 -8 -27 -11 -44h-297v-59h280c-3 -18 -7 -28 -10 -44h-268c29 -128 138 -201 290 -201c46 0 91 13 131 33c10 -19 15 -25 24 -42
c-49 -25 -98 -38 -155 -38c-192 0 -307 97 -338 248h-68c4 18 6 28 10 44h55l-1 59h-61c3 19 8 27 11 44z" />
    <glyph glyph-name="zero.numerator" horiz-adv-x="440" 
d="M101 544v-122c0 -81 55 -113 119 -113c63 0 119 32 119 113v122c0 81 -57 117 -120 117c-64 0 -118 -35 -118 -117zM52 422v122c0 106 84 160 168 160s168 -54 168 -160v-122c0 -102 -84 -160 -169 -160c-44 0 -89 16 -123 49c-27 25 -44 62 -44 111z" />
    <glyph glyph-name="one.numerator" horiz-adv-x="302" 
d="M130 285v372h-62v43h110v-415h-48z" />
    <glyph glyph-name="two.numerator" horiz-adv-x="418" 
d="M299 477l-177 -163h228v-45h-285l-17 36l219 206c22 22 44 54 34 89c-11 44 -58 59 -96 60h1c-45 2 -85 -16 -107 -54c-17 7 -28 12 -42 18c29 52 80 83 148 82c85 -1 146 -51 146 -124c0 -40 -23 -77 -52 -105z" />
    <glyph glyph-name="three.numerator" horiz-adv-x="408" 
d="M275 502l20 -5c41 -21 58 -58 58 -103c-1 -84 -78 -129 -154 -129c-56 0 -116 30 -147 80l34 27c31 -41 67 -64 115 -64c50 0 103 32 103 87c0 51 -45 86 -95 86h-32v40h32c43 0 83 25 83 67c0 50 -47 72 -93 72c-36 0 -73 -12 -94 -43l-36 18c26 46 78 70 129 70
c70 0 142 -40 142 -117c0 -32 -17 -67 -44 -79z" />
    <glyph glyph-name="four.numerator" horiz-adv-x="406" 
d="M312 700v-302h39v-41h-39v-80h-46v80h-196l-36 43c78 102 149 198 226 300h52zM85 400h181l1 237z" />
    <glyph glyph-name="five.numerator" horiz-adv-x="442" 
d="M351 658h-199l-24 -138c40 20 62 25 105 25c76 0 148 -63 148 -144c0 -92 -78 -147 -166 -146c-61 1 -124 26 -155 84v-1l39 21c24 -41 69 -57 115 -57c74 -1 122 36 122 99c0 64 -60 98 -119 98c-41 0 -77 -10 -115 -33l-23 5l40 229h232v-42z" />
    <glyph glyph-name="six.numerator" horiz-adv-x="434" 
d="M287 699l-123 -168c93 43 214 -11 214 -126c0 -37 -15 -74 -40 -99c-32 -32 -76 -45 -119 -45c-44 0 -87 13 -119 45c-25 25 -40 62 -40 99c0 28 10 57 26 81l150 213h51zM219 503c-59 0 -113 -36 -113 -97c0 -64 51 -102 113 -102c60 0 113 41 113 102
c-1 63 -54 97 -113 97z" />
    <glyph glyph-name="seven.numerator" horiz-adv-x="366" 
d="M73 267l203 391h-204v42h239l20 -30l-209 -403h-49z" />
    <glyph glyph-name="eight.numerator" horiz-adv-x="412" 
d="M109 507c-25 20 -35 47 -35 81c0 74 63 113 130 113c68 0 130 -39 130 -113c0 -34 -12 -65 -49 -89c45 -24 68 -65 68 -110c-1 -82 -73 -129 -149 -129c-75 0 -148 47 -149 129c-1 51 28 97 75 111c-4 0 -20 7 -21 7zM204 659c-115 0 -115 -143 0 -143s117 143 0 143z
M204 481c-57 0 -103 -30 -103 -91c0 -56 50 -87 103 -87c54 0 104 31 104 87c0 61 -47 91 -104 91z" />
    <glyph glyph-name="nine.numerator" horiz-adv-x="430" 
d="M151 263l122 168c-93 -43 -213 11 -213 126c0 37 15 74 40 99c32 32 76 45 119 45c44 0 87 -13 119 -45c25 -25 40 -62 40 -99c0 -28 -10 -57 -26 -81l-150 -213h-51zM219 459c59 0 113 36 113 97c0 64 -51 102 -113 102c-60 0 -113 -41 -113 -102c1 -63 54 -97 113 -97z
" />
    <glyph glyph-name="zerosuperior" unicode="&#x2070;" horiz-adv-x="442" 
d="M101 702v-122c0 -81 55 -113 119 -113c63 0 119 32 119 113v122c0 81 -57 117 -120 117c-64 0 -118 -35 -118 -117zM52 580v122c0 106 84 160 168 160s168 -54 168 -160v-122c0 -102 -84 -160 -169 -160c-44 0 -89 16 -123 49c-27 25 -44 62 -44 111z" />
    <glyph glyph-name="foursuperior" unicode="&#x2074;" horiz-adv-x="406" 
d="M312 850v-302h39v-41h-39v-80h-47v80h-195l-36 43c78 102 149 198 226 300h52zM85 550h181l1 237z" />
    <glyph glyph-name="fivesuperior" unicode="&#x2075;" horiz-adv-x="442" 
d="M351 810h-199l-24 -138c40 20 62 25 105 25c76 0 148 -63 148 -144c0 -92 -78 -147 -166 -146c-61 1 -124 26 -155 84v-1l39 21c24 -41 69 -57 115 -57c74 -1 122 36 122 99c0 64 -60 98 -119 98c-41 0 -77 -10 -115 -33l-23 5l40 229h232v-42z" />
    <glyph glyph-name="sixsuperior" unicode="&#x2076;" horiz-adv-x="434" 
d="M287 864l-123 -168c93 43 214 -11 214 -126c0 -37 -15 -74 -40 -99c-32 -32 -76 -45 -119 -45c-44 0 -87 13 -119 45c-25 25 -40 62 -40 99c0 28 10 57 26 81l150 213h51zM219 668c-59 0 -113 -36 -113 -97c0 -64 51 -102 113 -102c60 0 113 41 113 102
c-1 63 -54 97 -113 97z" />
    <glyph glyph-name="sevensuperior" unicode="&#x2077;" horiz-adv-x="366" 
d="M73 417l203 391h-204v42h239l20 -30l-209 -403h-49z" />
    <glyph glyph-name="eightsuperior" unicode="&#x2078;" horiz-adv-x="412" 
d="M109 662c-25 20 -35 47 -35 81c0 74 63 113 130 113c68 0 130 -39 130 -113c0 -34 -12 -65 -49 -89c45 -24 68 -65 68 -110c-1 -82 -73 -129 -149 -129c-75 0 -148 47 -149 129c-1 51 28 97 75 111c-4 0 -20 7 -21 7zM204 814c-115 0 -115 -143 0 -143s117 143 0 143z
M204 636c-57 0 -103 -30 -103 -91c0 -56 50 -87 103 -87c54 0 104 31 104 87c0 61 -47 91 -104 91z" />
    <glyph glyph-name="ninesuperior" unicode="&#x2079;" horiz-adv-x="430" 
d="M151 421l122 168c-93 -43 -213 11 -213 126c0 37 15 74 40 99c32 32 76 45 119 45c44 0 87 -13 119 -45c25 -25 40 -62 40 -99c0 -28 -10 -57 -26 -81l-150 -213h-51zM219 617c59 0 113 36 113 97c0 64 -51 102 -113 102c-60 0 -113 -41 -113 -102c1 -63 54 -97 113 -97z
" />
    <glyph glyph-name="zeroinferior" unicode="&#x2080;" horiz-adv-x="436" 
d="M106 123v-122c0 -152 238 -152 238 0v122c0 153 -238 155 -238 0zM57 1v122c0 106 84 160 168 160s168 -54 168 -160v-122c0 -102 -84 -160 -169 -160c-44 0 -89 16 -123 49c-27 25 -44 62 -44 111z" />
    <glyph glyph-name="oneinferior" unicode="&#x2081;" horiz-adv-x="293" 
d="M142 -148v372h-62v43h110v-415h-48z" />
    <glyph glyph-name="twoinferior" unicode="&#x2082;" horiz-adv-x="419" 
d="M299 58l-177 -163h228v-45h-285l-17 36l219 206c22 22 44 54 34 89c-11 44 -58 59 -96 60h1c-45 2 -85 -16 -107 -54c-17 7 -28 12 -42 18c29 52 80 83 148 82c85 -1 146 -51 146 -124c0 -40 -23 -77 -52 -105z" />
    <glyph glyph-name="threeinferior" unicode="&#x2083;" horiz-adv-x="408" 
d="M275 75l20 -5c41 -21 58 -58 58 -103c-1 -84 -78 -129 -154 -129c-56 0 -116 30 -147 80l34 27c31 -41 67 -64 115 -64c50 0 103 32 103 87c0 51 -45 86 -95 86h-32v40h32c43 0 83 25 83 67c0 50 -47 72 -93 72c-36 0 -73 -12 -94 -43l-36 18c26 46 78 70 129 70
c70 0 142 -40 142 -117c0 -32 -17 -67 -44 -79z" />
    <glyph glyph-name="fourinferior" unicode="&#x2084;" horiz-adv-x="393" 
d="M312 276v-302h39v-41h-39v-80h-46v80h-196l-36 43c78 102 149 198 226 300h52zM85 -25h181l1 238z" />
    <glyph glyph-name="fiveinferior" unicode="&#x2085;" horiz-adv-x="432" 
d="M351 239h-199l-24 -137c40 20 62 24 105 24c76 0 148 -63 148 -144c0 -92 -78 -147 -166 -146c-61 1 -124 26 -155 84v-1l39 21c24 -41 69 -57 115 -57c74 -1 122 36 122 99c0 64 -60 98 -119 98c-41 0 -77 -10 -115 -33l-23 5l40 229h232v-42z" />
    <glyph glyph-name="sixinferior" unicode="&#x2086;" horiz-adv-x="432" 
d="M287 280l-123 -168c93 43 214 -11 214 -126c0 -37 -15 -74 -40 -99c-32 -32 -76 -45 -119 -45c-44 0 -87 13 -119 45c-25 25 -40 62 -40 99c0 28 10 57 26 81l150 213h51zM219 84c-59 0 -113 -36 -113 -97c0 -64 51 -102 113 -102c60 0 113 41 113 102
c-1 63 -54 97 -113 97z" />
    <glyph glyph-name="seveninferior" unicode="&#x2087;" horiz-adv-x="368" 
d="M73 -169l203 391h-204v42h239l20 -30l-209 -403h-49z" />
    <glyph glyph-name="eightinferior" unicode="&#x2088;" horiz-adv-x="403" 
d="M109 87c-25 20 -35 47 -35 81c0 74 63 113 130 113c68 0 130 -39 130 -113c0 -34 -12 -65 -49 -89c45 -24 68 -65 68 -110c-1 -82 -73 -129 -149 -129c-75 0 -148 47 -149 129c-1 51 28 97 75 111c-4 0 -20 7 -21 7zM204 239c-115 0 -115 -143 0 -143s117 143 0 143z
M204 61c-57 0 -103 -30 -103 -91c0 -56 50 -87 103 -87c54 0 104 31 104 87c0 61 -47 91 -104 91z" />
    <glyph glyph-name="nineinferior" unicode="&#x2089;" horiz-adv-x="425" 
d="M151 -157l122 168c-93 -43 -213 11 -213 126c0 37 15 74 40 99c32 32 76 45 119 45c44 0 87 -13 119 -45c25 -25 40 -62 40 -99c0 -28 -10 -57 -26 -81l-150 -213h-51zM219 39c59 0 113 36 113 97c0 64 -51 102 -113 102c-60 0 -113 -41 -113 -102c1 -63 54 -97 113 -97z
" />
    <glyph glyph-name="zero.denominator" horiz-adv-x="444" 
d="M106 279v-122c0 -152 238 -152 238 0v122c0 153 -238 155 -238 0zM57 157v122c0 106 84 160 168 160s168 -54 168 -160v-122c0 -102 -84 -160 -169 -160c-44 0 -89 16 -123 49c-27 25 -44 62 -44 111z" />
    <glyph glyph-name="one.denominator" horiz-adv-x="291" 
d="M130 0v372h-62v43h110v-415h-48z" />
    <glyph glyph-name="two.denominator" horiz-adv-x="419" 
d="M299 208l-177 -163h228v-45h-285l-17 36l219 206c22 22 44 54 34 89c-11 44 -58 59 -96 60h1c-45 2 -85 -16 -107 -54c-17 7 -28 12 -42 18c29 52 80 83 148 82c85 -1 146 -51 146 -124c0 -40 -23 -77 -52 -105z" />
    <glyph glyph-name="three.denominator" horiz-adv-x="408" 
d="M275 234l20 -5c41 -21 58 -58 58 -103c-1 -84 -78 -129 -154 -129c-56 0 -116 30 -147 80l34 27c31 -41 67 -64 115 -64c50 0 103 32 103 87c0 51 -45 86 -95 86h-32v40h32c43 0 83 25 83 67c0 50 -47 72 -93 72c-36 0 -73 -12 -94 -43l-36 18c26 46 78 70 129 70
c70 0 142 -40 142 -117c0 -32 -17 -67 -44 -79z" />
    <glyph glyph-name="four.denominator" horiz-adv-x="406" 
d="M312 424v-302h39v-41h-39v-80h-46v80h-196l-36 43c78 102 149 198 226 300h52zM85 124h181l1 237z" />
    <glyph glyph-name="five.denominator" horiz-adv-x="442" 
d="M351 401h-199l-24 -137c40 20 62 24 105 24c76 0 148 -63 148 -144c0 -92 -78 -147 -166 -146c-61 1 -124 26 -155 84v-1l39 21c24 -41 69 -57 115 -57c74 -1 122 36 122 99c0 64 -60 98 -119 98c-41 0 -77 -10 -115 -33l-23 5l40 229h232v-42z" />
    <glyph glyph-name="six.denominator" horiz-adv-x="433" 
d="M287 434l-123 -168c93 43 214 -11 214 -126c0 -37 -15 -74 -40 -99c-32 -32 -76 -45 -119 -45c-44 0 -87 13 -119 45c-25 25 -40 62 -40 99c0 28 10 57 26 81l150 213h51zM219 238c-59 0 -113 -36 -113 -97c0 -64 51 -102 113 -102c60 0 113 41 113 102
c-1 63 -54 97 -113 97z" />
    <glyph glyph-name="seven.denominator" horiz-adv-x="374" 
d="M73 0l203 391h-204v42h239l20 -30l-209 -403h-49z" />
    <glyph glyph-name="eight.denominator" horiz-adv-x="412" 
d="M109 240c-25 20 -35 47 -35 81c0 74 63 113 130 113c68 0 130 -39 130 -113c0 -34 -12 -65 -49 -89c45 -24 68 -65 68 -110c-1 -82 -73 -129 -149 -129c-75 0 -148 47 -149 129c-1 51 28 97 75 111c-4 0 -20 7 -21 7zM204 392c-115 0 -115 -143 0 -143s117 143 0 143z
M204 214c-57 0 -103 -30 -103 -91c0 -56 50 -87 103 -87c54 0 104 31 104 87c0 61 -47 91 -104 91z" />
    <glyph glyph-name="nine.denominator" horiz-adv-x="428" 
d="M143 0l122 168c-93 -43 -213 11 -213 126c0 37 15 74 40 99c32 32 76 45 119 45c44 0 87 -13 119 -45c25 -25 40 -62 40 -99c0 -28 -10 -57 -26 -81l-150 -213h-51zM211 196c59 0 113 36 113 97c0 64 -51 102 -113 102c-60 0 -113 -41 -113 -102c1 -63 54 -97 113 -97z
" />
    <glyph glyph-name="thinspace" unicode="&#x2009;" horiz-adv-x="14" 
 />
    <glyph glyph-name="uni00A0" unicode="&#xa0;" horiz-adv-x="257" 
 />
    <glyph glyph-name="uni00AD" unicode="&#xad;" horiz-adv-x="445" 
d="M83 263v48h280v-48h-280z" />
    <glyph glyph-name="perthousand" unicode="&#x2030;" horiz-adv-x="1205" 
d="M382 542c0 -88 -72 -160 -159 -160s-159 72 -159 160c0 89 72 161 159 161s159 -72 159 -161zM771 158c0 -88 -72 -160 -159 -160c-88 0 -160 72 -160 160s72 160 160 160c87 0 159 -72 159 -160zM722 158c0 63 -47 115 -110 115c-64 0 -112 -52 -112 -115
c0 -64 48 -113 112 -113c63 0 110 49 110 113zM610 732h58c-151 -258 -306 -501 -456 -759h-56c151 258 304 501 454 759zM336 542c0 65 -48 115 -113 115c-64 0 -113 -50 -113 -115c0 -63 49 -114 113 -114c65 0 113 51 113 114zM1137 158c0 -88 -72 -160 -159 -160
c-88 0 -160 72 -160 160s72 160 160 160c87 0 159 -72 159 -160zM1088 158c0 63 -47 115 -110 115c-64 0 -112 -52 -112 -115c0 -64 48 -113 112 -113c63 0 110 49 110 113z" />
    <glyph glyph-name="ellipsis" unicode="&#x2026;" horiz-adv-x="615" 
d="M159 -1h-63v74h63v-74zM334 -1h-63v74h63v-74zM510 -1h-63v74h63v-74z" />
    <glyph glyph-name="quotesinglbase" unicode="&#x201a;" horiz-adv-x="246" 
d="M45 -118l59 196h62l-76 -196h-45z" />
    <glyph glyph-name="quotedblbase" unicode="&#x201e;" horiz-adv-x="374" 
d="M45 -118l59 196h61l-77 -196h-43zM170 -118l59 196h60l-76 -196h-43z" />
    <glyph glyph-name="brokenbar" unicode="&#xa6;" horiz-adv-x="287" 
d="M119 -149v390h48v-390h-48zM167 782v-387h-48v387h48z" />
    <glyph glyph-name="Eth" unicode="&#xd0;" horiz-adv-x="735" 
d="M61 326v45h61v329h203c220 2 335 -171 338 -341c4 -174 -110 -359 -337 -359h-204v326h-61zM174 48h151c193 -3 289 163 285 310c-3 142 -99 294 -283 294h-153v-281h136v-45h-136v-278z" />
    <glyph glyph-name="Oslash" unicode="&#xd8;" horiz-adv-x="824" 
d="M412 704c54 0 114 -13 164 -45l49 82h49l-63 -105c87 -69 145 -174 145 -287c0 -193 -154 -353 -344 -353c-53 0 -106 16 -159 42c-13 -23 -35 -54 -49 -78h-48l62 100c-89 68 -150 173 -150 289c0 192 154 355 344 355zM120 349c0 -107 52 -194 122 -250l308 521
c-46 28 -95 35 -139 35c-144 -1 -291 -111 -291 -306zM704 349c0 103 -49 193 -117 249l-308 -521c46 -20 92 -32 133 -32c143 0 292 105 292 304z" />
    <glyph glyph-name="oslash" unicode="&#xf8;" horiz-adv-x="609" 
d="M144 -44h-49l57 92c-58 49 -92 124 -92 205c0 142 100 254 244 254c37 0 78 -10 116 -28l44 73h49l-59 -95c59 -49 95 -122 95 -204c0 -142 -100 -255 -245 -255c-39 0 -79 11 -117 27zM499 253c0 70 -22 121 -69 165l-221 -355c32 -14 67 -21 95 -21
c99 0 195 72 195 211zM112 253c0 -71 18 -118 65 -165l218 353c-32 14 -64 20 -91 20c-98 0 -192 -69 -192 -208z" />
    <glyph glyph-name="Amacron" unicode="&#x100;" horiz-adv-x="636" 
d="M203 764v45h226v-45h-226zM28 0l248 707h81c83 -231 169 -476 252 -707h-57l-84 234h-301l-81 -234h-58zM186 284h265l-134 388z" />
    <glyph glyph-name="amacron" unicode="&#x101;" 
d="M165 617v40h219v-40h-219zM427 105v138c-44 28 -98 40 -143 40c-233 0 -231 -247 -10 -247c52 0 116 25 153 69zM478 0h-40l-10 54c-47 -45 -106 -64 -154 -65c-289 -2 -291 341 9 344c42 0 95 -13 144 -42v24c0 109 -76 152 -159 152c-54 0 -101 -16 -146 -44l-26 36
c50 38 115 57 175 57c105 0 207 -65 207 -201v-315z" />
    <glyph glyph-name="Abreve" unicode="&#x102;" horiz-adv-x="636" 
d="M315 754c-67 0 -109 40 -118 99h40c8 -77 150 -77 156 0h41c-3 -67 -66 -99 -119 -99zM28 0l248 707h81c83 -231 169 -476 252 -707h-57l-84 234h-301l-81 -234h-58zM186 284h265l-134 388z" />
    <glyph glyph-name="abreve" unicode="&#x103;" horiz-adv-x="563" 
d="M427 105v138c-44 28 -98 40 -143 40c-233 0 -231 -247 -10 -247c52 0 116 25 153 69zM478 0h-40l-10 54c-47 -45 -106 -64 -154 -65c-289 -2 -291 341 9 344c42 0 95 -13 144 -42v24c0 109 -76 152 -159 152c-54 0 -101 -16 -146 -44l-26 36c50 38 115 57 175 57
c105 0 207 -65 207 -201v-315zM276 589c-67 0 -109 40 -118 99h40c6 -40 39 -59 77 -59s76 17 79 59h41c-3 -67 -66 -99 -119 -99z" />
    <glyph glyph-name="Agrave" unicode="&#xc0;" horiz-adv-x="636" 
d="M28 0l248 707h81c83 -231 169 -476 252 -707h-57l-84 234h-301l-81 -234h-58zM186 284h265l-134 388zM294 748l-76 104h62l60 -104h-46z" />
    <glyph glyph-name="Aacute" unicode="&#xc1;" horiz-adv-x="636" 
d="M276 707l-248 -707h58l81 234h301l84 -234h57c-83 231 -169 476 -252 707h-81zM451 284h-265l131 388zM411 852l-76 -104h-46l60 104h62z" />
    <glyph glyph-name="Acircumflex" unicode="&#xc2;" horiz-adv-x="636" 
d="M28 0l248 707h81c83 -231 169 -476 252 -707h-57l-84 234h-301l-81 -234h-58zM186 284h265l-134 388zM198 742l84 100h69l82 -100h-48l-69 78l-70 -78h-48z" />
    <glyph glyph-name="Atilde" unicode="&#xc3;" horiz-adv-x="636" 
d="M28 0l248 707h81c83 -231 169 -476 252 -707h-57l-84 234h-301l-81 -234h-58zM186 284h265l-134 388zM416 820l22 -19c-16 -34 -42 -53 -70 -53c-17 0 -35 5 -51 18c-35 28 -71 26 -97 -16c-10 7 -17 12 -24 18c21 37 46 56 75 56c18 0 38 -9 57 -24c32 -24 66 -17 88 20
z" />
    <glyph glyph-name="Adieresis" unicode="&#xc4;" horiz-adv-x="636" 
d="M28 0l248 707h81c83 -231 169 -476 252 -707h-57l-84 234h-301l-81 -234h-58zM186 284h265l-134 388zM258 744h-61v62h61v-62zM431 744h-61v62h61v-62z" />
    <glyph glyph-name="Aring" unicode="&#xc5;" horiz-adv-x="636" 
d="M28 0l248 707h81c83 -231 169 -476 252 -707h-57l-84 234h-301l-81 -234h-58zM186 284h265l-134 388zM248 813c-2 90 133 89 133 0c0 -90 -135 -91 -133 0zM277 813c-1 -54 76 -53 76 0c0 52 -77 54 -76 0z" />
    <glyph glyph-name="Ccedilla" unicode="&#xc7;" horiz-adv-x="733" 
d="M426 -12l-22 -42c127 -6 103 -144 -9 -144c-20 0 -46 6 -70 17l7 34c35 -22 113 -22 113 23c0 22 -20 33 -58 34c-8 0 -16 0 -25 -3l-10 9l38 72c-211 12 -323 189 -323 360c0 177 120 364 345 364c93 0 176 -37 238 -97l-36 -36c-53 50 -127 84 -202 82
c-189 -3 -290 -164 -290 -313c0 -148 104 -309 290 -309c80 0 166 40 221 97l38 -31c-61 -67 -149 -113 -245 -117z" />
    <glyph glyph-name="Igrave" unicode="&#xcc;" horiz-adv-x="286" 
d="M116 0v700h54v-700h-54zM118 752l-76 104h62l60 -104h-46z" />
    <glyph glyph-name="Iacute" unicode="&#xcd;" horiz-adv-x="286" 
d="M116 700v-700h54v700h-54zM240 853l-76 -104h-46l60 104h62z" />
    <glyph glyph-name="Icircumflex" unicode="&#xce;" horiz-adv-x="286" 
d="M116 0v700h54v-700h-54zM24 741l84 100h69l82 -100h-48l-69 78l-70 -78h-48z" />
    <glyph glyph-name="Idieresis" unicode="&#xcf;" horiz-adv-x="286" 
d="M116 0v700h54v-700h-54zM87 743h-61v62h61v-62zM260 743h-61v62h61v-62z" />
    <glyph glyph-name="Egrave" unicode="&#xc8;" horiz-adv-x="531" 
d="M461 701v-52h-294v-272h290v-51h-291v-273h295v-52h-349v700h349zM279 746l-76 104h62l60 -104h-46z" />
    <glyph glyph-name="Eacute" unicode="&#xc9;" horiz-adv-x="531" 
d="M461 649v52h-349v-700h349v52h-295v273h291v51h-290v272h294zM386 849l-76 -104h-46l60 104h62z" />
    <glyph glyph-name="Ecircumflex" unicode="&#xca;" horiz-adv-x="531" 
d="M461 701v-51h-294v-273h290v-51h-291v-273h295v-52h-349v700h349zM170 745l84 100h69l82 -100h-48l-69 78l-70 -78h-48z" />
    <glyph glyph-name="Edieresis" unicode="&#xcb;" horiz-adv-x="531" 
d="M461 701v-52h-294v-272h290v-51h-291v-274h295v-52h-349v701h349zM241 750h-61v62h61v-62zM414 750h-61v62h61v-62z" />
    <glyph glyph-name="Ntilde" unicode="&#xd1;" horiz-adv-x="737" 
d="M116 700h67l384 -648v648h54v-700h-84l-367 620v-620h-54v700zM476 824l25 -22c-18 -37 -48 -59 -79 -59c-19 0 -39 6 -56 21c-41 32 -79 31 -109 -19c-11 8 -18 14 -26 21c23 41 51 62 83 62c21 0 43 -9 64 -27c35 -27 73 -18 98 23z" />
    <glyph glyph-name="Ograve" unicode="&#xd2;" horiz-adv-x="824" 
d="M412 711c204 0 346 -170 346 -362c0 -478 -692 -478 -692 0c0 192 137 362 346 362zM120 349c0 -410 584 -411 584 0c0 415 -584 412 -584 0zM393 748l-76 104h62l60 -104h-46z" />
    <glyph glyph-name="Oacute" unicode="&#xd3;" horiz-adv-x="824" 
d="M412 711c-209 0 -346 -170 -346 -362c0 -478 692 -478 692 0c0 192 -142 362 -346 362zM120 349c0 412 584 415 584 0c0 -411 -584 -410 -584 0zM506 852l-76 -104h-46l60 104h62z" />
    <glyph glyph-name="Ocircumflex" unicode="&#xd4;" horiz-adv-x="824" 
d="M412 711c204 0 346 -170 346 -362c0 -478 -692 -478 -692 0c0 192 137 362 346 362zM120 349c0 -410 584 -411 584 0c0 415 -584 412 -584 0zM292 746l84 100h69l82 -100h-48l-69 78l-70 -78h-48z" />
    <glyph glyph-name="Otilde" unicode="&#xd5;" horiz-adv-x="824" 
d="M412 711c204 0 346 -170 346 -362c0 -478 -692 -478 -692 0c0 192 137 362 346 362zM120 349c0 -410 584 -411 584 0c0 415 -584 412 -584 0zM524 824l25 -20c-18 -35 -47 -55 -78 -55c-19 0 -39 5 -56 19c-40 30 -78 29 -108 -17c-11 7 -18 13 -26 19c23 38 51 58 83 58
c20 0 42 -9 63 -25c35 -25 73 -17 97 21z" />
    <glyph glyph-name="Odieresis" unicode="&#xd6;" horiz-adv-x="824" 
d="M412 711c204 0 346 -170 346 -362c0 -478 -692 -478 -692 0c0 192 137 362 346 362zM120 349c0 -410 584 -411 584 0c0 415 -584 412 -584 0zM353 752h-61v62h61v-62zM526 752h-61v62h61v-62z" />
    <glyph glyph-name="Ugrave" unicode="&#xd9;" horiz-adv-x="659" 
d="M106 700h54v-502c0 -101 85 -155 169 -155c83 0 171 54 171 155v502h53v-502c0 -138 -112 -207 -224 -207s-223 69 -223 207v502zM313 746l-76 104h62l60 -104h-46z" />
    <glyph glyph-name="Uacute" unicode="&#xda;" horiz-adv-x="659" 
d="M160 700h-54v-502c0 -138 111 -207 223 -207s224 69 224 207v502h-53v-502c0 -101 -88 -155 -171 -155c-84 0 -169 54 -169 155v502zM412 847l-76 -104h-46l60 104h62z" />
    <glyph glyph-name="Ucircumflex" unicode="&#xdb;" horiz-adv-x="659" 
d="M106 700h54v-502c0 -101 85 -155 169 -155c83 0 171 54 171 155v502h53v-502c0 -138 -112 -207 -224 -207s-223 69 -223 207v502zM212 742l84 100h69l82 -100h-48l-69 78l-70 -78h-48z" />
    <glyph glyph-name="Udieresis" unicode="&#xdc;" horiz-adv-x="659" 
d="M106 700h54v-502c0 -101 85 -155 169 -155c83 0 171 54 171 155v502h53v-502c0 -138 -112 -207 -224 -207s-223 69 -223 207v502zM271 748h-61v62h61v-62zM444 748h-61v62h61v-62z" />
    <glyph glyph-name="Yacute" unicode="&#xdd;" horiz-adv-x="593" 
d="M322 280l238 420h-59l-205 -370l-204 370h-59l236 -419v-281h53v280zM381 851l-76 -104h-46l60 104h62z" />
    <glyph glyph-name="agrave" unicode="&#xe0;" 
d="M427 105v138c-44 28 -98 40 -143 40c-233 0 -231 -247 -10 -247c52 0 116 25 153 69zM478 0h-40l-10 54c-47 -45 -106 -64 -154 -65c-289 -2 -291 341 9 344c42 0 95 -13 144 -42v21c0 109 -76 149 -159 149c-54 0 -101 -16 -146 -44l-26 36c50 38 115 57 175 57
c105 0 207 -62 207 -198v-312zM259 588l-76 104h62l60 -104h-46z" />
    <glyph glyph-name="aacute" unicode="&#xe1;" 
d="M427 243v-138c-37 -44 -101 -69 -153 -69c-221 0 -223 247 10 247c45 0 99 -12 143 -40zM438 0h40v312c0 136 -102 198 -207 198c-60 0 -125 -19 -175 -57l26 -36c45 28 92 44 146 44c83 0 159 -40 159 -149v-21c-49 29 -102 42 -144 42c-300 -3 -298 -346 -9 -344
c48 1 107 20 154 65zM364 690l-76 -104h-46l60 104h62z" />
    <glyph glyph-name="acircumflex" unicode="&#xe2;" 
d="M427 105v138c-44 28 -98 40 -143 40c-233 0 -231 -247 -10 -247c52 0 116 25 153 69zM478 0h-40l-10 54c-47 -45 -106 -64 -154 -65c-289 -2 -291 341 9 344c42 0 95 -13 144 -42v21c0 109 -76 149 -159 149c-54 0 -101 -16 -146 -44l-26 36c50 38 115 57 175 57
c105 0 207 -62 207 -198v-312zM161 587l84 100h69l82 -100h-48l-69 78l-70 -78h-48z" />
    <glyph glyph-name="atilde" unicode="&#xe3;" 
d="M427 105v138c-44 28 -98 40 -143 40c-233 0 -231 -247 -10 -247c52 0 116 25 153 69zM478 0h-40l-10 54c-47 -45 -106 -64 -154 -65c-289 -2 -291 341 9 344c42 0 95 -13 144 -42v21c0 109 -76 149 -159 149c-54 0 -101 -16 -146 -44l-26 36c50 38 115 57 175 57
c105 0 207 -62 207 -198v-312zM383 677l24 -19c-17 -35 -46 -55 -76 -55c-18 0 -38 5 -54 19c-39 30 -76 29 -105 -17c-10 7 -17 13 -25 19c22 38 49 57 81 57c19 0 40 -9 61 -24c34 -25 70 -17 94 20z" />
    <glyph glyph-name="adieresis" unicode="&#xe4;" 
d="M427 105v138c-44 28 -98 40 -143 40c-233 0 -231 -247 -10 -247c52 0 116 25 153 69zM478 0h-40l-10 54c-47 -45 -106 -64 -154 -65c-289 -2 -291 341 9 344c42 0 95 -13 144 -42v21c0 109 -76 149 -159 149c-54 0 -101 -16 -146 -44l-26 36c50 38 115 57 175 57
c105 0 207 -62 207 -198v-312zM224 618h-61v62h61v-62zM397 618h-61v62h61v-62z" />
    <glyph glyph-name="aring" unicode="&#xe5;" 
d="M427 105v138c-44 28 -98 40 -143 40c-233 0 -231 -247 -10 -247c52 0 116 25 153 69zM478 0h-40l-10 54c-47 -45 -106 -64 -154 -65c-289 -2 -291 341 9 344c42 0 95 -13 144 -42v21c0 109 -76 149 -159 149c-54 0 -101 -16 -146 -44l-26 36c50 38 115 57 175 57
c105 0 207 -62 207 -198v-312zM211 632c-2 90 133 89 133 0c0 -90 -135 -91 -133 0zM240 632c-1 -54 76 -53 76 0c0 52 -77 54 -76 0z" />
    <glyph glyph-name="ccedilla" unicode="&#xe7;" horiz-adv-x="530" 
d="M467 454l-28 -34c-37 31 -85 45 -134 45c-100 1 -195 -81 -196 -215c0 -98 67 -208 197 -208c50 0 98 19 136 50c12 -15 20 -23 31 -36c-41 -37 -95 -61 -153 -64l-21 -34c128 -5 105 -135 -8 -135c-20 0 -47 8 -71 18l9 34c35 -20 112 -22 112 19c0 19 -21 31 -59 32
c-8 0 -16 0 -25 -2l-10 8l36 61c-148 11 -226 137 -226 258c0 128 89 262 249 263c65 0 115 -16 161 -60z" />
    <glyph glyph-name="egrave" unicode="&#xe8;" horiz-adv-x="603" 
d="M306 42c57 0 117 21 153 66l39 -27c-48 -59 -116 -88 -192 -88c-163 0 -246 139 -245 265c0 127 85 255 244 256c138 1 235 -107 235 -243c0 -12 -1 -20 -2 -33h-429c7 -100 77 -196 197 -196zM109 282h385c-6 109 -84 182 -189 184c-118 -1 -182 -82 -196 -184zM289 590
l-76 104h62l60 -104h-46z" />
    <glyph glyph-name="eacute" unicode="&#xe9;" horiz-adv-x="603" 
d="M306 42c-120 0 -190 96 -197 196h429c1 13 2 21 2 33c0 136 -97 244 -235 243c-159 -1 -244 -129 -244 -256c-1 -126 82 -265 245 -265c76 0 144 29 192 88l-39 27c-36 -45 -96 -66 -153 -66zM494 282h-385c14 102 78 183 196 184c105 -2 183 -75 189 -184zM389 692
l-76 -104h-46l60 104h62z" />
    <glyph glyph-name="ecircumflex" unicode="&#xea;" horiz-adv-x="603" 
d="M306 42c57 0 117 21 153 66l39 -27c-48 -59 -116 -88 -192 -88c-163 0 -246 139 -245 265c0 127 85 255 244 256c138 1 235 -107 235 -243c0 -12 -1 -20 -2 -33h-429c7 -100 77 -196 197 -196zM109 282h385c-6 109 -84 182 -189 184c-118 -1 -182 -82 -196 -184zM188 587
l84 100h69l82 -100h-48l-69 78l-70 -78h-48z" />
    <glyph glyph-name="edieresis" unicode="&#xeb;" horiz-adv-x="603" 
d="M306 42c57 0 117 21 153 66l39 -27c-48 -59 -116 -88 -192 -88c-163 0 -246 139 -245 265c0 127 85 255 244 256c138 1 235 -107 235 -243c0 -12 -1 -20 -2 -33h-429c7 -100 77 -196 197 -196zM109 282h385c-6 109 -84 182 -189 184c-118 -1 -182 -82 -196 -184zM253 621
h-61v62h61v-62zM426 621h-61v62h61v-62z" />
    <glyph glyph-name="igrave" unicode="&#xec;" horiz-adv-x="244" 
d="M147 0h-51v507h51v-507zM105 589l-76 104h62l60 -104h-46z" />
    <glyph glyph-name="iacute" unicode="&#xed;" horiz-adv-x="244" 
d="M96 0h51v507h-51v-507zM218 695l-76 -104h-46l60 104h62z" />
    <glyph glyph-name="icircumflex" unicode="&#xee;" horiz-adv-x="244" 
d="M147 0h-51v507h51v-507zM4 593l84 100h69l82 -100h-48l-69 75l-70 -75h-48z" />
    <glyph glyph-name="idieresis" unicode="&#xef;" horiz-adv-x="244" 
d="M80 629h-61v62h61v-62zM229 629h-61v62h61v-62zM147 0h-51v507h51v-507z" />
    <glyph glyph-name="ntilde" unicode="&#xf1;" horiz-adv-x="620" 
d="M409 683l25 -20c-28 -56 -94 -71 -134 -40c-40 30 -78 33 -108 -13c-11 7 -18 13 -26 19c23 38 51 58 83 58c20 0 42 -9 63 -25c35 -25 73 -17 97 21zM148 411v-411h-52v507h45l7 -43c36 35 91 53 141 53c131 -2 241 -83 241 -226v-291h-52v291c-1 106 -90 174 -191 178
c-57 1 -106 -18 -139 -58z" />
    <glyph glyph-name="ograve" unicode="&#xf2;" horiz-adv-x="614" 
d="M107 253c0 -139 101 -220 199 -220c99 0 200 81 200 220s-101 217 -200 217c-98 0 -199 -78 -199 -217zM558 253c0 -142 -107 -265 -252 -265c-144 0 -251 123 -251 265s107 265 251 265c145 0 252 -123 252 -265zM296 588l-76 104h62l60 -104h-46z" />
    <glyph glyph-name="oacute" unicode="&#xf3;" horiz-adv-x="614" 
d="M107 253c0 139 101 217 199 217c99 0 200 -78 200 -217s-101 -220 -200 -220c-98 0 -199 81 -199 220zM558 253c0 142 -107 265 -252 265c-144 0 -251 -123 -251 -265s107 -265 251 -265c145 0 252 123 252 265zM406 691l-76 -104h-46l60 104h62z" />
    <glyph glyph-name="ocircumflex" unicode="&#xf4;" horiz-adv-x="614" 
d="M107 253c0 -139 101 -220 199 -220c99 0 200 81 200 220s-101 217 -200 217c-98 0 -199 -78 -199 -217zM558 253c0 -142 -107 -265 -252 -265c-144 0 -251 123 -251 265s107 265 251 265c145 0 252 -123 252 -265zM193 589l84 100h69l82 -100h-48l-69 78l-70 -78h-48z
" />
    <glyph glyph-name="otilde" unicode="&#xf5;" horiz-adv-x="614" 
d="M107 253c0 -139 101 -220 199 -220c99 0 200 81 200 220s-101 217 -200 217c-98 0 -199 -78 -199 -217zM558 253c0 -142 -107 -265 -252 -265c-144 0 -251 123 -251 265s107 265 251 265c145 0 252 -123 252 -265zM409 683l25 -19c-28 -57 -83 -73 -130 -36
c-39 30 -75 29 -104 -17c-11 7 -18 13 -25 19c38 66 86 73 141 33c34 -25 70 -17 93 20z" />
    <glyph glyph-name="odieresis" unicode="&#xf6;" horiz-adv-x="614" 
d="M107 253c0 -139 101 -220 199 -220c99 0 200 81 200 220s-101 217 -200 217c-98 0 -199 -78 -199 -217zM558 253c0 -142 -107 -265 -252 -265c-144 0 -251 123 -251 265s107 265 251 265c145 0 252 -123 252 -265zM252 627h-61v62h61v-62zM425 627h-61v62h61v-62z" />
    <glyph glyph-name="ugrave" unicode="&#xf9;" horiz-adv-x="619" 
d="M301 591l-76 104h62l60 -104h-46zM471 97v410h52v-507h-45l-7 45c-36 -35 -92 -54 -142 -54c-131 2 -240 78 -240 221v295h52v-295c1 -112 90 -169 191 -173c57 -1 106 18 139 58z" />
    <glyph glyph-name="uacute" unicode="&#xfa;" horiz-adv-x="619" 
d="M389 693l-76 -104h-46l60 104h62zM471 97c-33 -40 -82 -59 -139 -58c-101 4 -190 61 -191 173v295h-52v-295c0 -143 109 -219 240 -221c50 0 106 19 142 54l7 -45h45v507h-52v-410z" />
    <glyph glyph-name="ucircumflex" unicode="&#xfb;" horiz-adv-x="619" 
d="M189 591l84 100h69l82 -100h-48l-69 78l-70 -78h-48zM471 97v410h52v-507h-45l-7 45c-36 -35 -92 -54 -142 -54c-131 2 -240 78 -240 221v295h52v-295c1 -112 90 -169 191 -173c57 -1 106 18 139 58z" />
    <glyph glyph-name="udieresis" unicode="&#xfc;" horiz-adv-x="619" 
d="M254 632h-61v62h61v-62zM427 632h-61v62h61v-62zM471 97v410h52v-507h-45l-7 45c-36 -35 -92 -54 -142 -54c-131 2 -240 78 -240 221v295h52v-295c1 -112 90 -169 191 -173c57 -1 106 18 139 58z" />
    <glyph glyph-name="yacute" unicode="&#xfd;" horiz-adv-x="508" 
d="M104 -138v-43h16c57 0 105 17 130 85l235 603h-56l-171 -455l-179 455h-56l207 -509l-29 -77c-16 -41 -39 -61 -97 -59zM335 693l-76 -104h-46l60 104h62z" />
    <glyph glyph-name="ydieresis" unicode="&#xff;" horiz-adv-x="508" 
d="M104 -181v43c58 -2 81 18 97 59l29 77l-207 509h56l179 -455l171 455h56l-235 -603c-25 -68 -73 -85 -130 -85h-16zM207 623h-61v62h61v-62zM380 623h-61v62h61v-62z" />
    <glyph glyph-name="afii10052" unicode="&#x403;" horiz-adv-x="522" 
d="M473 700v-45h-303v-655h-53v700h356zM280 747l62 103h52l-71 -103h-43z" />
    <glyph glyph-name="afii10100" unicode="&#x453;" horiz-adv-x="470" 
d="M100 0v507h323v-46h-270v-461h-53zM240 584l64 107h54l-76 -107h-42z" />
    <glyph glyph-name="afii10061" unicode="&#x40c;" horiz-adv-x="634" 
d="M116 700h53v-375l347 375h61l-275 -310l292 -390h-64l-267 353l-94 -92v-261h-53v700zM300 741l64 107h54l-76 -107h-42z" />
    <glyph glyph-name="afii10145" unicode="&#x40f;" horiz-adv-x="675" 
d="M313 -108v108h-198v700h53v-655h337v655h53v-700h-198v-108h-47z" />
    <glyph glyph-name="afii10109" unicode="&#x45c;" horiz-adv-x="520" 
d="M96 508h49v-269l264 268h62l-217 -220l230 -287h-57l-206 252l-76 -69v-183h-49v508zM240 584l64 107h54l-76 -107h-42z" />
    <glyph glyph-name="afii10108" unicode="&#x45b;" horiz-adv-x="610" 
d="M32 587v38h64v75h52v-75h127v-38h-127v-101c49 24 92 29 131 30c136 2 242 -82 242 -228v-288h-52v288c-1 115 -85 181 -190 181c-47 0 -79 -4 -131 -28v-441h-52v587h-64z" />
    <glyph glyph-name="afii10193" unicode="&#x45f;" horiz-adv-x="603" 
d="M282 -116v116h-180v506h53v-462h297v462h53v-506h-175v-116h-48z" />
    <glyph glyph-name="afii10062" unicode="&#x40e;" horiz-adv-x="559" 
d="M86 700l206 -434l189 434h56l-270 -612c-36 -81 -62 -88 -162 -88l-1 42h25c52 0 73 17 94 65l43 100l-236 493h56zM286 742c-65 0 -107 41 -116 97h41c12 -78 137 -79 150 0h38c-3 -63 -57 -97 -113 -97z" />
    <glyph glyph-name="afii10110" unicode="&#x45e;" horiz-adv-x="508" 
d="M104 -181v43c58 -2 81 18 97 59l29 77l-207 509h56l179 -455l171 455h56l-235 -603c-25 -68 -73 -85 -130 -85h-16zM255 590c-63 0 -117 39 -120 102h40c13 -85 146 -86 160 0h37c-3 -67 -60 -102 -117 -102z" />
    <glyph glyph-name="afii10057" unicode="&#x408;" horiz-adv-x="549" 
d="M51 154l48 13c22 -86 91 -125 154 -125c71 0 141 55 141 150v461h-135v47h189v-508c0 -132 -96 -200 -194 -200c-87 0 -175 55 -203 162z" />
    <glyph glyph-name="afii10050" unicode="&#x490;" horiz-adv-x="522" 
d="M473 788v-131h-303v-657h-53v700h310v88h46z" />
    <glyph glyph-name="afii10023" unicode="&#x401;" horiz-adv-x="532" 
d="M455 701v-48h-294v-276h290v-51h-291v-276h295v-49h-349v700h349zM237 758h-61v62h61v-62zM410 758h-61v62h61v-62z" />
    <glyph glyph-name="afii10053" unicode="&#x404;" horiz-adv-x="728" 
d="M480 373v-45h-365c9 -159 125 -287 300 -287c83 0 167 40 224 108l36 -30c-65 -79 -159 -127 -260 -127c-220 0 -354 164 -354 355c0 188 127 360 354 360c104 0 179 -39 244 -108l-35 -30c-51 52 -109 90 -209 90c-168 0 -288 -116 -299 -286h364z" />
    <glyph glyph-name="afii10056" unicode="&#x407;" horiz-adv-x="285" 
d="M116 0v700h54v-700h-54zM87 743h-61v62h61v-62zM260 743h-61v62h61v-62z" />
    <glyph glyph-name="afii10055" unicode="&#x406;" horiz-adv-x="286" 
d="M116 0v700h54v-700h-54z" />
    <glyph glyph-name="afii10103" unicode="&#x456;" horiz-adv-x="245" 
d="M149 0h-53v508h53v-508zM150 699v-77h-55v77h55z" />
    <glyph glyph-name="afii10098" unicode="&#x491;" horiz-adv-x="469" 
d="M100 0v507h278v84h45v-129h-270v-462h-53z" />
    <glyph glyph-name="afii10071" unicode="&#x451;" horiz-adv-x="602" 
d="M306 42c57 0 117 21 153 66l39 -27c-48 -59 -116 -88 -192 -88c-163 0 -246 139 -245 265c0 127 85 255 244 256c138 1 235 -107 235 -243c0 -12 -1 -20 -2 -33h-429c7 -100 77 -196 197 -196zM109 282h385c-6 109 -84 182 -189 184c-118 -1 -182 -82 -196 -184zM247 622
h-61v62h61v-62zM420 622h-61v62h61v-62z" />
    <glyph glyph-name="afii61352" unicode="&#x2116;" horiz-adv-x="1337" 
d="M116 700h67l384 -648v648h54v-700h-84l-367 620v-620h-54v700zM830 253c0 -139 101 -220 199 -220c99 0 200 81 200 220s-101 217 -200 217c-98 0 -199 -78 -199 -217zM1281 253c0 -142 -107 -265 -252 -265c-144 0 -251 123 -251 265s107 265 251 265
c145 0 252 -123 252 -265z" />
    <glyph glyph-name="afii10101" unicode="&#x454;" horiz-adv-x="525" 
d="M302 468c-104 0 -188 -90 -197 -192h274v-44h-274c6 -112 82 -191 197 -192c50 0 93 12 148 59l30 -35c-29 -24 -61 -47 -88 -56c-25 -10 -55 -15 -90 -15c-148 1 -249 112 -249 257c0 147 103 263 250 265c62 1 120 -22 175 -73l-33 -31c-45 41 -96 57 -143 57z" />
    <glyph glyph-name="afii10105" unicode="&#x458;" horiz-adv-x="245" 
d="M-7 -189v45c69 0 103 39 103 97v555h53v-555c0 -98 -66 -146 -156 -142zM148 700v-75h-55v75h55z" />
    <glyph glyph-name="afii10054" unicode="&#x405;" 
d="M131 529c-6 -97 89 -125 151 -141c99 -25 209 -80 202 -220c-10 -115 -116 -177 -214 -177c-82 0 -169 47 -207 136c14 7 31 17 43 23c30 -64 92 -107 165 -107c90 -1 155 51 160 129c8 108 -92 146 -164 165c-87 24 -193 65 -189 195c4 120 101 179 196 179
c80 0 160 -42 194 -122l-42 -21c-30 57 -93 90 -150 90c-70 1 -140 -40 -145 -129z" />
    <glyph glyph-name="afii10102" unicode="&#x455;" horiz-adv-x="443" 
d="M229 279c79 -16 157 -57 157 -142c0 -100 -97 -146 -171 -146c-60 0 -118 25 -155 73c10 10 23 23 31 32c61 -84 235 -81 244 42c-1 57 -70 86 -116 95c-77 13 -148 54 -149 137c0 149 203 186 299 96l-31 -34c-64 62 -218 42 -217 -62c1 -59 64 -82 108 -91z" />
    <glyph glyph-name="afii10104" unicode="&#x457;" horiz-adv-x="245" 
d="M149 0h-53v508h53v-508zM67 636h-61v62h61v-62zM240 636h-61v62h61v-62z" />
    <glyph glyph-name="bgA" unicode="&#x410;" horiz-adv-x="636" 
d="M28 0l248 707h81c83 -231 169 -476 252 -707h-57l-84 234h-301l-81 -234h-58zM186 284h265l-134 388z" />
    <glyph glyph-name="afii10018" unicode="&#x411;" horiz-adv-x="606" 
d="M169 653v-237h139c150 0 224 -103 224 -207s-76 -209 -225 -209h-192v700h365v-47h-311zM307 367h-138v-321h138c113 0 172 83 172 163c0 79 -57 158 -172 158z" />
    <glyph glyph-name="afii10019" unicode="&#x412;" horiz-adv-x="613" 
d="M170 395h143c96 0 143 65 143 125s-47 134 -143 134h-143v-259zM313 347h-143v-299h143c116 0 173 83 173 152s-58 147 -173 147zM508 519c0 -52 -21 -115 -101 -146c102 -36 133 -108 132 -175c0 -133 -104 -198 -227 -198h-196v700h197c105 0 195 -72 195 -181z" />
    <glyph glyph-name="afii10020" unicode="&#x413;" horiz-adv-x="522" 
d="M473 700v-45h-303v-655h-53v700h356z" />
    <glyph glyph-name="afii10021" unicode="&#x414;" horiz-adv-x="708" 
d="M583 47h47v-202h-48v155h-493v-155h-48v194l41 8c77 56 77 183 84 264c1 17 2 39 4 56l21 333h392v-653zM138 47h393v610h-290l-17 -292l-3 -46c-5 -93 -16 -219 -83 -272z" />
    <glyph glyph-name="afii10022" unicode="&#x415;" horiz-adv-x="546" 
d="M463 701v-52h-294v-272h290v-51h-291v-273h295v-52h-349v700h349z" />
    <glyph glyph-name="afii10024" unicode="&#x416;" horiz-adv-x="875" 
d="M403 700h53v-343l301 343h64l-279 -319l291 -381h-64l-264 345l-49 -57v-288h-53v289l-52 56l-265 -345h-63l294 380l-280 320h66l300 -343v343z" />
    <glyph glyph-name="afii10025" unicode="&#x417;" horiz-adv-x="552" 
d="M45 114l37 28c47 -78 104 -104 180 -104c94 0 168 64 168 163c0 82 -73 157 -154 158h-93v46h93c67 0 135 50 137 124c-3 86 -74 135 -155 135c-53 0 -114 -31 -152 -82l-38 24c46 70 119 104 192 104c101 0 205 -64 205 -181c0 -62 -40 -128 -109 -149
c83 -27 127 -106 127 -180c0 -123 -101 -211 -222 -210c-89 1 -170 36 -216 124z" />
    <glyph glyph-name="afii10026" unicode="&#x418;" horiz-adv-x="737" 
d="M553 700h67v-700h-54v620l-367 -620h-84v700h54v-648z" />
    <glyph glyph-name="afii10027" unicode="&#x419;" horiz-adv-x="737" 
d="M553 700h67v-700h-54v620l-367 -620h-84v700h54v-648zM376 742c-69 0 -114 44 -123 103h43c13 -83 146 -84 160 0h40c-3 -67 -60 -103 -120 -103z" />
    <glyph glyph-name="afii10028" unicode="&#x41a;" horiz-adv-x="634" 
d="M116 700h53v-375l347 375h61l-275 -310l292 -390h-64l-267 353l-94 -92v-261h-53v700z" />
    <glyph glyph-name="afii10029" unicode="&#x41b;" horiz-adv-x="643" 
d="M145 327l15 374h370v-701h-53v657h-269l-12 -327c-3 -125 -11 -259 -160 -339l-22 35c123 76 127 176 131 301z" />
    <glyph glyph-name="afii10030" unicode="&#x41c;" horiz-adv-x="855" 
d="M455 107h-53l-233 533v-640h-53v701h82l230 -534c73 166 155 368 228 534h84v-701h-53l1 640z" />
    <glyph glyph-name="afii10031" unicode="&#x41d;" horiz-adv-x="688" 
d="M522 0v323h-354v-323h-54v700h54v-326h354v326h53v-700h-53z" />
    <glyph glyph-name="afii10032" unicode="&#x41e;" horiz-adv-x="824" 
d="M412 711c-209 0 -346 -170 -346 -362c0 -478 692 -478 692 0c0 192 -142 362 -346 362zM120 349c0 412 584 415 584 0c0 -411 -584 -410 -584 0z" />
    <glyph glyph-name="afii10033" unicode="&#x41f;" horiz-adv-x="674" 
d="M559 0h-53v655h-337v-655h-53v700h443v-700z" />
    <glyph glyph-name="afii10034" unicode="&#x420;" horiz-adv-x="587" 
d="M169 267v-267h-53v701h197c294 -3 300 -435 1 -434h-145zM169 317h144c231 8 221 321 0 333h-144v-333z" />
    <glyph glyph-name="afii10035" unicode="&#x421;" horiz-adv-x="733" 
d="M650 615l-36 -36c-53 50 -127 84 -202 82c-189 -3 -290 -164 -290 -313c0 -148 104 -309 290 -309c80 0 166 40 221 97l38 -31c-64 -70 -158 -118 -259 -118c-225 0 -345 184 -345 361s120 364 345 364c93 0 176 -37 238 -97z" />
    <glyph glyph-name="afii10036" unicode="&#x422;" horiz-adv-x="455" 
d="M25 700h405v-45h-176v-655h-53v655h-176v45z" />
    <glyph glyph-name="afii10037" unicode="&#x423;" horiz-adv-x="559" 
d="M86 700l206 -434l189 434h56l-270 -612c-36 -81 -62 -88 -162 -88l-1 42h25c52 0 73 17 94 65l43 100l-236 493h56z" />
    <glyph glyph-name="afii10038" unicode="&#x424;" horiz-adv-x="822" 
d="M384 640v61h52v-61c211 -7 319 -146 319 -288s-108 -284 -319 -290v-63h-52v63c-212 6 -322 147 -322 289s110 282 322 289zM436 596v-491c175 5 265 124 265 246c0 124 -91 238 -265 245zM116 352c0 -122 91 -242 268 -247v491c-175 -7 -268 -123 -268 -244z" />
    <glyph glyph-name="afii10039" unicode="&#x425;" horiz-adv-x="647" 
d="M600 700l-237 -350l240 -350h-62l-212 311l-213 -311h-62l241 350l-237 350h62l209 -312l208 312h63z" />
    <glyph glyph-name="afii10040" unicode="&#x426;" horiz-adv-x="676" 
d="M553 47h48v-201h-49v154h-442v700h53v-653h335v653h55v-653z" />
    <glyph glyph-name="afii10041" unicode="&#x427;" horiz-adv-x="628" 
d="M512 700v-700h-53v283c-43 -17 -89 -24 -135 -24c-133 0 -258 63 -258 213v228h54v-228c0 -115 101 -169 207 -169c46 0 92 9 132 24v373h53z" />
    <glyph glyph-name="afii10042" unicode="&#x428;" horiz-adv-x="1022" 
d="M117 700h54v-655h312v655h54v-655h312v655h54v-700h-786v700z" />
    <glyph glyph-name="afii10043" unicode="&#x429;" horiz-adv-x="1031" 
d="M118 700h53v-655h312v655h54v-655h312v655h55v-655h49v-199h-50v154h-785v700z" />
    <glyph glyph-name="bga" unicode="&#x430;" 
d="M427 105v138c-44 28 -98 40 -143 40c-233 0 -231 -247 -10 -247c52 0 116 25 153 69zM478 0h-40l-10 54c-47 -45 -106 -64 -154 -65c-289 -2 -291 341 9 344c42 0 95 -13 144 -42v24c0 109 -76 152 -159 152c-54 0 -101 -16 -146 -44l-26 36c50 38 115 57 175 57
c105 0 207 -65 207 -201v-315z" />
    <glyph glyph-name="afii10070" unicode="&#x435;" horiz-adv-x="603" 
d="M306 42c57 0 117 21 153 66l39 -27c-48 -59 -116 -88 -192 -88c-163 0 -246 139 -245 265c0 127 85 255 244 256c138 1 235 -107 235 -243c0 -12 -1 -20 -2 -33h-429c7 -100 77 -196 197 -196zM109 282h385c-6 109 -84 182 -189 184c-118 -1 -182 -82 -196 -184z" />
    <glyph glyph-name="afii10075" unicode="&#x439;" horiz-adv-x="619" 
d="M469 424l-318 -424h-51v507h52v-428l320 428h49v-507h-52v424zM315 587c-63 0 -117 39 -120 102h40c13 -85 146 -86 160 0h37c-3 -67 -60 -102 -117 -102z" />
    <glyph glyph-name="afii10076" unicode="&#x43a;" horiz-adv-x="521" 
d="M96 508h49v-269l264 268h62l-217 -220l230 -287h-57l-206 252l-76 -69v-183h-49v508z" />
    <glyph glyph-name="afii10080" unicode="&#x43e;" horiz-adv-x="614" 
d="M107 253c0 -139 101 -220 199 -220c99 0 200 81 200 220s-101 217 -200 217c-98 0 -199 -78 -199 -217zM558 253c0 -142 -107 -265 -252 -265c-144 0 -251 123 -251 265s107 265 251 265c145 0 252 -123 252 -265z" />
    <glyph glyph-name="afii10081" unicode="&#x43f;" horiz-adv-x="604" 
d="M98 507h403v-507h-53v461h-297v-461h-53v507z" />
    <glyph glyph-name="afii10082" unicode="&#x440;" horiz-adv-x="584" 
d="M278 510c317 1 318 -511 8 -515c-44 -1 -103 10 -139 56v-247h-51v703h44l8 -48c39 38 88 51 130 51zM276 42c249 5 253 407 12 422c-57 2 -107 -18 -140 -58v-294c37 -50 78 -70 128 -70z" />
    <glyph glyph-name="afii10083" unicode="&#x441;" horiz-adv-x="530" 
d="M467 454l-28 -34c-37 31 -85 45 -134 45c-100 1 -195 -81 -196 -215c0 -98 67 -208 197 -208c50 0 98 19 136 50c12 -15 20 -23 31 -36c-44 -40 -104 -64 -167 -64c-163 0 -249 132 -249 259c0 128 89 262 249 263c65 0 115 -16 161 -60z" />
    <glyph glyph-name="afii10085" unicode="&#x443;" horiz-adv-x="508" 
d="M104 -181v43c58 -2 81 18 97 59l29 77l-207 509h56l179 -455l171 455h56l-235 -603c-25 -68 -73 -85 -130 -85h-16z" />
    <glyph glyph-name="afii10087" unicode="&#x445;" horiz-adv-x="518" 
d="M257 286l146 221h62l-174 -253c56 -78 123 -175 179 -254h-60l-153 224l-150 -224h-61l176 254c-56 80 -118 172 -174 253h63z" />
    <glyph glyph-name="afii10044" unicode="&#x42a;" horiz-adv-x="645" 
d="M360 366h-135v-319h135c112 1 168 80 168 158c0 79 -56 160 -168 161zM225 700v-289h136c147 0 220 -103 220 -206c0 -102 -73 -205 -221 -205h-188v658h-145v42h198z" />
    <glyph glyph-name="afii10045" unicode="&#x42b;" horiz-adv-x="826" 
d="M304 364h-135v-317h135c111 1 167 80 167 158c0 79 -56 158 -167 159zM169 700v-289h136c146 0 220 -103 220 -206c0 -102 -74 -205 -221 -205h-189v700h54zM653 0v700h54v-700h-54z" />
    <glyph glyph-name="afii10046" unicode="&#x42c;" horiz-adv-x="584" 
d="M303 364h-135v-316h135c111 1 167 79 167 157c0 79 -56 158 -167 159zM168 700v-289h136c146 0 220 -103 220 -206c0 -102 -74 -205 -221 -205h-189v700h54z" />
    <glyph glyph-name="afii10047" unicode="&#x42d;" horiz-adv-x="728" 
d="M249 328v45h364c-11 170 -131 286 -299 286c-100 0 -158 -38 -209 -90l-35 30c65 69 140 108 244 108c227 0 354 -172 354 -360c0 -191 -134 -355 -354 -355c-101 0 -195 48 -260 127l36 30c57 -68 141 -108 224 -108c175 0 291 128 300 287h-365z" />
    <glyph glyph-name="afii10048" unicode="&#x42e;" horiz-adv-x="1067" 
d="M634 710c210 -3 355 -154 355 -362c0 -41 -5 -78 -13 -110c-9 -34 -25 -64 -42 -91c-15 -25 -38 -50 -60 -71c-23 -17 -47 -35 -74 -49c-28 -14 -54 -23 -82 -30c-26 -6 -55 -9 -84 -9c-34 0 -67 4 -100 14h1c-105 29 -195 113 -233 214c-10 27 -17 70 -20 110h-112v-326
h-54v700h54v-328h112c8 84 42 178 103 240c67 66 156 98 249 98zM634 662c-79 0 -154 -29 -212 -87c-61 -62 -85 -142 -86 -227c1 -41 6 -79 18 -111c31 -90 106 -159 195 -188c30 -9 59 -13 85 -13c28 0 56 4 86 13c25 8 61 24 82 38c26 18 49 36 69 61c19 23 36 52 48 87
l-1 -1c10 35 17 72 17 114c0 177 -122 312 -301 314z" />
    <glyph glyph-name="afii10049" unicode="&#x42f;" horiz-adv-x="612" 
d="M54 0l233 301c-148 3 -218 71 -217 200c2 130 93 199 221 199h205v-700h-53v299h-97l-227 -299h-65zM296 345h147v307h-151c-98 0 -171 -49 -171 -151c0 -107 60 -156 175 -156z" />
    <glyph glyph-name="afii10066" unicode="&#x431;" horiz-adv-x="640" 
d="M105 382h2c43 94 139 127 211 127c126 -1 253 -78 254 -256c0 -149 -108 -267 -256 -261c-102 0 -192 56 -233 153c-17 40 -20 89 -23 132c-8 125 18 253 108 336c74 63 156 80 252 80c25 0 51 5 52 45h45c2 -71 -53 -91 -95 -91c-86 0 -157 -7 -224 -69
c-45 -41 -78 -99 -93 -196zM111 253c0 -29 5 -55 12 -78c30 -88 107 -135 193 -135c119 0 204 87 204 213c-1 144 -102 208 -203 209s-206 -70 -206 -209z" />
    <glyph glyph-name="afii10067" unicode="&#x432;" horiz-adv-x="580" 
d="M102 0v507h198c83 0 184 -26 185 -130c0 -54 -36 -98 -89 -113c66 -12 103 -65 105 -119c4 -111 -102 -144 -193 -145h-206zM300 462h-147v-177h152c25 0 50 2 71 10c30 13 58 45 57 82c-2 69 -75 85 -133 85zM295 242h-142v-197h155c63 0 146 24 143 99
c-2 38 -28 70 -63 83c-28 11 -61 15 -93 15z" />
    <glyph glyph-name="afii10068" unicode="&#x433;" horiz-adv-x="469" 
d="M100 0v507h323v-46h-270v-461h-53z" />
    <glyph glyph-name="afii10069" unicode="&#x434;" horiz-adv-x="633" 
d="M517 507v-461h41v-173h-49v127h-429v-127h-50v173h42c53 29 56 107 56 181v280h389zM130 46h335v420h-286v-239c0 -50 0 -137 -49 -181z" />
    <glyph glyph-name="afii10072" unicode="&#x436;" horiz-adv-x="756" 
d="M348 507h48v-248l238 249h60l-210 -225l224 -283h-60l-198 256l-54 -49v-207h-48v206l-53 50l-200 -256h-58l225 283l-211 224h62l235 -246v246z" />
    <glyph glyph-name="afii10073" unicode="&#x437;" horiz-adv-x="462" 
d="M388 378c0 -45 -31 -97 -84 -113c61 -15 99 -70 101 -120c5 -112 -97 -155 -192 -155c-67 0 -131 29 -178 63l27 39c43 -33 95 -52 151 -52c76 0 143 33 140 104c-1 38 -30 68 -65 84c-30 11 -72 12 -110 12h-33v45h37c31 -1 68 2 95 12l-1 -1c31 13 61 45 60 82
c-2 62 -63 89 -126 89c-48 0 -101 -16 -132 -46l-28 36c39 36 100 57 158 57c89 0 179 -42 180 -136z" />
    <glyph glyph-name="afii10074" unicode="&#x438;" horiz-adv-x="619" 
d="M469 424l-318 -424h-51v507h52v-428l320 428h49v-507h-52v424z" />
    <glyph glyph-name="afii10077" unicode="&#x43b;" horiz-adv-x="573" 
d="M171 229c0 -91 -9 -176 -122 -236l-24 39c95 51 93 136 93 223v252h355v-507h-53v460h-249v-231z" />
    <glyph glyph-name="afii10078" unicode="&#x43c;" horiz-adv-x="691" 
d="M102 507h58l188 -345l188 345h56v-507h-52v410l-169 -311h-48l-168 312v-411h-53v507z" />
    <glyph glyph-name="afii10079" unicode="&#x43d;" horiz-adv-x="604" 
d="M98 507h53v-230h297v230h53v-507h-53v231h-297v-231h-53v507z" />
    <glyph glyph-name="afii10084" unicode="&#x442;" horiz-adv-x="471" 
d="M34 462v45h397v-45h-172v-462h-54v462h-171z" />
    <glyph glyph-name="afii10086" unicode="&#x444;" horiz-adv-x="700" 
d="M108 253c-4 -121 90 -216 213 -218v437c-124 -2 -216 -99 -213 -219zM373 472v-437c128 2 212 94 212 218c0 121 -87 217 -212 219zM321 700h52v-186c154 -3 265 -113 265 -261c0 -150 -104 -257 -265 -260v-182h-52v182c-153 3 -269 111 -265 260
c-2 147 111 256 265 261v186z" />
    <glyph glyph-name="afii10088" unicode="&#x446;" horiz-adv-x="617" 
d="M449 507h53v-460h42l-1 -174h-46v127h-399v507h53v-460h298v460z" />
    <glyph glyph-name="afii10089" unicode="&#x447;" horiz-adv-x="569" 
d="M467 0h-53v184c-39 -15 -85 -22 -126 -22c-119 0 -226 68 -226 213v132h53v-132c0 -113 84 -167 177 -167c42 0 83 8 122 25v274h53v-507z" />
    <glyph glyph-name="afii10090" unicode="&#x448;" horiz-adv-x="900" 
d="M474 46h269v461h53v-507h-696v507h53v-461h270v461h51v-461z" />
    <glyph glyph-name="afii10091" unicode="&#x449;" horiz-adv-x="913" 
d="M475 46h268v461h54v-460h42l-1 -174h-47v127h-691v507h54v-461h269v461h52v-461z" />
    <glyph glyph-name="afii10092" unicode="&#x44a;" horiz-adv-x="621" 
d="M212 507v-204h156c94 0 184 -40 184 -152c0 -111 -90 -151 -184 -151h-207v465h-132v42h183zM368 259h-156v-214h156c67 0 134 29 134 106c0 79 -67 107 -134 108z" />
    <glyph glyph-name="afii10093" unicode="&#x44b;" horiz-adv-x="755" 
d="M150 507v-206h156c94 0 185 -38 185 -150c0 -111 -91 -151 -185 -151h-207v507h51zM306 259h-156v-216h156c67 0 134 31 134 108c0 79 -67 107 -134 108zM599 0v507h51v-507h-51z" />
    <glyph glyph-name="afii10094" unicode="&#x44c;" horiz-adv-x="556" 
d="M149 507v-207h156c94 0 184 -37 184 -149c0 -111 -90 -151 -184 -151h-207v507h51zM305 259h-156v-216h156c67 0 134 31 134 108c0 79 -67 107 -134 108z" />
    <glyph glyph-name="afii10095" unicode="&#x44d;" horiz-adv-x="525" 
d="M220 468c-47 0 -98 -16 -143 -57l-33 31c55 51 113 74 175 73c147 -2 250 -118 250 -265c0 -145 -101 -256 -249 -257c-35 0 -65 5 -90 15c-27 9 -59 32 -88 56l30 35c55 -47 98 -59 148 -59c115 1 191 80 197 192h-274v44h274c-9 102 -93 192 -197 192z" />
    <glyph glyph-name="afii10096" unicode="&#x44e;" horiz-adv-x="829" 
d="M297 252c0 -47 14 -100 44 -139c39 -43 101 -73 159 -73c38 0 77 11 111 31c65 39 92 106 92 181c0 60 -18 113 -61 155c-39 38 -91 58 -142 58c-39 0 -78 -12 -112 -33c-37 -23 -65 -60 -79 -101c-8 -23 -12 -49 -12 -79zM150 231v-231h-51v507h51v-231h95
c2 27 10 57 21 83c19 44 56 88 96 114s87 40 138 40c68 0 131 -24 178 -70c51 -51 76 -119 76 -191c0 -91 -35 -173 -117 -222c-40 -26 -89 -38 -137 -38c-76 1 -151 34 -198 92c-35 44 -54 93 -57 147h-95z" />
    <glyph glyph-name="bgq" unicode="&#x44f;" horiz-adv-x="549" 
d="M446 507v-507h-51v221h-101l-186 -221h-58l180 221c-90 2 -170 35 -170 143c0 112 84 143 178 143h208zM238 265h157v195h-157c-66 -1 -128 -19 -128 -96c0 -78 62 -99 128 -99z" />
    <glyph glyph-name="afii10099" unicode="&#x452;" horiz-adv-x="592" 
d="M31 581v41h68v78h54v-78h138v-41h-138v-114c36 24 88 41 133 42c118 -8 218 -84 218 -217v-85c0 -143 -65 -209 -208 -208v43c111 1 154 50 154 165v85c0 107 -83 167 -168 167c-47 0 -95 -17 -130 -58v-401h-53v581h-68z" />
    <glyph glyph-name="afii10106" unicode="&#x459;" horiz-adv-x="828" 
d="M98 507h318v-207h156c95 0 186 -36 186 -149c0 -110 -91 -151 -186 -151h-207v462h-214v-233c0 -92 -9 -176 -122 -236l-27 37c96 51 96 124 96 212v265zM572 258h-156v-212h156c68 0 136 28 136 105c0 79 -68 106 -136 107z" />
    <glyph glyph-name="afii10107" unicode="&#x45a;" horiz-adv-x="881" 
d="M415 507h52v-214h156c95 0 186 -32 186 -144c0 -111 -91 -149 -186 -149h-208v250h-260v-250h-54v507h54v-214h260v214zM623 251h-156v-206h156c68 0 137 26 137 104s-69 101 -137 102z" />
    <glyph glyph-name="afii10058" unicode="&#x409;" horiz-adv-x="913" 
d="M489 700v-294h137c147 0 222 -101 222 -203c0 -101 -75 -203 -223 -203h-190v655h-235l-6 -304c-3 -139 1 -278 -160 -364l-23 41c126 77 126 169 131 293l8 379h339zM625 362h-136v-318h136c112 0 169 81 169 160s-57 158 -169 158z" />
    <glyph glyph-name="afii10059" unicode="&#x40a;" horiz-adv-x="934" 
d="M510 700v-311h137c148 0 221 -95 221 -192c0 -98 -74 -197 -222 -197h-190v346h-287v-346h-54v700h54v-311h287v311h54zM646 346h-136v-303h136c111 0 168 78 168 154c0 75 -57 149 -168 149z" />
    <glyph glyph-name="afii10060" unicode="&#x40b;" horiz-adv-x="716" 
d="M618 0h-54v296c0 111 -71 173 -171 173c-48 0 -94 -17 -133 -54v-415h-53v657h-182v43h417v-43h-181v-186c38 28 87 45 136 46c128 0 222 -86 221 -221v-296z" />
    <glyph glyph-name="afii10051" unicode="&#x402;" horiz-adv-x="710" 
d="M401 -1v44c100 8 163 38 163 167v86c0 111 -71 173 -171 173c-48 0 -94 -17 -133 -54v-415h-53v658h-182v42h417v-42h-181v-184c38 28 87 42 136 43c128 0 222 -86 221 -221v-86c1 -144 -82 -208 -217 -211z" />
    <glyph glyph-name="dieresistonos" unicode="&#x385;" horiz-adv-x="513" 
d="M303 854l-71 -97h-38l56 97h53zM126 796h57v58h-57v-58zM326 796h57v58h-57v-58z" />
    <glyph glyph-name="afii00208" unicode="&#x2015;" horiz-adv-x="871" 
d="M110 256v44h662v-44h-662z" />
    <glyph glyph-name="tonos" unicode="&#x384;" horiz-adv-x="489" 
d="M316 866l-76 -104h-46l60 104h62z" />
    <glyph glyph-name="iotadieresistonos" unicode="&#x390;" horiz-adv-x="266" 
d="M215 -1v43c-51 0 -66 15 -66 65v400h-53v-400c0 -96 45 -107 119 -108zM191 694l-71 -97h-38l56 97h53zM14 636h57v58h-57v-58zM214 636h57v58h-57v-58z" />
    <glyph glyph-name="Alpha" unicode="&#x391;" horiz-adv-x="636" 
d="M28 0l248 707h81c83 -231 169 -476 252 -707h-57l-84 234h-301l-81 -234h-58zM186 284h265l-134 388z" />
    <glyph glyph-name="Beta" unicode="&#x392;" horiz-adv-x="613" 
d="M508 519c0 -52 -21 -115 -101 -146c102 -36 133 -108 132 -175c0 -133 -104 -198 -227 -198h-196v700h197c105 0 195 -72 195 -181zM170 395h143c96 0 143 65 143 125s-47 136 -143 136h-143v-261zM313 347h-143v-301h143c116 0 173 85 173 154s-58 147 -173 147z" />
    <glyph glyph-name="Gamma" unicode="&#x393;" horiz-adv-x="522" 
d="M473 700v-45h-303v-655h-53v700h356z" />
    <glyph glyph-name="Delta" unicode="&#x394;" horiz-adv-x="635" 
d="M609 0h-581l248 707h81c83 -231 169 -476 252 -707zM535 47l-218 625l-215 -625h433z" />
    <glyph glyph-name="Epsilon" unicode="&#x395;" horiz-adv-x="531" 
d="M461 701v-52h-294v-272h290v-51h-291v-273h295v-52h-349v700h349z" />
    <glyph glyph-name="Zeta" unicode="&#x396;" horiz-adv-x="572" 
d="M67 0v53l363 601h-345v47h413v-28l-379 -625h385v-48h-437z" />
    <glyph glyph-name="Eta" unicode="&#x397;" horiz-adv-x="688" 
d="M522 0v323h-354v-323h-54v700h54v-326h354v326h53v-700h-53z" />
    <glyph glyph-name="Theta" unicode="&#x398;" horiz-adv-x="824" 
d="M412 711c-209 0 -346 -170 -346 -362c0 -478 692 -478 692 0c0 198 -142 362 -346 362zM120 349c0 412 584 415 584 0c0 -411 -584 -410 -584 0zM195 329v49h434v-49h-434z" />
    <glyph glyph-name="Iota" unicode="&#x399;" horiz-adv-x="286" 
d="M116 0v700h54v-700h-54z" />
    <glyph glyph-name="Kappa" unicode="&#x39a;" horiz-adv-x="634" 
d="M116 700h53v-375l347 375h61l-275 -310l292 -390h-64l-267 353l-94 -92v-261h-53v700z" />
    <glyph glyph-name="Lambda" unicode="&#x39b;" horiz-adv-x="631" 
d="M274 705h81l251 -705h-56l-236 669l-232 -669h-56c82 232 166 473 248 705z" />
    <glyph glyph-name="Mu" unicode="&#x39c;" horiz-adv-x="855" 
d="M455 107h-53l-233 533v-640h-53v701h82l230 -534c73 166 155 368 228 534h84v-701h-53l1 640z" />
    <glyph glyph-name="Nu" unicode="&#x39d;" horiz-adv-x="737" 
d="M116 700h67l384 -648v648h54v-700h-84l-367 620v-620h-54v700z" />
    <glyph glyph-name="Xi" unicode="&#x39e;" horiz-adv-x="553" 
d="M50 49h450v-49h-450v49zM494 652h-438v48h438v-48zM93 328v48h362v-48h-362z" />
    <glyph glyph-name="Omicron" unicode="&#x39f;" horiz-adv-x="824" 
d="M412 711c-209 0 -346 -170 -346 -362c0 -478 692 -478 692 0c0 192 -142 362 -346 362zM120 349c0 412 584 415 584 0c0 -411 -584 -410 -584 0z" />
    <glyph glyph-name="Pi" unicode="&#x3a0;" horiz-adv-x="675" 
d="M559 0h-53v655h-337v-655h-53v700h443v-700z" />
    <glyph glyph-name="Rho" unicode="&#x3a1;" horiz-adv-x="587" 
d="M169 267v-267h-53v701h197c294 -3 300 -435 1 -434h-145zM169 317h144c231 8 221 321 0 333h-144v-333z" />
    <glyph glyph-name="Sigma" unicode="&#x3a3;" 
d="M323 371v-22l-203 -301h391v-48h-432l-27 33l218 326l-209 308l23 33h419v-47h-373z" />
    <glyph glyph-name="Tau" unicode="&#x3a4;" horiz-adv-x="455" 
d="M25 700h405v-45h-176v-655h-53v655h-176v45z" />
    <glyph glyph-name="Upsilon" unicode="&#x3a5;" horiz-adv-x="593" 
d="M560 700l-238 -420v-280h-53v281l-236 419h59l204 -370l205 370h59z" />
    <glyph glyph-name="Phi" unicode="&#x3a6;" horiz-adv-x="822" 
d="M384 640v61h52v-61c211 -7 319 -146 319 -288s-108 -284 -319 -290v-63h-52v63c-212 6 -322 147 -322 289s110 282 322 289zM436 596v-491c175 5 265 124 265 246c0 124 -91 238 -265 245zM116 352c0 -122 91 -242 268 -247v491c-175 -7 -268 -123 -268 -244z" />
    <glyph glyph-name="Chi" unicode="&#x3a7;" horiz-adv-x="647" 
d="M600 700l-237 -350l240 -350h-62l-212 311l-213 -311h-62l241 350l-237 350h62l209 -312l208 312h63z" />
    <glyph glyph-name="Psi" unicode="&#x3a8;" horiz-adv-x="791" 
d="M361 194v506h54v-506c173 7 241 113 242 241v265h53v-265c-1 -141 -84 -282 -295 -288v-147h-54v147c-213 6 -296 146 -297 287v266h54v-265c1 -124 71 -233 243 -241z" />
    <glyph glyph-name="Iotadieresis" unicode="&#x3aa;" horiz-adv-x="286" 
d="M116 0v700h54v-700h-54zM87 747h-61v62h61v-62zM260 747h-61v62h61v-62z" />
    <glyph glyph-name="Upsilondieresis" unicode="&#x3ab;" horiz-adv-x="593" 
d="M560 700l-238 -420v-280h-53v281l-236 419h59l204 -370l205 370h59zM240 744h-61v62h61v-62zM413 744h-61v62h61v-62z" />
    <glyph glyph-name="alphatonos" unicode="&#x3ac;" horiz-adv-x="582" 
d="M305 512c42 0 91 -13 130 -51l8 48h44v-509h-43l-7 60c-32 -51 -96 -66 -140 -65c-314 4 -313 518 8 517zM307 42c50 0 91 20 128 70v296c-33 40 -83 60 -140 58c-245 -15 -245 -419 12 -424zM398 690l-76 -104h-43l60 104h59z" />
    <glyph glyph-name="epsilontonos" unicode="&#x3ad;" horiz-adv-x="475" 
d="M74 378c1 97 102 136 185 136c54 1 110 -18 160 -54l-26 -39c-45 30 -91 43 -134 43c-56 -1 -132 -23 -133 -86c-2 -80 88 -93 158 -93h37v-42h-34c-81 0 -169 -10 -178 -98c-2 -71 69 -104 144 -103c58 0 106 19 151 50l28 -40c-47 -34 -111 -59 -180 -59
c-95 0 -200 41 -195 153c2 60 44 105 104 120c-56 9 -87 63 -87 112zM348 691l-76 -104h-43l60 104h59z" />
    <glyph glyph-name="etatonos" unicode="&#x3ae;" horiz-adv-x="621" 
d="M148 411c33 40 82 59 139 58c101 -4 190 -72 191 -178v-291h52v291c0 143 -110 224 -241 226c-50 0 -105 -18 -141 -53l-7 43h-45v-507h52v411zM392 694l-76 -104h-43l60 104h59z" />
    <glyph glyph-name="iotatonos" unicode="&#x3af;" horiz-adv-x="266" 
d="M215 -1v43c-51 0 -66 15 -66 65v400h-53v-400c0 -96 45 -107 119 -108zM214 690l-76 -104h-43l60 104h59z" />
    <glyph glyph-name="upsilondieresistonos" unicode="&#x3b0;" horiz-adv-x="624" 
d="M302 46c-80 2 -155 57 -155 163v298h-51v-298c-1 -127 91 -211 206 -214c119 0 215 84 214 214v298h-52v-298c0 -107 -78 -163 -162 -163zM358 689l-71 -97h-38l56 97h53zM181 631h57v58h-57v-58zM381 631h57v58h-57v-58z" />
    <glyph glyph-name="alpha" unicode="&#x3b1;" horiz-adv-x="582" 
d="M305 512c42 0 91 -13 130 -51l8 48h44v-509h-43l-7 60c-32 -51 -96 -66 -140 -65c-314 4 -313 518 8 517zM307 42c50 0 91 20 128 70v296c-33 40 -83 60 -140 58c-245 -15 -245 -419 12 -424z" />
    <glyph glyph-name="beta" unicode="&#x3b2;" horiz-adv-x="585" 
d="M145 533v-729h-51v729c-2 233 379 239 379 4c0 -52 -20 -125 -103 -156c95 -30 147 -100 146 -185c3 -134 -101 -211 -210 -211c-29 0 -77 5 -105 13v48c138 -45 263 23 263 150c0 74 -61 156 -173 156h-46v49h46c86 0 134 78 130 139c1 171 -276 162 -276 -7z" />
    <glyph glyph-name="eta" unicode="&#x3b7;" horiz-adv-x="620" 
d="M148 411v-411h-52v507h45l7 -43c36 35 91 53 141 53c131 -2 241 -83 241 -226v-291h-52v291c-1 106 -90 174 -191 178c-57 1 -106 -18 -139 -58z" />
    <glyph glyph-name="kappa" unicode="&#x3ba;" horiz-adv-x="522" 
d="M96 507h49v-267l264 267h62l-217 -220c72 -89 157 -197 230 -287h-57l-206 252l-76 -69v-183h-49v507z" />
    <glyph glyph-name="nu" unicode="&#x3bd;" horiz-adv-x="488" 
d="M85 507l159 -469h4l157 469h55l-177 -511h-74l-178 511h54z" />
    <glyph glyph-name="omicron" unicode="&#x3bf;" horiz-adv-x="614" 
d="M107 253c0 -139 101 -220 199 -220c99 0 200 81 200 220s-101 217 -200 217c-98 0 -199 -78 -199 -217zM558 253c0 -142 -107 -265 -252 -265c-144 0 -251 123 -251 265s107 265 251 265c145 0 252 -123 252 -265z" />
    <glyph glyph-name="pi" unicode="&#x3c0;" horiz-adv-x="604" 
d="M98 507h403v-507h-53v461h-297v-461h-53v507z" />
    <glyph glyph-name="sigma" unicode="&#x3c3;" horiz-adv-x="614" 
d="M558 253c0 -160 -107 -265 -252 -265c-144 0 -251 108 -251 265c0 151 107 261 251 261h283v-41h-168c95 -35 137 -134 137 -220zM107 253c0 -151 101 -220 199 -220c99 0 200 57 200 220c0 139 -101 213 -200 213c-98 0 -199 -62 -199 -213z" />
    <glyph glyph-name="chi" unicode="&#x3c7;" horiz-adv-x="518" 
d="M257 286l146 221h62l-174 -253c56 -78 123 -175 179 -254h-60l-153 224l-150 -224h-61l176 254c-56 80 -118 172 -174 253h63z" />
    <glyph glyph-name="iotadieresis" unicode="&#x3ca;" horiz-adv-x="245" 
d="M215 42v-43c-74 1 -119 12 -119 108v400h53v-400c0 -50 15 -65 66 -65zM75 634h-61v62h61v-62zM235 634h-61v62h61v-62z" />
    <glyph glyph-name="upsilondieresis" unicode="&#x3cb;" horiz-adv-x="623" 
d="M302 46c84 0 162 56 162 163v298h52v-298c1 -130 -95 -214 -214 -214c-115 3 -207 87 -206 214v298h51v-298c0 -106 75 -161 155 -163zM253 632h-61v62h61v-62zM426 632h-61v62h61v-62z" />
    <glyph glyph-name="omicrontonos" unicode="&#x3cc;" horiz-adv-x="614" 
d="M107 253c0 139 101 217 199 217c99 0 200 -78 200 -217s-101 -220 -200 -220c-98 0 -199 81 -199 220zM558 253c0 142 -107 265 -252 265c-144 0 -251 -123 -251 -265s107 -265 251 -265c145 0 252 123 252 265zM401 688l-76 -104h-46l60 104h62z" />
    <glyph glyph-name="upsilontonos" unicode="&#x3cd;" horiz-adv-x="625" 
d="M302 46c-80 2 -155 57 -155 163v298h-51v-298c-1 -127 91 -211 206 -214c119 0 215 84 214 214v298h-52v-298c0 -107 -78 -163 -162 -163zM393 692l-76 -104h-46l60 104h62z" />
    <glyph glyph-name="omegatonos" unicode="&#x3ce;" horiz-adv-x="795" 
d="M557 511l-11 -47c99 -23 127 -122 127 -211c0 -103 -45 -207 -138 -208c-19 1 -36 4 -51 10c-43 21 -67 76 -69 124v193h-49v-193c0 -44 -23 -103 -68 -125c-14 -6 -32 -9 -50 -10c-93 1 -139 106 -139 209c0 86 25 188 126 211l-10 47c-78 -15 -131 -83 -150 -142
c-10 -33 -15 -74 -15 -114c0 -127 60 -259 188 -260c14 0 29 2 42 5c44 12 81 41 101 103c15 -53 54 -89 101 -103c14 -3 28 -5 43 -5c128 1 189 133 189 260c0 41 -6 80 -17 114c-18 58 -73 128 -150 142zM485 692l-76 -104h-43l60 104h59z" />
    <glyph glyph-name="Omega" unicode="&#x3a9;" horiz-adv-x="847" 
d="M415 663c-178 0 -302 -133 -302 -307c0 -159 84 -260 209 -311l-12 -45h-271v45h192c-103 50 -171 166 -171 311c0 204 146 355 355 355c210 0 354 -152 354 -355c0 -145 -71 -265 -170 -312h193v-44h-265l-10 45c123 56 200 147 200 311c0 173 -124 306 -302 307z" />
    <glyph glyph-name="gamma" unicode="&#x3b3;" horiz-adv-x="506" 
d="M18 461v46c65 2 88 -10 111 -73l128 -374l151 447h56l-182 -512v-190h-50v190c-52 142 -103 285 -154 427c-11 24 -23 40 -60 39z" />
    <glyph glyph-name="delta" unicode="&#x3b4;" horiz-adv-x="627" 
d="M563 237c0 -38 -6 -73 -20 -102c-15 -29 -33 -57 -56 -78c-25 -20 -52 -38 -82 -46v1c-29 -12 -61 -18 -97 -18c-37 1 -69 6 -96 17c-28 10 -58 29 -80 48c-20 19 -44 51 -56 78c-15 32 -22 64 -23 100c4 104 67 196 184 218c-59 8 -123 54 -123 110
c0 109 119 142 206 141c51 -1 117 -14 172 -45l-26 -38c-31 23 -92 38 -151 38c-75 0 -149 -27 -149 -96c0 -63 102 -77 152 -84c66 -9 114 -26 165 -71c51 -46 80 -107 80 -173zM448 377c-41 35 -89 53 -140 53c-18 0 -37 -2 -56 -7c-62 -16 -111 -56 -134 -115
c-7 -22 -12 -45 -12 -71c0 -30 5 -53 11 -72c9 -18 23 -42 34 -55c13 -16 30 -28 47 -39h-1c17 -9 35 -17 55 -22c21 -5 39 -8 56 -8c19 0 37 3 57 7c20 6 42 14 57 22c17 9 32 21 45 38c15 15 26 34 33 54c8 21 12 45 12 75c0 56 -23 103 -64 140z" />
    <glyph glyph-name="epsilon" unicode="&#x3b5;" horiz-adv-x="475" 
d="M74 378c1 97 102 136 185 136c54 1 110 -18 160 -54l-26 -39c-45 30 -91 43 -134 43c-56 -1 -132 -23 -133 -86c-2 -80 88 -93 158 -93h37v-42h-34c-81 0 -169 -10 -178 -98c-2 -71 69 -104 144 -103c58 0 106 19 151 50l28 -40c-47 -34 -111 -59 -180 -59
c-95 0 -200 41 -195 153c2 60 44 105 104 120c-56 9 -87 63 -87 112z" />
    <glyph glyph-name="zeta" unicode="&#x3b6;" horiz-adv-x="457" 
d="M451 700v-37c-122 -106 -344 -298 -344 -471c0 -48 23 -87 76 -114c39 -20 119 -47 164 -61c47 -15 79 -61 68 -113c-7 -27 -33 -66 -56 -100l-39 25c21 30 41 63 44 84c6 28 -12 49 -39 60c-57 24 -118 31 -177 67c-63 36 -93 91 -93 149c0 164 193 356 329 470h-312v41
h379z" />
    <glyph glyph-name="theta" unicode="&#x3b8;" horiz-adv-x="641" 
d="M570 343c0 -52 -8 -105 -19 -145c-13 -42 -34 -83 -55 -111c-25 -30 -53 -53 -82 -69c-29 -15 -66 -24 -99 -24c-34 0 -69 9 -99 25c-30 17 -58 42 -80 71c-22 32 -44 71 -55 112v-1c-14 39 -21 89 -21 142c0 52 7 101 21 143c11 37 33 78 55 110c23 32 49 55 80 73
c31 16 65 25 99 25c33 0 70 -9 99 -25c30 -17 58 -41 82 -71c22 -32 42 -72 55 -112c12 -41 19 -90 19 -143zM519 340h-406c0 -39 4 -77 13 -110c7 -32 21 -63 34 -86c31 -55 88 -103 155 -103c65 0 121 42 157 101c14 21 25 53 34 85c8 33 12 73 13 113zM114 382h404
c-2 24 -7 51 -12 74c-25 93 -86 192 -191 192c-103 0 -162 -87 -189 -190c-5 -24 -10 -51 -12 -76z" />
    <glyph glyph-name="iota" unicode="&#x3b9;" horiz-adv-x="266" 
d="M215 42v-43c-74 1 -119 12 -119 108v400h53v-400c0 -50 15 -65 66 -65z" />
    <glyph glyph-name="lambda" unicode="&#x3bb;" horiz-adv-x="516" 
d="M101 654v46h22c56 2 91 -13 113 -78l207 -537c11 -25 21 -46 60 -45v-40c-67 -1 -87 17 -106 72l-139 361l-175 -433h-54l203 494l-43 113c-15 36 -37 50 -88 47z" />
    <glyph glyph-name="xi" unicode="&#x3be;" horiz-adv-x="465" 
d="M333 -34l-36 13c-117 39 -225 76 -233 220c0 72 43 148 127 174c-79 20 -109 85 -109 144c1 109 83 190 206 190c47 0 97 -12 145 -43l-25 -37c-41 25 -82 35 -119 35c-93 0 -159 -57 -156 -146c3 -70 62 -120 139 -121h97v-43h-97c-95 -2 -157 -69 -157 -153
c6 -112 117 -149 220 -181c54 -20 115 -46 84 -119c-12 -27 -30 -56 -52 -83l-37 25c27 34 38 57 43 75c11 28 -14 40 -40 50z" />
    <glyph glyph-name="rho" unicode="&#x3c1;" horiz-adv-x="633" 
d="M328 -5c-79 2 -155 46 -188 121v-312h-49v455c2 127 81 250 237 252c156 -2 235 -125 237 -252c3 -132 -76 -262 -237 -264zM335 462h-16c-112 0 -182 -116 -178 -212v-4c1 -93 71 -189 177 -203h21c108 0 173 109 174 203c5 97 -59 216 -178 216z" />
    <glyph glyph-name="sigma1" unicode="&#x3c2;" horiz-adv-x="529" 
d="M301 -13l-19 5c-131 34 -232 103 -232 258c0 37 6 72 18 105c40 96 119 161 237 161c73 0 114 -14 175 -65l-32 -34c-44 42 -90 50 -144 50c-121 0 -203 -86 -203 -218c0 -131 85 -184 207 -216c67 -18 168 -47 136 -136c-8 -24 -31 -55 -51 -83l-38 27
c22 29 39 56 44 73c10 34 -25 55 -98 73z" />
    <glyph glyph-name="tau" unicode="&#x3c4;" horiz-adv-x="372" 
d="M301 40v-41c-97 -2 -151 35 -154 132v335h-113v41h296v-41h-130v-335c0 -65 32 -90 101 -91z" />
    <glyph glyph-name="upsilon" unicode="&#x3c5;" horiz-adv-x="625" 
d="M302 46c84 0 162 56 162 163v298h52v-298c1 -130 -95 -214 -214 -214c-115 3 -207 87 -206 214v298h51v-298c0 -106 75 -161 155 -163z" />
    <glyph glyph-name="phi" unicode="&#x3c6;" horiz-adv-x="699" 
d="M108 254c0 -124 89 -218 215 -220v479c60 1 120 -6 159 -22c99 -39 156 -133 157 -237c-1 -91 -38 -173 -118 -222c-36 -23 -91 -35 -147 -39v-181h-51v181c-156 -3 -266 112 -266 261c0 88 36 177 148 240l24 -40c-99 -57 -121 -127 -121 -200zM374 469v-434
c126 5 213 96 213 219c0 84 -44 162 -120 196c-26 10 -60 17 -93 19z" />
    <glyph glyph-name="psi" unicode="&#x3c8;" horiz-adv-x="762" 
d="M348 40v483h49v-483c46 3 92 13 122 32c62 40 92 107 93 181v254h51v-253c-1 -91 -38 -172 -116 -221c-36 -23 -93 -34 -150 -38v-191h-49v191c-56 4 -113 15 -149 38c-80 48 -117 132 -117 221v253h51v-253c0 -76 31 -144 92 -182c31 -20 79 -29 123 -32z" />
    <glyph glyph-name="omega" unicode="&#x3c9;" horiz-adv-x="795" 
d="M546 464l11 47c77 -14 132 -84 150 -142c11 -34 17 -73 17 -114c0 -127 -61 -259 -189 -260c-15 0 -29 2 -43 5c-47 14 -86 50 -101 103c-20 -62 -57 -91 -101 -103c-13 -3 -28 -5 -42 -5c-128 1 -188 133 -188 260c0 40 5 81 15 114c19 59 72 127 150 142l10 -47
c-101 -23 -126 -125 -126 -211c0 -103 46 -208 139 -209c18 1 36 4 50 10c45 22 68 81 68 125v193h49v-193c2 -48 26 -103 69 -124c15 -6 32 -9 51 -10c93 1 138 105 138 208c0 89 -28 188 -127 211z" />
    <glyph glyph-name="Alphatonos" unicode="&#x386;" horiz-adv-x="636" 
d="M28 0l248 707h81c83 -231 169 -476 252 -707h-57l-84 234h-301l-81 -234h-58zM186 284h265l-134 388zM122 703l-76 -104h-43l60 104h59z" />
    <glyph glyph-name="Epsilontonos" unicode="&#x388;" horiz-adv-x="531" 
d="M461 701v-52h-294v-272h290v-51h-291v-273h295v-52h-349v700h349zM68 700l-76 -104h-43l60 104h59z" />
    <glyph glyph-name="Etatonos" unicode="&#x389;" horiz-adv-x="688" 
d="M522 0v323h-354v-323h-54v700h54v-326h354v326h53v-700h-53zM68 700l-76 -104h-43l60 104h59z" />
    <glyph glyph-name="Iotatonos" unicode="&#x38a;" horiz-adv-x="286" 
d="M116 0v700h54v-700h-54zM76 700l-76 -104h-43l60 104h59z" />
    <glyph glyph-name="Omicrontonos" unicode="&#x38c;" horiz-adv-x="824" 
d="M412 711c-209 0 -346 -170 -346 -362c0 -478 692 -478 692 0c0 192 -142 362 -346 362zM120 349c0 412 584 415 584 0c0 -411 -584 -410 -584 0zM111 700l-76 -104h-43l60 104h59z" />
    <glyph glyph-name="Upsilontonos" unicode="&#x38e;" horiz-adv-x="618" 
d="M585 700l-238 -420v-280h-53v281l-232 419h58l201 -370l205 370h59zM47 700l-74 -104h-43l60 104h57z" />
    <glyph glyph-name="Omegatonos" unicode="&#x38f;" horiz-adv-x="847" 
d="M415 663c-178 0 -302 -133 -302 -307c0 -159 87 -258 212 -309l-15 -47h-271v47h192c-103 50 -171 164 -171 309c0 204 146 355 355 355c210 0 354 -152 354 -355c0 -145 -71 -263 -170 -310h193v-46h-265l-12 47c123 56 202 145 202 309c0 173 -124 306 -302 307z
M94 700l-76 -104h-43l60 104h59z" />
    <glyph glyph-name="Scaron" unicode="&#x160;" 
d="M131 529c-6 -97 89 -125 151 -141c99 -25 209 -80 202 -220c-10 -115 -116 -177 -214 -177c-82 0 -169 47 -207 136c14 7 31 17 43 23c30 -64 92 -107 165 -107c90 -1 155 51 160 129c8 108 -92 146 -164 165c-87 24 -193 65 -189 195c4 120 101 179 196 179
c80 0 160 -42 194 -122l-42 -21c-30 57 -93 90 -150 90c-70 1 -140 -40 -145 -129zM399 884l-84 -100h-69l-82 100h48l69 -78l70 78h48z" />
    <glyph glyph-name="Zcaron" unicode="&#x17d;" horiz-adv-x="572" 
d="M67 0v53l363 601h-345v47h413v-28l-379 -625h385v-48h-437zM424 875l-84 -100h-69l-82 100h48l69 -78l70 78h48z" />
    <glyph glyph-name="scaron" unicode="&#x161;" horiz-adv-x="443" 
d="M229 279c79 -16 157 -57 157 -142c0 -100 -97 -146 -171 -146c-60 0 -118 25 -155 73c10 10 23 23 31 32c61 -84 235 -81 244 42c-1 57 -70 86 -116 95c-77 13 -148 54 -149 137c0 149 203 186 299 96l-31 -34c-64 62 -218 42 -217 -62c1 -59 64 -82 108 -91zM351 711
l-84 -100h-69l-82 100h48l69 -78l70 78h48z" />
    <glyph glyph-name="zcaron" unicode="&#x17e;" horiz-adv-x="464" 
d="M411 45v-45h-355v32l290 430h-280v45h338v-34l-289 -428h296zM367 716l-84 -100h-69l-82 100h48l69 -78l70 78h48z" />
    <glyph glyph-name="Ydieresis" unicode="&#x178;" horiz-adv-x="593" 
d="M560 700l-238 -420v-280h-53v281l-236 419h59l204 -370l205 370h59zM241 754h-61v62h61v-62zM414 754h-61v62h61v-62z" />
    </font>
</defs>
</svg>
